<ttFont>
<head>
    <!-- Most of this table will be recalculated by the compiler -->
    <tableVersion value="1.0"/>
    <fontRevision value="5.0"/>
    <checkSumAdjustment value="0x90380aa0"/>
    <magicNumber value="0x5f0f3cf5"/>
    <flags value="00000000 00001011"/>
    <unitsPerEm value="2048"/>
    <created value="Sun May 15 08:57:39 2005"/>
    <modified value="Thu Apr 14 12:54:35 2011"/>
    <xMin value="-199"/>
    <yMin value="-1027"/>
    <xMax value="6476"/>
    <yMax value="2305"/>
    <macStyle value="00000000 00000000"/>
    <lowestRecPPEM value="8"/>
    <fontDirectionHint value="2"/>
    <indexToLocFormat value="1"/>
    <glyphDataFormat value="0"/>
  </head>
    <TTGlyph name=".notdef" xMin="142" yMin="226" xMax="842" yMax="1588">
      <contour>
        <pt x="142" y="226" on="1"/>
        <pt x="142" y="1588" on="1"/>
        <pt x="842" y="1588" on="1"/>
        <pt x="842" y="226" on="1"/>
      </contour>
      <contour>
        <pt x="284" y="368" on="1"/>
        <pt x="700" y="368" on="1"/>
        <pt x="700" y="1447" on="1"/>
        <pt x="284" y="1447" on="1"/>
      </contour>
    </TTGlyph>
    <TTGlyph name=".null" xMin="142" yMin="226" xMax="842" yMax="1588">
      <contour>
        <pt x="142" y="226" on="1"/>
        <pt x="142" y="1588" on="1"/>
        <pt x="842" y="1588" on="1"/>
        <pt x="842" y="226" on="1"/>
      </contour>
      <contour>
        <pt x="284" y="368" on="1"/>
        <pt x="700" y="368" on="1"/>
        <pt x="700" y="1447" on="1"/>
        <pt x="284" y="1447" on="1"/>
      </contour>
    </TTGlyph>
    <TTGlyph name="afii57381" xMin="142" yMin="226" xMax="842" yMax="1588">
      <contour>
        <pt x="142" y="226" on="1"/>
        <pt x="142" y="1588" on="1"/>
        <pt x="842" y="1588" on="1"/>
        <pt x="842" y="226" on="1"/>
      </contour>
      <contour>
        <pt x="284" y="368" on="1"/>
        <pt x="700" y="368" on="1"/>
        <pt x="700" y="1447" on="1"/>
        <pt x="284" y="1447" on="1"/>
      </contour>
    </TTGlyph>
    <TTGlyph name="afii57388" xMin="142" yMin="226" xMax="842" yMax="1588">
      <contour>
        <pt x="142" y="226" on="1"/>
        <pt x="142" y="1588" on="1"/>
        <pt x="842" y="1588" on="1"/>
        <pt x="842" y="226" on="1"/>
      </contour>
      <contour>
        <pt x="284" y="368" on="1"/>
        <pt x="700" y="368" on="1"/>
        <pt x="700" y="1447" on="1"/>
        <pt x="284" y="1447" on="1"/>
      </contour>
    </TTGlyph>
    <TTGlyph name="afii57396" xMin="142" yMin="226" xMax="842" yMax="1588">
      <contour>
        <pt x="142" y="226" on="1"/>
        <pt x="142" y="1588" on="1"/>
        <pt x="842" y="1588" on="1"/>
        <pt x="842" y="226" on="1"/>
      </contour>
      <contour>
        <pt x="284" y="368" on="1"/>
        <pt x="700" y="368" on="1"/>
        <pt x="700" y="1447" on="1"/>
        <pt x="284" y="1447" on="1"/>
      </contour>
    </TTGlyph>
    <TTGlyph name="afii57397" xMin="142" yMin="226" xMax="842" yMax="1588">
      <contour>
        <pt x="142" y="226" on="1"/>
        <pt x="142" y="1588" on="1"/>
        <pt x="842" y="1588" on="1"/>
        <pt x="842" y="226" on="1"/>
      </contour>
      <contour>
        <pt x="284" y="368" on="1"/>
        <pt x="700" y="368" on="1"/>
        <pt x="700" y="1447" on="1"/>
        <pt x="284" y="1447" on="1"/>
      </contour>
    </TTGlyph>
    <TTGlyph name="afii57398" xMin="142" yMin="226" xMax="842" yMax="1588">
      <contour>
        <pt x="142" y="226" on="1"/>
        <pt x="142" y="1588" on="1"/>
        <pt x="842" y="1588" on="1"/>
        <pt x="842" y="226" on="1"/>
      </contour>
      <contour>
        <pt x="284" y="368" on="1"/>
        <pt x="700" y="368" on="1"/>
        <pt x="700" y="1447" on="1"/>
        <pt x="284" y="1447" on="1"/>
      </contour>
    </TTGlyph>
    <TTGlyph name="afii57403" xMin="142" yMin="226" xMax="842" yMax="1588">
      <contour>
        <pt x="142" y="226" on="1"/>
        <pt x="142" y="1588" on="1"/>
        <pt x="842" y="1588" on="1"/>
        <pt x="842" y="226" on="1"/>
      </contour>
      <contour>
        <pt x="284" y="368" on="1"/>
        <pt x="700" y="368" on="1"/>
        <pt x="700" y="1447" on="1"/>
        <pt x="284" y="1447" on="1"/>
      </contour>
    </TTGlyph>
    <TTGlyph name="afii57407" xMin="142" yMin="226" xMax="842" yMax="1588">
      <contour>
        <pt x="142" y="226" on="1"/>
        <pt x="142" y="1588" on="1"/>
        <pt x="842" y="1588" on="1"/>
        <pt x="842" y="226" on="1"/>
      </contour>
      <contour>
        <pt x="284" y="368" on="1"/>
        <pt x="700" y="368" on="1"/>
        <pt x="700" y="1447" on="1"/>
        <pt x="284" y="1447" on="1"/>
      </contour>
    </TTGlyph>
    <TTGlyph name="afii57440" xMin="142" yMin="226" xMax="842" yMax="1588">
      <contour>
        <pt x="142" y="226" on="1"/>
        <pt x="142" y="1588" on="1"/>
        <pt x="842" y="1588" on="1"/>
        <pt x="842" y="226" on="1"/>
      </contour>
      <contour>
        <pt x="284" y="368" on="1"/>
        <pt x="700" y="368" on="1"/>
        <pt x="700" y="1447" on="1"/>
        <pt x="284" y="1447" on="1"/>
      </contour>
    </TTGlyph>
    <TTGlyph name="afii57451" xMin="142" yMin="226" xMax="842" yMax="1588">
      <contour>
        <pt x="142" y="226" on="1"/>
        <pt x="142" y="1588" on="1"/>
        <pt x="842" y="1588" on="1"/>
        <pt x="842" y="226" on="1"/>
      </contour>
      <contour>
        <pt x="284" y="368" on="1"/>
        <pt x="700" y="368" on="1"/>
        <pt x="700" y="1447" on="1"/>
        <pt x="284" y="1447" on="1"/>
      </contour>
    </TTGlyph>
    <TTGlyph name="afii57452" xMin="142" yMin="226" xMax="842" yMax="1588">
      <contour>
        <pt x="142" y="226" on="1"/>
        <pt x="142" y="1588" on="1"/>
        <pt x="842" y="1588" on="1"/>
        <pt x="842" y="226" on="1"/>
      </contour>
      <contour>
        <pt x="284" y="368" on="1"/>
        <pt x="700" y="368" on="1"/>
        <pt x="700" y="1447" on="1"/>
        <pt x="284" y="1447" on="1"/>
      </contour>
    </TTGlyph>
    <TTGlyph name="afii57453" xMin="142" yMin="226" xMax="842" yMax="1588">
      <contour>
        <pt x="142" y="226" on="1"/>
        <pt x="142" y="1588" on="1"/>
        <pt x="842" y="1588" on="1"/>
        <pt x="842" y="226" on="1"/>
      </contour>
      <contour>
        <pt x="284" y="368" on="1"/>
        <pt x="700" y="368" on="1"/>
        <pt x="700" y="1447" on="1"/>
        <pt x="284" y="1447" on="1"/>
      </contour>
    </TTGlyph>
    <TTGlyph name="afii57454" xMin="142" yMin="226" xMax="842" yMax="1588">
      <contour>
        <pt x="142" y="226" on="1"/>
        <pt x="142" y="1588" on="1"/>
        <pt x="842" y="1588" on="1"/>
        <pt x="842" y="226" on="1"/>
      </contour>
      <contour>
        <pt x="284" y="368" on="1"/>
        <pt x="700" y="368" on="1"/>
        <pt x="700" y="1447" on="1"/>
        <pt x="284" y="1447" on="1"/>
      </contour>
    </TTGlyph>
    <TTGlyph name="afii57455" xMin="142" yMin="226" xMax="842" yMax="1588">
      <contour>
        <pt x="142" y="226" on="1"/>
        <pt x="142" y="1588" on="1"/>
        <pt x="842" y="1588" on="1"/>
        <pt x="842" y="226" on="1"/>
      </contour>
      <contour>
        <pt x="284" y="368" on="1"/>
        <pt x="700" y="368" on="1"/>
        <pt x="700" y="1447" on="1"/>
        <pt x="284" y="1447" on="1"/>
      </contour>
    </TTGlyph>
    <TTGlyph name="afii57456" xMin="142" yMin="226" xMax="842" yMax="1588">
      <contour>
        <pt x="142" y="226" on="1"/>
        <pt x="142" y="1588" on="1"/>
        <pt x="842" y="1588" on="1"/>
        <pt x="842" y="226" on="1"/>
      </contour>
      <contour>
        <pt x="284" y="368" on="1"/>
        <pt x="700" y="368" on="1"/>
        <pt x="700" y="1447" on="1"/>
        <pt x="284" y="1447" on="1"/>
      </contour>
    </TTGlyph>
    <TTGlyph name="afii57457" xMin="142" yMin="226" xMax="842" yMax="1588">
      <contour>
        <pt x="142" y="226" on="1"/>
        <pt x="142" y="1588" on="1"/>
        <pt x="842" y="1588" on="1"/>
        <pt x="842" y="226" on="1"/>
      </contour>
      <contour>
        <pt x="284" y="368" on="1"/>
        <pt x="700" y="368" on="1"/>
        <pt x="700" y="1447" on="1"/>
        <pt x="284" y="1447" on="1"/>
      </contour>
    </TTGlyph>
    <TTGlyph name="afii57458" xMin="142" yMin="226" xMax="842" yMax="1588">
      <contour>
        <pt x="142" y="226" on="1"/>
        <pt x="142" y="1588" on="1"/>
        <pt x="842" y="1588" on="1"/>
        <pt x="842" y="226" on="1"/>
      </contour>
      <contour>
        <pt x="284" y="368" on="1"/>
        <pt x="700" y="368" on="1"/>
        <pt x="700" y="1447" on="1"/>
        <pt x="284" y="1447" on="1"/>
      </contour>
    </TTGlyph>
    <TTGlyph name="afii57505" xMin="142" yMin="226" xMax="842" yMax="1588">
      <contour>
        <pt x="142" y="226" on="1"/>
        <pt x="142" y="1588" on="1"/>
        <pt x="842" y="1588" on="1"/>
        <pt x="842" y="226" on="1"/>
      </contour>
      <contour>
        <pt x="284" y="368" on="1"/>
        <pt x="700" y="368" on="1"/>
        <pt x="700" y="1447" on="1"/>
        <pt x="284" y="1447" on="1"/>
      </contour>
    </TTGlyph>
    <TTGlyph name="afii57506" xMin="142" yMin="226" xMax="842" yMax="1588">
      <contour>
        <pt x="142" y="226" on="1"/>
        <pt x="142" y="1588" on="1"/>
        <pt x="842" y="1588" on="1"/>
        <pt x="842" y="226" on="1"/>
      </contour>
      <contour>
        <pt x="284" y="368" on="1"/>
        <pt x="700" y="368" on="1"/>
        <pt x="700" y="1447" on="1"/>
        <pt x="284" y="1447" on="1"/>
      </contour>
    </TTGlyph>
    <TTGlyph name="afii57507" xMin="142" yMin="226" xMax="842" yMax="1588">
      <contour>
        <pt x="142" y="226" on="1"/>
        <pt x="142" y="1588" on="1"/>
        <pt x="842" y="1588" on="1"/>
        <pt x="842" y="226" on="1"/>
      </contour>
      <contour>
        <pt x="284" y="368" on="1"/>
        <pt x="700" y="368" on="1"/>
        <pt x="700" y="1447" on="1"/>
        <pt x="284" y="1447" on="1"/>
      </contour>
    </TTGlyph>
    <TTGlyph name="afii57508" xMin="142" yMin="226" xMax="842" yMax="1588">
      <contour>
        <pt x="142" y="226" on="1"/>
        <pt x="142" y="1588" on="1"/>
        <pt x="842" y="1588" on="1"/>
        <pt x="842" y="226" on="1"/>
      </contour>
      <contour>
        <pt x="284" y="368" on="1"/>
        <pt x="700" y="368" on="1"/>
        <pt x="700" y="1447" on="1"/>
        <pt x="284" y="1447" on="1"/>
      </contour>
    </TTGlyph>
    <TTGlyph name="afii57509" xMin="142" yMin="226" xMax="842" yMax="1588">
      <contour>
        <pt x="142" y="226" on="1"/>
        <pt x="142" y="1588" on="1"/>
        <pt x="842" y="1588" on="1"/>
        <pt x="842" y="226" on="1"/>
      </contour>
      <contour>
        <pt x="284" y="368" on="1"/>
        <pt x="700" y="368" on="1"/>
        <pt x="700" y="1447" on="1"/>
        <pt x="284" y="1447" on="1"/>
      </contour>
    </TTGlyph>
    <TTGlyph name="afii57511" xMin="142" yMin="226" xMax="842" yMax="1588">
      <contour>
        <pt x="142" y="226" on="1"/>
        <pt x="142" y="1588" on="1"/>
        <pt x="842" y="1588" on="1"/>
        <pt x="842" y="226" on="1"/>
      </contour>
      <contour>
        <pt x="284" y="368" on="1"/>
        <pt x="700" y="368" on="1"/>
        <pt x="700" y="1447" on="1"/>
        <pt x="284" y="1447" on="1"/>
      </contour>
    </TTGlyph>
    <TTGlyph name="afii57512" xMin="142" yMin="226" xMax="842" yMax="1588">
      <contour>
        <pt x="142" y="226" on="1"/>
        <pt x="142" y="1588" on="1"/>
        <pt x="842" y="1588" on="1"/>
        <pt x="842" y="226" on="1"/>
      </contour>
      <contour>
        <pt x="284" y="368" on="1"/>
        <pt x="700" y="368" on="1"/>
        <pt x="700" y="1447" on="1"/>
        <pt x="284" y="1447" on="1"/>
      </contour>
    </TTGlyph>
    <TTGlyph name="afii57513" xMin="142" yMin="226" xMax="842" yMax="1588">
      <contour>
        <pt x="142" y="226" on="1"/>
        <pt x="142" y="1588" on="1"/>
        <pt x="842" y="1588" on="1"/>
        <pt x="842" y="226" on="1"/>
      </contour>
      <contour>
        <pt x="284" y="368" on="1"/>
        <pt x="700" y="368" on="1"/>
        <pt x="700" y="1447" on="1"/>
        <pt x="284" y="1447" on="1"/>
      </contour>
    </TTGlyph>
    <TTGlyph name="afii57514" xMin="142" yMin="226" xMax="842" yMax="1588">
      <contour>
        <pt x="142" y="226" on="1"/>
        <pt x="142" y="1588" on="1"/>
        <pt x="842" y="1588" on="1"/>
        <pt x="842" y="226" on="1"/>
      </contour>
      <contour>
        <pt x="284" y="368" on="1"/>
        <pt x="700" y="368" on="1"/>
        <pt x="700" y="1447" on="1"/>
        <pt x="284" y="1447" on="1"/>
      </contour>
    </TTGlyph>
    <TTGlyph name="afii57519" xMin="142" yMin="226" xMax="842" yMax="1588">
      <contour>
        <pt x="142" y="226" on="1"/>
        <pt x="142" y="1588" on="1"/>
        <pt x="842" y="1588" on="1"/>
        <pt x="842" y="226" on="1"/>
      </contour>
      <contour>
        <pt x="284" y="368" on="1"/>
        <pt x="700" y="368" on="1"/>
        <pt x="700" y="1447" on="1"/>
        <pt x="284" y="1447" on="1"/>
      </contour>
    </TTGlyph>
    <TTGlyph name="afii57534" xMin="142" yMin="226" xMax="842" yMax="1588">
      <contour>
        <pt x="142" y="226" on="1"/>
        <pt x="142" y="1588" on="1"/>
        <pt x="842" y="1588" on="1"/>
        <pt x="842" y="226" on="1"/>
      </contour>
      <contour>
        <pt x="284" y="368" on="1"/>
        <pt x="700" y="368" on="1"/>
        <pt x="700" y="1447" on="1"/>
        <pt x="284" y="1447" on="1"/>
      </contour>
    </TTGlyph>
    <TTGlyph name="afii63167" xMin="142" yMin="226" xMax="842" yMax="1588">
      <contour>
        <pt x="142" y="226" on="1"/>
        <pt x="142" y="1588" on="1"/>
        <pt x="842" y="1588" on="1"/>
        <pt x="842" y="226" on="1"/>
      </contour>
      <contour>
        <pt x="284" y="368" on="1"/>
        <pt x="700" y="368" on="1"/>
        <pt x="700" y="1447" on="1"/>
        <pt x="284" y="1447" on="1"/>
      </contour>
    </TTGlyph>
    <TTGlyph name="alefmaksurainitial" xMin="142" yMin="226" xMax="842" yMax="1588">
      <contour>
        <pt x="142" y="226" on="1"/>
        <pt x="142" y="1588" on="1"/>
        <pt x="842" y="1588" on="1"/>
        <pt x="842" y="226" on="1"/>
      </contour>
      <contour>
        <pt x="284" y="368" on="1"/>
        <pt x="700" y="368" on="1"/>
        <pt x="700" y="1447" on="1"/>
        <pt x="284" y="1447" on="1"/>
      </contour>
    </TTGlyph>
    <TTGlyph name="alefwaslafinalarabic" xMin="142" yMin="226" xMax="842" yMax="1588">
      <contour>
        <pt x="142" y="226" on="1"/>
        <pt x="142" y="1588" on="1"/>
        <pt x="842" y="1588" on="1"/>
        <pt x="842" y="226" on="1"/>
      </contour>
      <contour>
        <pt x="284" y="368" on="1"/>
        <pt x="700" y="368" on="1"/>
        <pt x="700" y="1447" on="1"/>
        <pt x="284" y="1447" on="1"/>
      </contour>
    </TTGlyph>
    <TTGlyph name="ampersand" xMin="142" yMin="226" xMax="842" yMax="1588">
      <contour>
        <pt x="142" y="226" on="1"/>
        <pt x="142" y="1588" on="1"/>
        <pt x="842" y="1588" on="1"/>
        <pt x="842" y="226" on="1"/>
      </contour>
      <contour>
        <pt x="284" y="368" on="1"/>
        <pt x="700" y="368" on="1"/>
        <pt x="700" y="1447" on="1"/>
        <pt x="284" y="1447" on="1"/>
      </contour>
    </TTGlyph>
    <TTGlyph name="asterisk" xMin="142" yMin="226" xMax="842" yMax="1588">
      <contour>
        <pt x="142" y="226" on="1"/>
        <pt x="142" y="1588" on="1"/>
        <pt x="842" y="1588" on="1"/>
        <pt x="842" y="226" on="1"/>
      </contour>
      <contour>
        <pt x="284" y="368" on="1"/>
        <pt x="700" y="368" on="1"/>
        <pt x="700" y="1447" on="1"/>
        <pt x="284" y="1447" on="1"/>
      </contour>
    </TTGlyph>
    <TTGlyph name="behmeemisolatedarabic" xMin="142" yMin="226" xMax="842" yMax="1588">
      <contour>
        <pt x="142" y="226" on="1"/>
        <pt x="142" y="1588" on="1"/>
        <pt x="842" y="1588" on="1"/>
        <pt x="842" y="226" on="1"/>
      </contour>
      <contour>
        <pt x="284" y="368" on="1"/>
        <pt x="700" y="368" on="1"/>
        <pt x="700" y="1447" on="1"/>
        <pt x="284" y="1447" on="1"/>
      </contour>
    </TTGlyph>
    <TTGlyph name="behnoonfinalarabic" xMin="142" yMin="226" xMax="842" yMax="1588">
      <contour>
        <pt x="142" y="226" on="1"/>
        <pt x="142" y="1588" on="1"/>
        <pt x="842" y="1588" on="1"/>
        <pt x="842" y="226" on="1"/>
      </contour>
      <contour>
        <pt x="284" y="368" on="1"/>
        <pt x="700" y="368" on="1"/>
        <pt x="700" y="1447" on="1"/>
        <pt x="284" y="1447" on="1"/>
      </contour>
    </TTGlyph>
    <TTGlyph name="colon" xMin="142" yMin="226" xMax="842" yMax="1588">
      <contour>
        <pt x="142" y="226" on="1"/>
        <pt x="142" y="1588" on="1"/>
        <pt x="842" y="1588" on="1"/>
        <pt x="842" y="226" on="1"/>
      </contour>
      <contour>
        <pt x="284" y="368" on="1"/>
        <pt x="700" y="368" on="1"/>
        <pt x="700" y="1447" on="1"/>
        <pt x="284" y="1447" on="1"/>
      </contour>
    </TTGlyph>
    <TTGlyph name="dagger" xMin="142" yMin="226" xMax="842" yMax="1588">
      <contour>
        <pt x="142" y="226" on="1"/>
        <pt x="142" y="1588" on="1"/>
        <pt x="842" y="1588" on="1"/>
        <pt x="842" y="226" on="1"/>
      </contour>
      <contour>
        <pt x="284" y="368" on="1"/>
        <pt x="700" y="368" on="1"/>
        <pt x="700" y="1447" on="1"/>
        <pt x="284" y="1447" on="1"/>
      </contour>
    </TTGlyph>
    <TTGlyph name="dalringfinal" xMin="142" yMin="226" xMax="842" yMax="1588">
      <contour>
        <pt x="142" y="226" on="1"/>
        <pt x="142" y="1588" on="1"/>
        <pt x="842" y="1588" on="1"/>
        <pt x="842" y="226" on="1"/>
      </contour>
      <contour>
        <pt x="284" y="368" on="1"/>
        <pt x="700" y="368" on="1"/>
        <pt x="700" y="1447" on="1"/>
        <pt x="284" y="1447" on="1"/>
      </contour>
    </TTGlyph>
    <TTGlyph name="ddalfinalarabic" xMin="142" yMin="226" xMax="842" yMax="1588">
      <contour>
        <pt x="142" y="226" on="1"/>
        <pt x="142" y="1588" on="1"/>
        <pt x="842" y="1588" on="1"/>
        <pt x="842" y="226" on="1"/>
      </contour>
      <contour>
        <pt x="284" y="368" on="1"/>
        <pt x="700" y="368" on="1"/>
        <pt x="700" y="1447" on="1"/>
        <pt x="284" y="1447" on="1"/>
      </contour>
    </TTGlyph>
    <TTGlyph name="divide" xMin="142" yMin="226" xMax="842" yMax="1588">
      <contour>
        <pt x="142" y="226" on="1"/>
        <pt x="142" y="1588" on="1"/>
        <pt x="842" y="1588" on="1"/>
        <pt x="842" y="226" on="1"/>
      </contour>
      <contour>
        <pt x="284" y="368" on="1"/>
        <pt x="700" y="368" on="1"/>
        <pt x="700" y="1447" on="1"/>
        <pt x="284" y="1447" on="1"/>
      </contour>
    </TTGlyph>
    <TTGlyph name="dollar" xMin="142" yMin="226" xMax="842" yMax="1588">
      <contour>
        <pt x="142" y="226" on="1"/>
        <pt x="142" y="1588" on="1"/>
        <pt x="842" y="1588" on="1"/>
        <pt x="842" y="226" on="1"/>
      </contour>
      <contour>
        <pt x="284" y="368" on="1"/>
        <pt x="700" y="368" on="1"/>
        <pt x="700" y="1447" on="1"/>
        <pt x="284" y="1447" on="1"/>
      </contour>
    </TTGlyph>
    <TTGlyph name="dotlessyehfinalarabic" xMin="142" yMin="226" xMax="842" yMax="1588">
      <contour>
        <pt x="142" y="226" on="1"/>
        <pt x="142" y="1588" on="1"/>
        <pt x="842" y="1588" on="1"/>
        <pt x="842" y="226" on="1"/>
      </contour>
      <contour>
        <pt x="284" y="368" on="1"/>
        <pt x="700" y="368" on="1"/>
        <pt x="700" y="1447" on="1"/>
        <pt x="284" y="1447" on="1"/>
      </contour>
    </TTGlyph>
    <TTGlyph name="dotlessyehinitialarabic" xMin="142" yMin="226" xMax="842" yMax="1588">
      <contour>
        <pt x="142" y="226" on="1"/>
        <pt x="142" y="1588" on="1"/>
        <pt x="842" y="1588" on="1"/>
        <pt x="842" y="226" on="1"/>
      </contour>
      <contour>
        <pt x="284" y="368" on="1"/>
        <pt x="700" y="368" on="1"/>
        <pt x="700" y="1447" on="1"/>
        <pt x="284" y="1447" on="1"/>
      </contour>
    </TTGlyph>
    <TTGlyph name="dotlessyehmedialarabic" xMin="142" yMin="226" xMax="842" yMax="1588">
      <contour>
        <pt x="142" y="226" on="1"/>
        <pt x="142" y="1588" on="1"/>
        <pt x="842" y="1588" on="1"/>
        <pt x="842" y="226" on="1"/>
      </contour>
      <contour>
        <pt x="284" y="368" on="1"/>
        <pt x="700" y="368" on="1"/>
        <pt x="700" y="1447" on="1"/>
        <pt x="284" y="1447" on="1"/>
      </contour>
    </TTGlyph>
    <TTGlyph name="elefmaksuramedial" xMin="142" yMin="226" xMax="842" yMax="1588">
      <contour>
        <pt x="142" y="226" on="1"/>
        <pt x="142" y="1588" on="1"/>
        <pt x="842" y="1588" on="1"/>
        <pt x="842" y="226" on="1"/>
      </contour>
      <contour>
        <pt x="284" y="368" on="1"/>
        <pt x="700" y="368" on="1"/>
        <pt x="700" y="1447" on="1"/>
        <pt x="284" y="1447" on="1"/>
      </contour>
    </TTGlyph>
    <TTGlyph name="ellipsis" xMin="142" yMin="226" xMax="842" yMax="1588">
      <contour>
        <pt x="142" y="226" on="1"/>
        <pt x="142" y="1588" on="1"/>
        <pt x="842" y="1588" on="1"/>
        <pt x="842" y="226" on="1"/>
      </contour>
      <contour>
        <pt x="284" y="368" on="1"/>
        <pt x="700" y="368" on="1"/>
        <pt x="700" y="1447" on="1"/>
        <pt x="284" y="1447" on="1"/>
      </contour>
    </TTGlyph>
    <TTGlyph name="emdash" xMin="261" yMin="-688" xMax="2309" yMax="1502">
      <contour>
        <pt x="2143" y="1406" on="1"/>
        <pt x="2143" y="1363" on="0"/>
        <pt x="2068" y="1291" on="1"/>
        <pt x="2028" y="1257" on="0"/>
        <pt x="1988" y="1223" on="1"/>
        <pt x="1943" y="1179" on="0"/>
        <pt x="1860" y="1114" on="1"/>
        <pt x="1854" y="1119" on="0"/>
        <pt x="1843" y="1129" on="0"/>
        <pt x="1843" y="1144" on="1"/>
        <pt x="1843" y="1197" on="0"/>
        <pt x="1973" y="1315" on="1"/>
        <pt x="2075" y="1406" on="0"/>
        <pt x="2134" y="1441" on="1"/>
        <pt x="2143" y="1427" on="0"/>
      </contour>
      <contour>
        <pt x="1824" y="1461" on="1"/>
        <pt x="1824" y="1432" on="0"/>
        <pt x="1786" y="1392" on="1"/>
        <pt x="1758" y="1364" on="0"/>
        <pt x="1729" y="1336" on="1"/>
        <pt x="1650" y="1256" on="0"/>
        <pt x="1623" y="1231" on="1"/>
        <pt x="1569" y="1182" on="0"/>
        <pt x="1519" y="1156" on="1"/>
        <pt x="1519" y="1159" on="0"/>
        <pt x="1511" y="1181" on="0"/>
        <pt x="1511" y="1196" on="1"/>
        <pt x="1511" y="1244" on="0"/>
        <pt x="1638" y="1362" on="1"/>
        <pt x="1719" y="1432" on="0"/>
        <pt x="1801" y="1502" on="1"/>
        <pt x="1808" y="1495" on="0"/>
        <pt x="1815" y="1488" on="1"/>
        <pt x="1824" y="1478" on="0"/>
      </contour>
      <contour>
        <pt x="2016" y="668" on="1"/>
        <pt x="2016" y="640" on="0"/>
        <pt x="1993" y="609" on="1"/>
        <pt x="1973" y="582" on="0"/>
        <pt x="1960" y="582" on="1"/>
        <pt x="1941" y="582" on="0"/>
        <pt x="1877" y="656" on="1"/>
        <pt x="1877" y="684" on="0"/>
        <pt x="1904" y="721" on="1"/>
        <pt x="1930" y="755" on="0"/>
        <pt x="1943" y="755" on="1"/>
        <pt x="1960" y="755" on="0"/>
        <pt x="2016" y="691" on="0"/>
      </contour>
      <contour>
        <pt x="1478" y="1349" on="1"/>
        <pt x="1478" y="1309" on="0"/>
        <pt x="1403" y="1234" on="1"/>
        <pt x="1334" y="1165" on="0"/>
        <pt x="1321" y="1165" on="1"/>
        <pt x="1280" y="1165" on="1"/>
        <pt x="1272" y="1178" on="1"/>
        <pt x="1272" y="1215" on="1"/>
        <pt x="1295" y="1240" on="0"/>
        <pt x="1339" y="1285" on="1"/>
        <pt x="1342" y="1318" on="0"/>
        <pt x="1319" y="1318" on="1"/>
        <pt x="1309" y="1318" on="0"/>
        <pt x="1276" y="1290" on="1"/>
        <pt x="1234" y="1255" on="0"/>
        <pt x="1221" y="1247" on="1"/>
        <pt x="1212" y="1248" on="0"/>
        <pt x="1212" y="1272" on="1"/>
        <pt x="1212" y="1325" on="0"/>
        <pt x="1267" y="1381" on="1"/>
        <pt x="1316" y="1431" on="0"/>
        <pt x="1341" y="1431" on="1"/>
        <pt x="1351" y="1431" on="0"/>
        <pt x="1397" y="1414" on="1"/>
        <pt x="1452" y="1393" on="0"/>
        <pt x="1471" y="1389" on="1"/>
        <pt x="1471" y="1385" on="0"/>
        <pt x="1478" y="1364" on="0"/>
      </contour>
      <contour>
        <pt x="1471" y="801" on="1"/>
        <pt x="1471" y="775" on="0"/>
        <pt x="1429" y="705" on="0"/>
        <pt x="1415" y="705" on="1"/>
        <pt x="1407" y="705" on="0"/>
        <pt x="1367" y="735" on="0"/>
        <pt x="1358" y="735" on="1"/>
        <pt x="1350" y="735" on="0"/>
        <pt x="1310" y="684" on="0"/>
        <pt x="1301" y="684" on="1"/>
        <pt x="1288" y="684" on="0"/>
        <pt x="1232" y="744" on="0"/>
        <pt x="1232" y="760" on="1"/>
        <pt x="1232" y="786" on="0"/>
        <pt x="1279" y="858" on="0"/>
        <pt x="1295" y="858" on="1"/>
        <pt x="1303" y="858" on="0"/>
        <pt x="1336" y="827" on="0"/>
        <pt x="1345" y="827" on="1"/>
        <pt x="1352" y="827" on="0"/>
        <pt x="1391" y="889" on="0"/>
        <pt x="1401" y="889" on="1"/>
        <pt x="1416" y="889" on="0"/>
        <pt x="1471" y="822" on="0"/>
      </contour>
      <contour>
        <pt x="1125" y="1375" on="1"/>
        <pt x="1125" y="1329" on="0"/>
        <pt x="1079" y="1284" on="1"/>
        <pt x="1048" y="1258" on="0"/>
        <pt x="1017" y="1234" on="1"/>
        <pt x="1008" y="1225" on="0"/>
        <pt x="851" y="1073" on="1"/>
        <pt x="828" y="1073" on="1"/>
        <pt x="819" y="1086" on="0"/>
        <pt x="819" y="1108" on="1"/>
        <pt x="819" y="1158" on="0"/>
        <pt x="836" y="1175" on="1"/>
        <pt x="984" y="1319" on="0"/>
        <pt x="1095" y="1411" on="1"/>
        <pt x="1117" y="1411" on="1"/>
        <pt x="1125" y="1397" on="0"/>
      </contour>
      <contour>
        <pt x="2309" y="223" on="1"/>
        <pt x="2309" y="199" on="0"/>
        <pt x="2295" y="164" on="1"/>
        <pt x="2280" y="125" on="0"/>
        <pt x="2266" y="123" on="1"/>
        <pt x="2216" y="120" on="0"/>
        <pt x="2165" y="117" on="1"/>
        <pt x="2105" y="114" on="0"/>
        <pt x="2067" y="97" on="1"/>
        <pt x="2066" y="96" on="0"/>
        <pt x="1948" y="24" on="1"/>
        <pt x="1888" y="-12" on="0"/>
        <pt x="1814" y="-12" on="1"/>
        <pt x="1763" y="-12" on="0"/>
        <pt x="1738" y="7" on="1"/>
        <pt x="1722" y="18" on="0"/>
        <pt x="1674" y="79" on="1"/>
        <pt x="1641" y="48" on="0"/>
        <pt x="1610" y="15" on="1"/>
        <pt x="1567" y="-22" on="0"/>
        <pt x="1534" y="-22" on="1"/>
        <pt x="1516" y="-22" on="1"/>
        <pt x="1507" y="-22" on="0"/>
        <pt x="1353" y="29" on="0"/>
        <pt x="1345" y="29" on="1"/>
        <pt x="1336" y="29" on="0"/>
        <pt x="1315" y="16" on="1"/>
        <pt x="1288" y="2" on="0"/>
        <pt x="1282" y="1" on="1"/>
        <pt x="1244" y="-12" on="0"/>
        <pt x="1166" y="-12" on="1"/>
        <pt x="1158" y="-12" on="0"/>
        <pt x="1101" y="49" on="0"/>
        <pt x="1092" y="49" on="1"/>
        <pt x="1084" y="49" on="0"/>
        <pt x="1069" y="29" on="1"/>
        <pt x="1050" y="5" on="0"/>
        <pt x="1043" y="1" on="1"/>
        <pt x="992" y="-32" on="0"/>
        <pt x="933" y="-32" on="1"/>
        <pt x="865" y="-32" on="0"/>
        <pt x="821" y="12" on="1"/>
        <pt x="798" y="37" on="0"/>
        <pt x="769" y="96" on="1"/>
        <pt x="748" y="141" on="0"/>
        <pt x="733" y="141" on="1"/>
        <pt x="716" y="141" on="0"/>
        <pt x="677" y="83" on="1"/>
        <pt x="640" y="27" on="0"/>
        <pt x="640" y="13" on="1"/>
        <pt x="640" y="-39" on="0"/>
        <pt x="727" y="-44" on="1"/>
        <pt x="830" y="-49" on="0"/>
        <pt x="841" y="-60" on="1"/>
        <pt x="873" y="-93" on="0"/>
        <pt x="873" y="-145" on="1"/>
        <pt x="873" y="-294" on="0"/>
        <pt x="712" y="-396" on="1"/>
        <pt x="589" y="-473" on="0"/>
        <pt x="504" y="-473" on="1"/>
        <pt x="404" y="-473" on="0"/>
        <pt x="336" y="-398" on="1"/>
        <pt x="314" y="-373" on="0"/>
        <pt x="288" y="-303" on="1"/>
        <pt x="261" y="-228" on="0"/>
        <pt x="261" y="-181" on="1"/>
        <pt x="261" y="-50" on="0"/>
        <pt x="343" y="109" on="1"/>
        <pt x="367" y="109" on="1"/>
        <pt x="367" y="106" on="0"/>
        <pt x="374" y="94" on="0"/>
        <pt x="374" y="79" on="1"/>
        <pt x="374" y="70" on="0"/>
        <pt x="327" y="-86" on="0"/>
        <pt x="327" y="-104" on="1"/>
        <pt x="327" y="-205" on="0"/>
        <pt x="399" y="-274" on="1"/>
        <pt x="457" y="-330" on="0"/>
        <pt x="507" y="-330" on="1"/>
        <pt x="544" y="-330" on="1"/>
        <pt x="575" y="-330" on="0"/>
        <pt x="663" y="-290" on="1"/>
        <pt x="763" y="-245" on="0"/>
        <pt x="773" y="-208" on="1"/>
        <pt x="716" y="-192" on="0"/>
        <pt x="657" y="-176" on="1"/>
        <pt x="567" y="-144" on="0"/>
        <pt x="567" y="-78" on="1"/>
        <pt x="567" y="15" on="0"/>
        <pt x="651" y="153" on="1"/>
        <pt x="730" y="284" on="0"/>
        <pt x="770" y="284" on="1"/>
        <pt x="777" y="284" on="0"/>
        <pt x="903" y="111" on="0"/>
        <pt x="966" y="111" on="1"/>
        <pt x="1016" y="111" on="0"/>
        <pt x="1060" y="153" on="1"/>
        <pt x="1079" y="188" on="0"/>
        <pt x="1123" y="243" on="1"/>
        <pt x="1127" y="213" on="0"/>
        <pt x="1151" y="163" on="1"/>
        <pt x="1183" y="131" on="0"/>
        <pt x="1219" y="131" on="1"/>
        <pt x="1246" y="131" on="0"/>
        <pt x="1269" y="159" on="1"/>
        <pt x="1265" y="257" on="0"/>
        <pt x="1367" y="489" on="0"/>
        <pt x="1418" y="489" on="1"/>
        <pt x="1498" y="489" on="0"/>
        <pt x="1498" y="330" on="1"/>
        <pt x="1498" y="242" on="0"/>
        <pt x="1471" y="175" on="1"/>
        <pt x="1471" y="149" on="1"/>
        <pt x="1506" y="131" on="0"/>
        <pt x="1528" y="131" on="1"/>
        <pt x="1567" y="131" on="0"/>
        <pt x="1609" y="154" on="1"/>
        <pt x="1664" y="184" on="0"/>
        <pt x="1664" y="233" on="1"/>
        <pt x="1617" y="868" on="1"/>
        <pt x="1617" y="924" on="0"/>
        <pt x="1640" y="990" on="1"/>
        <pt x="1663" y="990" on="1"/>
        <pt x="1683" y="880" on="0"/>
        <pt x="1699" y="607" on="1"/>
        <pt x="1714" y="348" on="0"/>
        <pt x="1715" y="339" on="1"/>
        <pt x="1728" y="193" on="0"/>
        <pt x="1760" y="161" on="1"/>
        <pt x="1793" y="224" on="0"/>
        <pt x="1827" y="288" on="1"/>
        <pt x="1880" y="387" on="0"/>
        <pt x="1910" y="387" on="1"/>
        <pt x="1910" y="387" on="0"/>
        <pt x="2087" y="287" on="1"/>
        <pt x="2154" y="248" on="0"/>
        <pt x="2300" y="253" on="1"/>
        <pt x="2301" y="252" on="0"/>
        <pt x="2301" y="251" on="1"/>
        <pt x="2309" y="241" on="0"/>
      </contour>
      <contour>
        <pt x="1112" y="473" on="1"/>
        <pt x="1112" y="441" on="0"/>
        <pt x="1073" y="387" on="0"/>
        <pt x="1053" y="387" on="1"/>
        <pt x="1040" y="387" on="0"/>
        <pt x="986" y="446" on="0"/>
        <pt x="986" y="464" on="1"/>
        <pt x="986" y="475" on="0"/>
        <pt x="1013" y="534" on="0"/>
        <pt x="1013" y="546" on="1"/>
        <pt x="1013" y="571" on="0"/>
        <pt x="975" y="604" on="1"/>
        <pt x="973" y="618" on="0"/>
        <pt x="973" y="637" on="1"/>
        <pt x="973" y="659" on="0"/>
        <pt x="984" y="691" on="1"/>
        <pt x="998" y="735" on="0"/>
        <pt x="1019" y="735" on="1"/>
        <pt x="1039" y="735" on="0"/>
        <pt x="1063" y="701" on="1"/>
        <pt x="1086" y="671" on="0"/>
        <pt x="1086" y="653" on="1"/>
        <pt x="1086" y="614" on="0"/>
        <pt x="1059" y="576" on="1"/>
        <pt x="1063" y="567" on="0"/>
        <pt x="1091" y="523" on="1"/>
        <pt x="1112" y="488" on="0"/>
      </contour>
      <contour>
        <pt x="706" y="566" on="1"/>
        <pt x="706" y="538" on="0"/>
        <pt x="669" y="469" on="0"/>
        <pt x="660" y="469" on="1"/>
        <pt x="648" y="469" on="0"/>
        <pt x="622" y="494" on="1"/>
        <pt x="593" y="522" on="0"/>
        <pt x="593" y="546" on="1"/>
        <pt x="593" y="572" on="0"/>
        <pt x="610" y="605" on="1"/>
        <pt x="629" y="643" on="0"/>
        <pt x="647" y="643" on="1"/>
        <pt x="673" y="643" on="0"/>
        <pt x="691" y="615" on="1"/>
        <pt x="706" y="591" on="0"/>
      </contour>
      <contour>
        <pt x="913" y="-447" on="1"/>
        <pt x="913" y="-489" on="0"/>
        <pt x="785" y="-593" on="1"/>
        <pt x="666" y="-688" on="0"/>
        <pt x="649" y="-688" on="1"/>
        <pt x="621" y="-688" on="1"/>
        <pt x="614" y="-686" on="0"/>
        <pt x="614" y="-662" on="1"/>
        <pt x="614" y="-599" on="0"/>
        <pt x="630" y="-586" on="1"/>
        <pt x="713" y="-530" on="0"/>
        <pt x="875" y="-412" on="1"/>
        <pt x="904" y="-412" on="1"/>
        <pt x="913" y="-425" on="0"/>
      </contour>
      <contour>
        <pt x="1969" y="182" on="1"/>
        <pt x="1916" y="233" on="0"/>
        <pt x="1893" y="233" on="1"/>
        <pt x="1878" y="233" on="0"/>
        <pt x="1852" y="206" on="1"/>
        <pt x="1824" y="178" on="0"/>
        <pt x="1824" y="156" on="1"/>
        <pt x="1824" y="133" on="0"/>
        <pt x="1832" y="131" on="1"/>
        <pt x="1873" y="131" on="1"/>
        <pt x="1916" y="130" on="0"/>
      </contour>
      <contour>
        <pt x="1438" y="269" on="1"/>
        <pt x="1438" y="290" on="0"/>
        <pt x="1416" y="346" on="0"/>
        <pt x="1404" y="346" on="1"/>
        <pt x="1391" y="346" on="0"/>
        <pt x="1366" y="314" on="1"/>
        <pt x="1340" y="279" on="0"/>
        <pt x="1339" y="247" on="1"/>
        <pt x="1367" y="202" on="0"/>
        <pt x="1381" y="202" on="1"/>
        <pt x="1395" y="202" on="0"/>
        <pt x="1438" y="250" on="0"/>
      </contour>
    </TTGlyph>
    <TTGlyph name="endash" xMin="261" yMin="-688" xMax="1285" yMax="1502">
      <contour>
        <pt x="1202" y="1406" on="1"/>
        <pt x="1202" y="1363" on="0"/>
        <pt x="1165" y="1291" on="1"/>
        <pt x="1144" y="1257" on="0"/>
        <pt x="1125" y="1223" on="1"/>
        <pt x="1102" y="1179" on="0"/>
        <pt x="1060" y="1114" on="1"/>
        <pt x="1058" y="1119" on="0"/>
        <pt x="1052" y="1129" on="0"/>
        <pt x="1052" y="1144" on="1"/>
        <pt x="1052" y="1197" on="0"/>
        <pt x="1117" y="1315" on="1"/>
        <pt x="1168" y="1406" on="0"/>
        <pt x="1197" y="1441" on="1"/>
        <pt x="1202" y="1427" on="0"/>
      </contour>
      <contour>
        <pt x="1042" y="1461" on="1"/>
        <pt x="1042" y="1432" on="0"/>
        <pt x="1024" y="1392" on="1"/>
        <pt x="1009" y="1364" on="0"/>
        <pt x="995" y="1336" on="1"/>
        <pt x="955" y="1256" on="0"/>
        <pt x="942" y="1231" on="1"/>
        <pt x="915" y="1182" on="0"/>
        <pt x="890" y="1156" on="1"/>
        <pt x="890" y="1159" on="0"/>
        <pt x="886" y="1181" on="0"/>
        <pt x="886" y="1196" on="1"/>
        <pt x="886" y="1244" on="0"/>
        <pt x="949" y="1362" on="1"/>
        <pt x="990" y="1432" on="0"/>
        <pt x="1031" y="1502" on="1"/>
        <pt x="1034" y="1495" on="0"/>
        <pt x="1038" y="1488" on="1"/>
        <pt x="1042" y="1478" on="0"/>
      </contour>
      <contour>
        <pt x="1139" y="668" on="1"/>
        <pt x="1139" y="640" on="0"/>
        <pt x="1127" y="609" on="1"/>
        <pt x="1117" y="582" on="0"/>
        <pt x="1111" y="582" on="1"/>
        <pt x="1101" y="582" on="0"/>
        <pt x="1069" y="656" on="1"/>
        <pt x="1069" y="684" on="0"/>
        <pt x="1083" y="721" on="1"/>
        <pt x="1095" y="755" on="0"/>
        <pt x="1102" y="755" on="1"/>
        <pt x="1111" y="755" on="0"/>
        <pt x="1139" y="691" on="0"/>
      </contour>
      <contour>
        <pt x="869" y="1349" on="1"/>
        <pt x="869" y="1309" on="0"/>
        <pt x="832" y="1234" on="1"/>
        <pt x="798" y="1165" on="0"/>
        <pt x="791" y="1165" on="1"/>
        <pt x="771" y="1165" on="1"/>
        <pt x="767" y="1178" on="1"/>
        <pt x="767" y="1215" on="1"/>
        <pt x="778" y="1240" on="0"/>
        <pt x="800" y="1285" on="1"/>
        <pt x="802" y="1318" on="0"/>
        <pt x="790" y="1318" on="1"/>
        <pt x="785" y="1318" on="0"/>
        <pt x="768" y="1290" on="1"/>
        <pt x="747" y="1255" on="0"/>
        <pt x="741" y="1247" on="1"/>
        <pt x="737" y="1248" on="0"/>
        <pt x="737" y="1272" on="1"/>
        <pt x="737" y="1325" on="0"/>
        <pt x="764" y="1381" on="1"/>
        <pt x="788" y="1431" on="0"/>
        <pt x="801" y="1431" on="1"/>
        <pt x="806" y="1431" on="0"/>
        <pt x="829" y="1414" on="1"/>
        <pt x="856" y="1393" on="0"/>
        <pt x="866" y="1389" on="1"/>
        <pt x="866" y="1385" on="0"/>
        <pt x="869" y="1364" on="0"/>
      </contour>
      <contour>
        <pt x="866" y="801" on="1"/>
        <pt x="866" y="775" on="0"/>
        <pt x="845" y="705" on="0"/>
        <pt x="838" y="705" on="1"/>
        <pt x="834" y="705" on="0"/>
        <pt x="814" y="735" on="0"/>
        <pt x="810" y="735" on="1"/>
        <pt x="805" y="735" on="0"/>
        <pt x="785" y="684" on="0"/>
        <pt x="781" y="684" on="1"/>
        <pt x="775" y="684" on="0"/>
        <pt x="746" y="744" on="0"/>
        <pt x="746" y="760" on="1"/>
        <pt x="746" y="786" on="0"/>
        <pt x="770" y="858" on="0"/>
        <pt x="778" y="858" on="1"/>
        <pt x="782" y="858" on="0"/>
        <pt x="799" y="827" on="0"/>
        <pt x="803" y="827" on="1"/>
        <pt x="806" y="827" on="0"/>
        <pt x="826" y="889" on="0"/>
        <pt x="831" y="889" on="1"/>
        <pt x="838" y="889" on="0"/>
        <pt x="866" y="822" on="0"/>
      </contour>
      <contour>
        <pt x="693" y="1375" on="1"/>
        <pt x="693" y="1329" on="0"/>
        <pt x="670" y="1284" on="1"/>
        <pt x="654" y="1258" on="0"/>
        <pt x="639" y="1234" on="1"/>
        <pt x="635" y="1225" on="0"/>
        <pt x="556" y="1073" on="1"/>
        <pt x="544" y="1073" on="1"/>
        <pt x="540" y="1086" on="0"/>
        <pt x="540" y="1108" on="1"/>
        <pt x="540" y="1158" on="0"/>
        <pt x="549" y="1175" on="1"/>
        <pt x="622" y="1319" on="0"/>
        <pt x="678" y="1411" on="1"/>
        <pt x="689" y="1411" on="1"/>
        <pt x="693" y="1397" on="0"/>
      </contour>
      <contour>
        <pt x="1285" y="223" on="1"/>
        <pt x="1285" y="199" on="0"/>
        <pt x="1278" y="164" on="1"/>
        <pt x="1271" y="125" on="0"/>
        <pt x="1264" y="123" on="1"/>
        <pt x="1239" y="120" on="0"/>
        <pt x="1213" y="117" on="1"/>
        <pt x="1183" y="114" on="0"/>
        <pt x="1164" y="97" on="1"/>
        <pt x="1163" y="96" on="0"/>
        <pt x="1104" y="24" on="1"/>
        <pt x="1075" y="-12" on="0"/>
        <pt x="1037" y="-12" on="1"/>
        <pt x="1012" y="-12" on="0"/>
        <pt x="1000" y="7" on="1"/>
        <pt x="992" y="18" on="0"/>
        <pt x="967" y="79" on="1"/>
        <pt x="951" y="48" on="0"/>
        <pt x="935" y="15" on="1"/>
        <pt x="914" y="-22" on="0"/>
        <pt x="897" y="-22" on="1"/>
        <pt x="888" y="-22" on="1"/>
        <pt x="884" y="-22" on="0"/>
        <pt x="807" y="29" on="0"/>
        <pt x="803" y="29" on="1"/>
        <pt x="799" y="29" on="0"/>
        <pt x="788" y="16" on="1"/>
        <pt x="775" y="2" on="0"/>
        <pt x="772" y="1" on="1"/>
        <pt x="753" y="-12" on="0"/>
        <pt x="713" y="-12" on="1"/>
        <pt x="710" y="-12" on="0"/>
        <pt x="681" y="49" on="0"/>
        <pt x="677" y="49" on="1"/>
        <pt x="672" y="49" on="0"/>
        <pt x="665" y="29" on="1"/>
        <pt x="655" y="5" on="0"/>
        <pt x="652" y="1" on="1"/>
        <pt x="627" y="-32" on="0"/>
        <pt x="597" y="-32" on="1"/>
        <pt x="563" y="-32" on="0"/>
        <pt x="541" y="12" on="1"/>
        <pt x="530" y="37" on="0"/>
        <pt x="515" y="96" on="1"/>
        <pt x="504" y="141" on="0"/>
        <pt x="497" y="141" on="1"/>
        <pt x="488" y="141" on="0"/>
        <pt x="469" y="83" on="1"/>
        <pt x="451" y="27" on="0"/>
        <pt x="451" y="13" on="1"/>
        <pt x="451" y="-39" on="0"/>
        <pt x="494" y="-44" on="1"/>
        <pt x="546" y="-49" on="0"/>
        <pt x="551" y="-60" on="1"/>
        <pt x="567" y="-93" on="0"/>
        <pt x="567" y="-145" on="1"/>
        <pt x="567" y="-294" on="0"/>
        <pt x="486" y="-396" on="1"/>
        <pt x="425" y="-473" on="0"/>
        <pt x="382" y="-473" on="1"/>
        <pt x="332" y="-473" on="0"/>
        <pt x="299" y="-398" on="1"/>
        <pt x="287" y="-373" on="0"/>
        <pt x="275" y="-303" on="1"/>
        <pt x="261" y="-228" on="0"/>
        <pt x="261" y="-181" on="1"/>
        <pt x="261" y="-50" on="0"/>
        <pt x="302" y="109" on="1"/>
        <pt x="314" y="109" on="1"/>
        <pt x="314" y="106" on="0"/>
        <pt x="317" y="94" on="0"/>
        <pt x="317" y="79" on="1"/>
        <pt x="317" y="70" on="0"/>
        <pt x="294" y="-86" on="0"/>
        <pt x="294" y="-104" on="1"/>
        <pt x="294" y="-205" on="0"/>
        <pt x="330" y="-274" on="1"/>
        <pt x="359" y="-330" on="0"/>
        <pt x="384" y="-330" on="1"/>
        <pt x="403" y="-330" on="1"/>
        <pt x="418" y="-330" on="0"/>
        <pt x="462" y="-290" on="1"/>
        <pt x="512" y="-245" on="0"/>
        <pt x="517" y="-208" on="1"/>
        <pt x="488" y="-192" on="0"/>
        <pt x="459" y="-176" on="1"/>
        <pt x="414" y="-144" on="0"/>
        <pt x="414" y="-78" on="1"/>
        <pt x="414" y="15" on="0"/>
        <pt x="456" y="153" on="1"/>
        <pt x="495" y="284" on="0"/>
        <pt x="516" y="284" on="1"/>
        <pt x="519" y="284" on="0"/>
        <pt x="582" y="111" on="0"/>
        <pt x="613" y="111" on="1"/>
        <pt x="638" y="111" on="0"/>
        <pt x="661" y="153" on="1"/>
        <pt x="670" y="188" on="0"/>
        <pt x="692" y="243" on="1"/>
        <pt x="694" y="213" on="0"/>
        <pt x="706" y="163" on="1"/>
        <pt x="722" y="131" on="0"/>
        <pt x="740" y="131" on="1"/>
        <pt x="754" y="131" on="0"/>
        <pt x="765" y="159" on="1"/>
        <pt x="763" y="257" on="0"/>
        <pt x="814" y="489" on="0"/>
        <pt x="840" y="489" on="1"/>
        <pt x="879" y="489" on="0"/>
        <pt x="879" y="330" on="1"/>
        <pt x="879" y="242" on="0"/>
        <pt x="866" y="175" on="1"/>
        <pt x="866" y="149" on="1"/>
        <pt x="883" y="131" on="0"/>
        <pt x="894" y="131" on="1"/>
        <pt x="914" y="131" on="0"/>
        <pt x="935" y="154" on="1"/>
        <pt x="963" y="184" on="0"/>
        <pt x="963" y="233" on="1"/>
        <pt x="939" y="868" on="1"/>
        <pt x="939" y="924" on="0"/>
        <pt x="950" y="990" on="1"/>
        <pt x="962" y="990" on="1"/>
        <pt x="972" y="880" on="0"/>
        <pt x="980" y="607" on="1"/>
        <pt x="988" y="348" on="0"/>
        <pt x="988" y="339" on="1"/>
        <pt x="995" y="193" on="0"/>
        <pt x="1011" y="161" on="1"/>
        <pt x="1027" y="224" on="0"/>
        <pt x="1044" y="288" on="1"/>
        <pt x="1070" y="387" on="0"/>
        <pt x="1086" y="387" on="1"/>
        <pt x="1086" y="387" on="0"/>
        <pt x="1174" y="287" on="1"/>
        <pt x="1208" y="248" on="0"/>
        <pt x="1280" y="253" on="1"/>
        <pt x="1281" y="252" on="0"/>
        <pt x="1281" y="251" on="1"/>
        <pt x="1285" y="241" on="0"/>
      </contour>
      <contour>
        <pt x="687" y="473" on="1"/>
        <pt x="687" y="441" on="0"/>
        <pt x="667" y="387" on="0"/>
        <pt x="657" y="387" on="1"/>
        <pt x="651" y="387" on="0"/>
        <pt x="624" y="446" on="0"/>
        <pt x="624" y="464" on="1"/>
        <pt x="624" y="475" on="0"/>
        <pt x="637" y="534" on="0"/>
        <pt x="637" y="546" on="1"/>
        <pt x="637" y="571" on="0"/>
        <pt x="618" y="604" on="1"/>
        <pt x="617" y="618" on="0"/>
        <pt x="617" y="637" on="1"/>
        <pt x="617" y="659" on="0"/>
        <pt x="622" y="691" on="1"/>
        <pt x="629" y="735" on="0"/>
        <pt x="640" y="735" on="1"/>
        <pt x="650" y="735" on="0"/>
        <pt x="662" y="701" on="1"/>
        <pt x="673" y="671" on="0"/>
        <pt x="673" y="653" on="1"/>
        <pt x="673" y="614" on="0"/>
        <pt x="660" y="576" on="1"/>
        <pt x="662" y="567" on="0"/>
        <pt x="676" y="523" on="1"/>
        <pt x="687" y="488" on="0"/>
      </contour>
      <contour>
        <pt x="484" y="566" on="1"/>
        <pt x="484" y="538" on="0"/>
        <pt x="465" y="469" on="0"/>
        <pt x="460" y="469" on="1"/>
        <pt x="455" y="469" on="0"/>
        <pt x="442" y="494" on="1"/>
        <pt x="427" y="522" on="0"/>
        <pt x="427" y="546" on="1"/>
        <pt x="427" y="572" on="0"/>
        <pt x="436" y="605" on="1"/>
        <pt x="445" y="643" on="0"/>
        <pt x="454" y="643" on="1"/>
        <pt x="467" y="643" on="0"/>
        <pt x="476" y="615" on="1"/>
        <pt x="484" y="591" on="0"/>
      </contour>
      <contour>
        <pt x="587" y="-447" on="1"/>
        <pt x="587" y="-489" on="0"/>
        <pt x="523" y="-593" on="1"/>
        <pt x="463" y="-688" on="0"/>
        <pt x="455" y="-688" on="1"/>
        <pt x="441" y="-688" on="1"/>
        <pt x="437" y="-686" on="0"/>
        <pt x="437" y="-662" on="1"/>
        <pt x="437" y="-599" on="0"/>
        <pt x="446" y="-586" on="1"/>
        <pt x="487" y="-530" on="0"/>
        <pt x="568" y="-412" on="1"/>
        <pt x="582" y="-412" on="1"/>
        <pt x="587" y="-425" on="0"/>
      </contour>
      <contour>
        <pt x="1115" y="182" on="1"/>
        <pt x="1089" y="233" on="0"/>
        <pt x="1077" y="233" on="1"/>
        <pt x="1070" y="233" on="0"/>
        <pt x="1056" y="206" on="1"/>
        <pt x="1042" y="178" on="0"/>
        <pt x="1042" y="156" on="1"/>
        <pt x="1042" y="133" on="0"/>
        <pt x="1046" y="131" on="1"/>
        <pt x="1067" y="131" on="1"/>
        <pt x="1089" y="130" on="0"/>
      </contour>
      <contour>
        <pt x="850" y="269" on="1"/>
        <pt x="850" y="290" on="0"/>
        <pt x="839" y="346" on="0"/>
        <pt x="833" y="346" on="1"/>
        <pt x="826" y="346" on="0"/>
        <pt x="814" y="314" on="1"/>
        <pt x="800" y="279" on="0"/>
        <pt x="800" y="247" on="1"/>
        <pt x="814" y="202" on="0"/>
        <pt x="821" y="202" on="1"/>
        <pt x="828" y="202" on="0"/>
        <pt x="850" y="250" on="0"/>
      </contour>
    </TTGlyph>
    <TTGlyph name="equal" xMin="142" yMin="226" xMax="842" yMax="1588">
      <contour>
        <pt x="142" y="226" on="1"/>
        <pt x="142" y="1588" on="1"/>
        <pt x="842" y="1588" on="1"/>
        <pt x="842" y="226" on="1"/>
      </contour>
      <contour>
        <pt x="284" y="368" on="1"/>
        <pt x="700" y="368" on="1"/>
        <pt x="700" y="1447" on="1"/>
        <pt x="284" y="1447" on="1"/>
      </contour>
    </TTGlyph>
    <TTGlyph name="exclam" xMin="142" yMin="226" xMax="842" yMax="1588">
      <contour>
        <pt x="142" y="226" on="1"/>
        <pt x="142" y="1588" on="1"/>
        <pt x="842" y="1588" on="1"/>
        <pt x="842" y="226" on="1"/>
      </contour>
      <contour>
        <pt x="284" y="368" on="1"/>
        <pt x="700" y="368" on="1"/>
        <pt x="700" y="1447" on="1"/>
        <pt x="284" y="1447" on="1"/>
      </contour>
    </TTGlyph>
    <TTGlyph name="figuredash" xMin="261" yMin="-688" xMax="3415" yMax="1502">
      <contour>
        <pt x="3159" y="1406" on="1"/>
        <pt x="3159" y="1363" on="0"/>
        <pt x="3044" y="1291" on="1"/>
        <pt x="2982" y="1257" on="0"/>
        <pt x="2921" y="1223" on="1"/>
        <pt x="2852" y="1179" on="0"/>
        <pt x="2723" y="1114" on="1"/>
        <pt x="2715" y="1119" on="0"/>
        <pt x="2698" y="1129" on="0"/>
        <pt x="2698" y="1144" on="1"/>
        <pt x="2698" y="1197" on="0"/>
        <pt x="2898" y="1315" on="1"/>
        <pt x="3054" y="1406" on="0"/>
        <pt x="3145" y="1441" on="1"/>
        <pt x="3159" y="1427" on="0"/>
      </contour>
      <contour>
        <pt x="2668" y="1461" on="1"/>
        <pt x="2668" y="1432" on="0"/>
        <pt x="2610" y="1392" on="1"/>
        <pt x="2566" y="1364" on="0"/>
        <pt x="2522" y="1336" on="1"/>
        <pt x="2400" y="1256" on="0"/>
        <pt x="2358" y="1231" on="1"/>
        <pt x="2275" y="1182" on="0"/>
        <pt x="2198" y="1156" on="1"/>
        <pt x="2198" y="1159" on="0"/>
        <pt x="2186" y="1181" on="0"/>
        <pt x="2186" y="1196" on="1"/>
        <pt x="2186" y="1244" on="0"/>
        <pt x="2381" y="1362" on="1"/>
        <pt x="2506" y="1432" on="0"/>
        <pt x="2633" y="1502" on="1"/>
        <pt x="2643" y="1495" on="0"/>
        <pt x="2654" y="1488" on="1"/>
        <pt x="2668" y="1478" on="0"/>
      </contour>
      <contour>
        <pt x="2964" y="668" on="1"/>
        <pt x="2964" y="640" on="0"/>
        <pt x="2929" y="609" on="1"/>
        <pt x="2897" y="582" on="0"/>
        <pt x="2878" y="582" on="1"/>
        <pt x="2849" y="582" on="0"/>
        <pt x="2750" y="656" on="1"/>
        <pt x="2750" y="684" on="0"/>
        <pt x="2792" y="721" on="1"/>
        <pt x="2831" y="755" on="0"/>
        <pt x="2851" y="755" on="1"/>
        <pt x="2878" y="755" on="0"/>
        <pt x="2964" y="691" on="0"/>
      </contour>
      <contour>
        <pt x="2135" y="1349" on="1"/>
        <pt x="2135" y="1309" on="0"/>
        <pt x="2020" y="1234" on="1"/>
        <pt x="1914" y="1165" on="0"/>
        <pt x="1893" y="1165" on="1"/>
        <pt x="1831" y="1165" on="1"/>
        <pt x="1818" y="1178" on="1"/>
        <pt x="1818" y="1215" on="1"/>
        <pt x="1854" y="1240" on="0"/>
        <pt x="1921" y="1285" on="1"/>
        <pt x="1926" y="1318" on="0"/>
        <pt x="1890" y="1318" on="1"/>
        <pt x="1875" y="1318" on="0"/>
        <pt x="1824" y="1290" on="1"/>
        <pt x="1759" y="1255" on="0"/>
        <pt x="1739" y="1247" on="1"/>
        <pt x="1726" y="1248" on="0"/>
        <pt x="1726" y="1272" on="1"/>
        <pt x="1726" y="1325" on="0"/>
        <pt x="1810" y="1381" on="1"/>
        <pt x="1885" y="1431" on="0"/>
        <pt x="1925" y="1431" on="1"/>
        <pt x="1939" y="1431" on="0"/>
        <pt x="2011" y="1414" on="1"/>
        <pt x="2095" y="1393" on="0"/>
        <pt x="2124" y="1389" on="1"/>
        <pt x="2124" y="1385" on="0"/>
        <pt x="2135" y="1364" on="0"/>
      </contour>
      <contour>
        <pt x="2125" y="801" on="1"/>
        <pt x="2125" y="775" on="0"/>
        <pt x="2059" y="705" on="0"/>
        <pt x="2038" y="705" on="1"/>
        <pt x="2026" y="705" on="0"/>
        <pt x="1964" y="735" on="0"/>
        <pt x="1951" y="735" on="1"/>
        <pt x="1938" y="735" on="0"/>
        <pt x="1876" y="684" on="0"/>
        <pt x="1863" y="684" on="1"/>
        <pt x="1843" y="684" on="0"/>
        <pt x="1756" y="744" on="0"/>
        <pt x="1756" y="760" on="1"/>
        <pt x="1756" y="786" on="0"/>
        <pt x="1828" y="858" on="0"/>
        <pt x="1854" y="858" on="1"/>
        <pt x="1865" y="858" on="0"/>
        <pt x="1917" y="827" on="0"/>
        <pt x="1931" y="827" on="1"/>
        <pt x="1941" y="827" on="0"/>
        <pt x="2001" y="889" on="0"/>
        <pt x="2017" y="889" on="1"/>
        <pt x="2039" y="889" on="0"/>
        <pt x="2125" y="822" on="0"/>
      </contour>
      <contour>
        <pt x="1592" y="1375" on="1"/>
        <pt x="1592" y="1329" on="0"/>
        <pt x="1521" y="1284" on="1"/>
        <pt x="1473" y="1258" on="0"/>
        <pt x="1426" y="1234" on="1"/>
        <pt x="1412" y="1225" on="0"/>
        <pt x="1169" y="1073" on="1"/>
        <pt x="1134" y="1073" on="1"/>
        <pt x="1121" y="1086" on="0"/>
        <pt x="1121" y="1108" on="1"/>
        <pt x="1121" y="1158" on="0"/>
        <pt x="1147" y="1175" on="1"/>
        <pt x="1374" y="1319" on="0"/>
        <pt x="1545" y="1411" on="1"/>
        <pt x="1579" y="1411" on="1"/>
        <pt x="1592" y="1397" on="0"/>
      </contour>
      <contour>
        <pt x="3415" y="223" on="1"/>
        <pt x="3415" y="199" on="0"/>
        <pt x="3394" y="164" on="1"/>
        <pt x="3371" y="125" on="0"/>
        <pt x="3349" y="123" on="1"/>
        <pt x="3272" y="120" on="0"/>
        <pt x="3194" y="117" on="1"/>
        <pt x="3101" y="114" on="0"/>
        <pt x="3042" y="97" on="1"/>
        <pt x="3040" y="96" on="0"/>
        <pt x="2859" y="24" on="1"/>
        <pt x="2767" y="-12" on="0"/>
        <pt x="2652" y="-12" on="1"/>
        <pt x="2574" y="-12" on="0"/>
        <pt x="2536" y="7" on="1"/>
        <pt x="2511" y="18" on="0"/>
        <pt x="2437" y="79" on="1"/>
        <pt x="2387" y="48" on="0"/>
        <pt x="2338" y="15" on="1"/>
        <pt x="2272" y="-22" on="0"/>
        <pt x="2221" y="-22" on="1"/>
        <pt x="2193" y="-22" on="1"/>
        <pt x="2180" y="-22" on="0"/>
        <pt x="1943" y="29" on="0"/>
        <pt x="1931" y="29" on="1"/>
        <pt x="1917" y="29" on="0"/>
        <pt x="1884" y="16" on="1"/>
        <pt x="1843" y="2" on="0"/>
        <pt x="1834" y="1" on="1"/>
        <pt x="1775" y="-12" on="0"/>
        <pt x="1654" y="-12" on="1"/>
        <pt x="1643" y="-12" on="0"/>
        <pt x="1555" y="49" on="0"/>
        <pt x="1541" y="49" on="1"/>
        <pt x="1528" y="49" on="0"/>
        <pt x="1505" y="29" on="1"/>
        <pt x="1476" y="5" on="0"/>
        <pt x="1466" y="1" on="1"/>
        <pt x="1387" y="-32" on="0"/>
        <pt x="1296" y="-32" on="1"/>
        <pt x="1191" y="-32" on="0"/>
        <pt x="1124" y="12" on="1"/>
        <pt x="1088" y="37" on="0"/>
        <pt x="1044" y="96" on="1"/>
        <pt x="1011" y="141" on="0"/>
        <pt x="988" y="141" on="1"/>
        <pt x="961" y="141" on="0"/>
        <pt x="902" y="83" on="1"/>
        <pt x="845" y="27" on="0"/>
        <pt x="845" y="13" on="1"/>
        <pt x="845" y="-39" on="0"/>
        <pt x="978" y="-44" on="1"/>
        <pt x="1138" y="-49" on="0"/>
        <pt x="1154" y="-60" on="1"/>
        <pt x="1203" y="-93" on="0"/>
        <pt x="1203" y="-145" on="1"/>
        <pt x="1203" y="-294" on="0"/>
        <pt x="955" y="-396" on="1"/>
        <pt x="766" y="-473" on="0"/>
        <pt x="635" y="-473" on="1"/>
        <pt x="481" y="-473" on="0"/>
        <pt x="377" y="-398" on="1"/>
        <pt x="342" y="-373" on="0"/>
        <pt x="303" y="-303" on="1"/>
        <pt x="261" y="-228" on="0"/>
        <pt x="261" y="-181" on="1"/>
        <pt x="261" y="-50" on="0"/>
        <pt x="387" y="109" on="1"/>
        <pt x="424" y="109" on="1"/>
        <pt x="424" y="106" on="0"/>
        <pt x="435" y="94" on="0"/>
        <pt x="435" y="79" on="1"/>
        <pt x="435" y="70" on="0"/>
        <pt x="363" y="-86" on="0"/>
        <pt x="363" y="-104" on="1"/>
        <pt x="363" y="-205" on="0"/>
        <pt x="474" y="-274" on="1"/>
        <pt x="563" y="-330" on="0"/>
        <pt x="640" y="-330" on="1"/>
        <pt x="697" y="-330" on="1"/>
        <pt x="744" y="-330" on="0"/>
        <pt x="880" y="-290" on="1"/>
        <pt x="1034" y="-245" on="0"/>
        <pt x="1050" y="-208" on="1"/>
        <pt x="961" y="-192" on="0"/>
        <pt x="871" y="-176" on="1"/>
        <pt x="732" y="-144" on="0"/>
        <pt x="732" y="-78" on="1"/>
        <pt x="732" y="15" on="0"/>
        <pt x="861" y="153" on="1"/>
        <pt x="983" y="284" on="0"/>
        <pt x="1045" y="284" on="1"/>
        <pt x="1055" y="284" on="0"/>
        <pt x="1249" y="111" on="0"/>
        <pt x="1346" y="111" on="1"/>
        <pt x="1423" y="111" on="0"/>
        <pt x="1492" y="153" on="1"/>
        <pt x="1520" y="188" on="0"/>
        <pt x="1589" y="243" on="1"/>
        <pt x="1595" y="213" on="0"/>
        <pt x="1631" y="163" on="1"/>
        <pt x="1681" y="131" on="0"/>
        <pt x="1736" y="131" on="1"/>
        <pt x="1778" y="131" on="0"/>
        <pt x="1814" y="159" on="1"/>
        <pt x="1807" y="257" on="0"/>
        <pt x="1964" y="489" on="0"/>
        <pt x="2043" y="489" on="1"/>
        <pt x="2166" y="489" on="0"/>
        <pt x="2166" y="330" on="1"/>
        <pt x="2166" y="242" on="0"/>
        <pt x="2125" y="175" on="1"/>
        <pt x="2125" y="149" on="1"/>
        <pt x="2178" y="131" on="0"/>
        <pt x="2212" y="131" on="1"/>
        <pt x="2272" y="131" on="0"/>
        <pt x="2337" y="154" on="1"/>
        <pt x="2422" y="184" on="0"/>
        <pt x="2422" y="233" on="1"/>
        <pt x="2350" y="868" on="1"/>
        <pt x="2350" y="924" on="0"/>
        <pt x="2384" y="990" on="1"/>
        <pt x="2420" y="990" on="1"/>
        <pt x="2451" y="880" on="0"/>
        <pt x="2475" y="607" on="1"/>
        <pt x="2499" y="348" on="0"/>
        <pt x="2500" y="339" on="1"/>
        <pt x="2521" y="193" on="0"/>
        <pt x="2570" y="161" on="1"/>
        <pt x="2621" y="224" on="0"/>
        <pt x="2672" y="288" on="1"/>
        <pt x="2754" y="387" on="0"/>
        <pt x="2801" y="387" on="1"/>
        <pt x="2801" y="387" on="0"/>
        <pt x="3073" y="287" on="1"/>
        <pt x="3177" y="248" on="0"/>
        <pt x="3401" y="253" on="1"/>
        <pt x="3403" y="252" on="0"/>
        <pt x="3403" y="251" on="1"/>
        <pt x="3415" y="241" on="0"/>
      </contour>
      <contour>
        <pt x="1572" y="473" on="1"/>
        <pt x="1572" y="441" on="0"/>
        <pt x="1511" y="387" on="0"/>
        <pt x="1480" y="387" on="1"/>
        <pt x="1461" y="387" on="0"/>
        <pt x="1378" y="446" on="0"/>
        <pt x="1378" y="464" on="1"/>
        <pt x="1378" y="475" on="0"/>
        <pt x="1419" y="534" on="0"/>
        <pt x="1419" y="546" on="1"/>
        <pt x="1419" y="571" on="0"/>
        <pt x="1360" y="604" on="1"/>
        <pt x="1357" y="618" on="0"/>
        <pt x="1357" y="637" on="1"/>
        <pt x="1357" y="659" on="0"/>
        <pt x="1374" y="691" on="1"/>
        <pt x="1396" y="735" on="0"/>
        <pt x="1428" y="735" on="1"/>
        <pt x="1459" y="735" on="0"/>
        <pt x="1496" y="701" on="1"/>
        <pt x="1531" y="671" on="0"/>
        <pt x="1531" y="653" on="1"/>
        <pt x="1531" y="614" on="0"/>
        <pt x="1490" y="576" on="1"/>
        <pt x="1496" y="567" on="0"/>
        <pt x="1539" y="523" on="1"/>
        <pt x="1572" y="488" on="0"/>
      </contour>
      <contour>
        <pt x="947" y="566" on="1"/>
        <pt x="947" y="538" on="0"/>
        <pt x="889" y="469" on="0"/>
        <pt x="875" y="469" on="1"/>
        <pt x="857" y="469" on="0"/>
        <pt x="817" y="494" on="1"/>
        <pt x="773" y="522" on="0"/>
        <pt x="773" y="546" on="1"/>
        <pt x="773" y="572" on="0"/>
        <pt x="799" y="605" on="1"/>
        <pt x="827" y="643" on="0"/>
        <pt x="855" y="643" on="1"/>
        <pt x="895" y="643" on="0"/>
        <pt x="923" y="615" on="1"/>
        <pt x="947" y="591" on="0"/>
      </contour>
      <contour>
        <pt x="1265" y="-447" on="1"/>
        <pt x="1265" y="-489" on="0"/>
        <pt x="1068" y="-593" on="1"/>
        <pt x="884" y="-688" on="0"/>
        <pt x="859" y="-688" on="1"/>
        <pt x="816" y="-688" on="1"/>
        <pt x="804" y="-686" on="0"/>
        <pt x="804" y="-662" on="1"/>
        <pt x="804" y="-599" on="0"/>
        <pt x="830" y="-586" on="1"/>
        <pt x="957" y="-530" on="0"/>
        <pt x="1207" y="-412" on="1"/>
        <pt x="1251" y="-412" on="1"/>
        <pt x="1265" y="-425" on="0"/>
      </contour>
      <contour>
        <pt x="2892" y="182" on="1"/>
        <pt x="2810" y="233" on="0"/>
        <pt x="2775" y="233" on="1"/>
        <pt x="2752" y="233" on="0"/>
        <pt x="2711" y="206" on="1"/>
        <pt x="2668" y="178" on="0"/>
        <pt x="2668" y="156" on="1"/>
        <pt x="2668" y="133" on="0"/>
        <pt x="2680" y="131" on="1"/>
        <pt x="2743" y="131" on="1"/>
        <pt x="2810" y="130" on="0"/>
      </contour>
      <contour>
        <pt x="2074" y="269" on="1"/>
        <pt x="2074" y="290" on="0"/>
        <pt x="2040" y="346" on="0"/>
        <pt x="2022" y="346" on="1"/>
        <pt x="2001" y="346" on="0"/>
        <pt x="1963" y="314" on="1"/>
        <pt x="1922" y="279" on="0"/>
        <pt x="1921" y="247" on="1"/>
        <pt x="1965" y="202" on="0"/>
        <pt x="1986" y="202" on="1"/>
        <pt x="2008" y="202" on="0"/>
        <pt x="2074" y="250" on="0"/>
      </contour>
    </TTGlyph>
    <TTGlyph name="gaffinalarabic" xMin="142" yMin="226" xMax="842" yMax="1588">
      <contour>
        <pt x="142" y="226" on="1"/>
        <pt x="142" y="1588" on="1"/>
        <pt x="842" y="1588" on="1"/>
        <pt x="842" y="226" on="1"/>
      </contour>
      <contour>
        <pt x="284" y="368" on="1"/>
        <pt x="700" y="368" on="1"/>
        <pt x="700" y="1447" on="1"/>
        <pt x="284" y="1447" on="1"/>
      </contour>
    </TTGlyph>
    <TTGlyph name="gafinitialarabic" xMin="142" yMin="226" xMax="842" yMax="1588">
      <contour>
        <pt x="142" y="226" on="1"/>
        <pt x="142" y="1588" on="1"/>
        <pt x="842" y="1588" on="1"/>
        <pt x="842" y="226" on="1"/>
      </contour>
      <contour>
        <pt x="284" y="368" on="1"/>
        <pt x="700" y="368" on="1"/>
        <pt x="700" y="1447" on="1"/>
        <pt x="284" y="1447" on="1"/>
      </contour>
    </TTGlyph>
    <TTGlyph name="gafmedialarabic" xMin="142" yMin="226" xMax="842" yMax="1588">
      <contour>
        <pt x="142" y="226" on="1"/>
        <pt x="142" y="1588" on="1"/>
        <pt x="842" y="1588" on="1"/>
        <pt x="842" y="226" on="1"/>
      </contour>
      <contour>
        <pt x="284" y="368" on="1"/>
        <pt x="700" y="368" on="1"/>
        <pt x="700" y="1447" on="1"/>
        <pt x="284" y="1447" on="1"/>
      </contour>
    </TTGlyph>
    <TTGlyph name="glyph41" xMin="142" yMin="226" xMax="842" yMax="1588">
      <contour>
        <pt x="142" y="226" on="1"/>
        <pt x="142" y="1588" on="1"/>
        <pt x="842" y="1588" on="1"/>
        <pt x="842" y="226" on="1"/>
      </contour>
      <contour>
        <pt x="284" y="368" on="1"/>
        <pt x="700" y="368" on="1"/>
        <pt x="700" y="1447" on="1"/>
        <pt x="284" y="1447" on="1"/>
      </contour>
    </TTGlyph>
    <TTGlyph name="glyph42" xMin="142" yMin="226" xMax="842" yMax="1588">
      <contour>
        <pt x="142" y="226" on="1"/>
        <pt x="142" y="1588" on="1"/>
        <pt x="842" y="1588" on="1"/>
        <pt x="842" y="226" on="1"/>
      </contour>
      <contour>
        <pt x="284" y="368" on="1"/>
        <pt x="700" y="368" on="1"/>
        <pt x="700" y="1447" on="1"/>
        <pt x="284" y="1447" on="1"/>
      </contour>
    </TTGlyph>
    <TTGlyph name="glyph43" xMin="142" yMin="226" xMax="842" yMax="1588">
      <contour>
        <pt x="142" y="226" on="1"/>
        <pt x="142" y="1588" on="1"/>
        <pt x="842" y="1588" on="1"/>
        <pt x="842" y="226" on="1"/>
      </contour>
      <contour>
        <pt x="284" y="368" on="1"/>
        <pt x="700" y="368" on="1"/>
        <pt x="700" y="1447" on="1"/>
        <pt x="284" y="1447" on="1"/>
      </contour>
    </TTGlyph>
    <TTGlyph name="glyph44" xMin="142" yMin="226" xMax="842" yMax="1588">
      <contour>
        <pt x="142" y="226" on="1"/>
        <pt x="142" y="1588" on="1"/>
        <pt x="842" y="1588" on="1"/>
        <pt x="842" y="226" on="1"/>
      </contour>
      <contour>
        <pt x="284" y="368" on="1"/>
        <pt x="700" y="368" on="1"/>
        <pt x="700" y="1447" on="1"/>
        <pt x="284" y="1447" on="1"/>
      </contour>
    </TTGlyph>
    <TTGlyph name="glyph45" xMin="142" yMin="226" xMax="842" yMax="1588">
      <contour>
        <pt x="142" y="226" on="1"/>
        <pt x="142" y="1588" on="1"/>
        <pt x="842" y="1588" on="1"/>
        <pt x="842" y="226" on="1"/>
      </contour>
      <contour>
        <pt x="284" y="368" on="1"/>
        <pt x="700" y="368" on="1"/>
        <pt x="700" y="1447" on="1"/>
        <pt x="284" y="1447" on="1"/>
      </contour>
    </TTGlyph>
    <TTGlyph name="glyph46" xMin="142" yMin="226" xMax="842" yMax="1588">
      <contour>
        <pt x="142" y="226" on="1"/>
        <pt x="142" y="1588" on="1"/>
        <pt x="842" y="1588" on="1"/>
        <pt x="842" y="226" on="1"/>
      </contour>
      <contour>
        <pt x="284" y="368" on="1"/>
        <pt x="700" y="368" on="1"/>
        <pt x="700" y="1447" on="1"/>
        <pt x="284" y="1447" on="1"/>
      </contour>
    </TTGlyph>
    <TTGlyph name="glyph47" xMin="142" yMin="226" xMax="842" yMax="1588">
      <contour>
        <pt x="142" y="226" on="1"/>
        <pt x="142" y="1588" on="1"/>
        <pt x="842" y="1588" on="1"/>
        <pt x="842" y="226" on="1"/>
      </contour>
      <contour>
        <pt x="284" y="368" on="1"/>
        <pt x="700" y="368" on="1"/>
        <pt x="700" y="1447" on="1"/>
        <pt x="284" y="1447" on="1"/>
      </contour>
    </TTGlyph>
    <TTGlyph name="glyph48" xMin="142" yMin="226" xMax="842" yMax="1588">
      <contour>
        <pt x="142" y="226" on="1"/>
        <pt x="142" y="1588" on="1"/>
        <pt x="842" y="1588" on="1"/>
        <pt x="842" y="226" on="1"/>
      </contour>
      <contour>
        <pt x="284" y="368" on="1"/>
        <pt x="700" y="368" on="1"/>
        <pt x="700" y="1447" on="1"/>
        <pt x="284" y="1447" on="1"/>
      </contour>
    </TTGlyph>
    <TTGlyph name="glyph50" xMin="142" yMin="226" xMax="842" yMax="1588">
      <contour>
        <pt x="142" y="226" on="1"/>
        <pt x="142" y="1588" on="1"/>
        <pt x="842" y="1588" on="1"/>
        <pt x="842" y="226" on="1"/>
      </contour>
      <contour>
        <pt x="284" y="368" on="1"/>
        <pt x="700" y="368" on="1"/>
        <pt x="700" y="1447" on="1"/>
        <pt x="284" y="1447" on="1"/>
      </contour>
    </TTGlyph>
    <TTGlyph name="glyph51" xMin="142" yMin="226" xMax="842" yMax="1588">
      <contour>
        <pt x="142" y="226" on="1"/>
        <pt x="142" y="1588" on="1"/>
        <pt x="842" y="1588" on="1"/>
        <pt x="842" y="226" on="1"/>
      </contour>
      <contour>
        <pt x="284" y="368" on="1"/>
        <pt x="700" y="368" on="1"/>
        <pt x="700" y="1447" on="1"/>
        <pt x="284" y="1447" on="1"/>
      </contour>
    </TTGlyph>
    <TTGlyph name="greater" xMin="142" yMin="226" xMax="842" yMax="1588">
      <contour>
        <pt x="142" y="226" on="1"/>
        <pt x="142" y="1588" on="1"/>
        <pt x="842" y="1588" on="1"/>
        <pt x="842" y="226" on="1"/>
      </contour>
      <contour>
        <pt x="284" y="368" on="1"/>
        <pt x="700" y="368" on="1"/>
        <pt x="700" y="1447" on="1"/>
        <pt x="284" y="1447" on="1"/>
      </contour>
    </TTGlyph>
    <TTGlyph name="hahhamzabovefinal" xMin="142" yMin="226" xMax="842" yMax="1588">
      <contour>
        <pt x="142" y="226" on="1"/>
        <pt x="142" y="1588" on="1"/>
        <pt x="842" y="1588" on="1"/>
        <pt x="842" y="226" on="1"/>
      </contour>
      <contour>
        <pt x="284" y="368" on="1"/>
        <pt x="700" y="368" on="1"/>
        <pt x="700" y="1447" on="1"/>
        <pt x="284" y="1447" on="1"/>
      </contour>
    </TTGlyph>
    <TTGlyph name="hahhamzaboveinitial" xMin="142" yMin="226" xMax="842" yMax="1588">
      <contour>
        <pt x="142" y="226" on="1"/>
        <pt x="142" y="1588" on="1"/>
        <pt x="842" y="1588" on="1"/>
        <pt x="842" y="226" on="1"/>
      </contour>
      <contour>
        <pt x="284" y="368" on="1"/>
        <pt x="700" y="368" on="1"/>
        <pt x="700" y="1447" on="1"/>
        <pt x="284" y="1447" on="1"/>
      </contour>
    </TTGlyph>
    <TTGlyph name="hahhamzabovemedial" xMin="142" yMin="226" xMax="842" yMax="1588">
      <contour>
        <pt x="142" y="226" on="1"/>
        <pt x="142" y="1588" on="1"/>
        <pt x="842" y="1588" on="1"/>
        <pt x="842" y="226" on="1"/>
      </contour>
      <contour>
        <pt x="284" y="368" on="1"/>
        <pt x="700" y="368" on="1"/>
        <pt x="700" y="1447" on="1"/>
        <pt x="284" y="1447" on="1"/>
      </contour>
    </TTGlyph>
    <TTGlyph name="hahthreedotsabovefinal" xMin="142" yMin="226" xMax="842" yMax="1588">
      <contour>
        <pt x="142" y="226" on="1"/>
        <pt x="142" y="1588" on="1"/>
        <pt x="842" y="1588" on="1"/>
        <pt x="842" y="226" on="1"/>
      </contour>
      <contour>
        <pt x="284" y="368" on="1"/>
        <pt x="700" y="368" on="1"/>
        <pt x="700" y="1447" on="1"/>
        <pt x="284" y="1447" on="1"/>
      </contour>
    </TTGlyph>
    <TTGlyph name="hahthreedotsaboveinitial" xMin="142" yMin="226" xMax="842" yMax="1588">
      <contour>
        <pt x="142" y="226" on="1"/>
        <pt x="142" y="1588" on="1"/>
        <pt x="842" y="1588" on="1"/>
        <pt x="842" y="226" on="1"/>
      </contour>
      <contour>
        <pt x="284" y="368" on="1"/>
        <pt x="700" y="368" on="1"/>
        <pt x="700" y="1447" on="1"/>
        <pt x="284" y="1447" on="1"/>
      </contour>
    </TTGlyph>
    <TTGlyph name="hahthreedotsabovemedial" xMin="142" yMin="226" xMax="842" yMax="1588">
      <contour>
        <pt x="142" y="226" on="1"/>
        <pt x="142" y="1588" on="1"/>
        <pt x="842" y="1588" on="1"/>
        <pt x="842" y="226" on="1"/>
      </contour>
      <contour>
        <pt x="284" y="368" on="1"/>
        <pt x="700" y="368" on="1"/>
        <pt x="700" y="1447" on="1"/>
        <pt x="284" y="1447" on="1"/>
      </contour>
    </TTGlyph>
    <TTGlyph name="hehdoachashmeefinalarabic" xMin="142" yMin="226" xMax="842" yMax="1588">
      <contour>
        <pt x="142" y="226" on="1"/>
        <pt x="142" y="1588" on="1"/>
        <pt x="842" y="1588" on="1"/>
        <pt x="842" y="226" on="1"/>
      </contour>
      <contour>
        <pt x="284" y="368" on="1"/>
        <pt x="700" y="368" on="1"/>
        <pt x="700" y="1447" on="1"/>
        <pt x="284" y="1447" on="1"/>
      </contour>
    </TTGlyph>
    <TTGlyph name="hehdoachashmeeinitialarabic" xMin="142" yMin="226" xMax="842" yMax="1588">
      <contour>
        <pt x="142" y="226" on="1"/>
        <pt x="142" y="1588" on="1"/>
        <pt x="842" y="1588" on="1"/>
        <pt x="842" y="226" on="1"/>
      </contour>
      <contour>
        <pt x="284" y="368" on="1"/>
        <pt x="700" y="368" on="1"/>
        <pt x="700" y="1447" on="1"/>
        <pt x="284" y="1447" on="1"/>
      </contour>
    </TTGlyph>
    <TTGlyph name="hehdoachashmeemedialarabic" xMin="142" yMin="226" xMax="842" yMax="1588">
      <contour>
        <pt x="142" y="226" on="1"/>
        <pt x="142" y="1588" on="1"/>
        <pt x="842" y="1588" on="1"/>
        <pt x="842" y="226" on="1"/>
      </contour>
      <contour>
        <pt x="284" y="368" on="1"/>
        <pt x="700" y="368" on="1"/>
        <pt x="700" y="1447" on="1"/>
        <pt x="284" y="1447" on="1"/>
      </contour>
    </TTGlyph>
    <TTGlyph name="hehfinalaltonearabic" xMin="142" yMin="226" xMax="842" yMax="1588">
      <contour>
        <pt x="142" y="226" on="1"/>
        <pt x="142" y="1588" on="1"/>
        <pt x="842" y="1588" on="1"/>
        <pt x="842" y="226" on="1"/>
      </contour>
      <contour>
        <pt x="284" y="368" on="1"/>
        <pt x="700" y="368" on="1"/>
        <pt x="700" y="1447" on="1"/>
        <pt x="284" y="1447" on="1"/>
      </contour>
    </TTGlyph>
    <TTGlyph name="hehhamzaabovefinalarabic" xMin="142" yMin="226" xMax="842" yMax="1588">
      <contour>
        <pt x="142" y="226" on="1"/>
        <pt x="142" y="1588" on="1"/>
        <pt x="842" y="1588" on="1"/>
        <pt x="842" y="226" on="1"/>
      </contour>
      <contour>
        <pt x="284" y="368" on="1"/>
        <pt x="700" y="368" on="1"/>
        <pt x="700" y="1447" on="1"/>
        <pt x="284" y="1447" on="1"/>
      </contour>
    </TTGlyph>
    <TTGlyph name="hehinitialaltonearabic" xMin="142" yMin="226" xMax="842" yMax="1588">
      <contour>
        <pt x="142" y="226" on="1"/>
        <pt x="142" y="1588" on="1"/>
        <pt x="842" y="1588" on="1"/>
        <pt x="842" y="226" on="1"/>
      </contour>
      <contour>
        <pt x="284" y="368" on="1"/>
        <pt x="700" y="368" on="1"/>
        <pt x="700" y="1447" on="1"/>
        <pt x="284" y="1447" on="1"/>
      </contour>
    </TTGlyph>
    <TTGlyph name="hehmedialaltonearabic" xMin="142" yMin="226" xMax="842" yMax="1588">
      <contour>
        <pt x="142" y="226" on="1"/>
        <pt x="142" y="1588" on="1"/>
        <pt x="842" y="1588" on="1"/>
        <pt x="842" y="226" on="1"/>
      </contour>
      <contour>
        <pt x="284" y="368" on="1"/>
        <pt x="700" y="368" on="1"/>
        <pt x="700" y="1447" on="1"/>
        <pt x="284" y="1447" on="1"/>
      </contour>
    </TTGlyph>
    <TTGlyph name="hyphen" xMin="261" yMin="-688" xMax="3415" yMax="1502">
      <contour>
        <pt x="3159" y="1406" on="1"/>
        <pt x="3159" y="1363" on="0"/>
        <pt x="3044" y="1291" on="1"/>
        <pt x="2982" y="1257" on="0"/>
        <pt x="2921" y="1223" on="1"/>
        <pt x="2852" y="1179" on="0"/>
        <pt x="2723" y="1114" on="1"/>
        <pt x="2715" y="1119" on="0"/>
        <pt x="2698" y="1129" on="0"/>
        <pt x="2698" y="1144" on="1"/>
        <pt x="2698" y="1197" on="0"/>
        <pt x="2898" y="1315" on="1"/>
        <pt x="3054" y="1406" on="0"/>
        <pt x="3145" y="1441" on="1"/>
        <pt x="3159" y="1427" on="0"/>
      </contour>
      <contour>
        <pt x="2668" y="1461" on="1"/>
        <pt x="2668" y="1432" on="0"/>
        <pt x="2610" y="1392" on="1"/>
        <pt x="2566" y="1364" on="0"/>
        <pt x="2522" y="1336" on="1"/>
        <pt x="2400" y="1256" on="0"/>
        <pt x="2358" y="1231" on="1"/>
        <pt x="2275" y="1182" on="0"/>
        <pt x="2198" y="1156" on="1"/>
        <pt x="2198" y="1159" on="0"/>
        <pt x="2186" y="1181" on="0"/>
        <pt x="2186" y="1196" on="1"/>
        <pt x="2186" y="1244" on="0"/>
        <pt x="2381" y="1362" on="1"/>
        <pt x="2506" y="1432" on="0"/>
        <pt x="2633" y="1502" on="1"/>
        <pt x="2643" y="1495" on="0"/>
        <pt x="2654" y="1488" on="1"/>
        <pt x="2668" y="1478" on="0"/>
      </contour>
      <contour>
        <pt x="2964" y="668" on="1"/>
        <pt x="2964" y="640" on="0"/>
        <pt x="2929" y="609" on="1"/>
        <pt x="2897" y="582" on="0"/>
        <pt x="2878" y="582" on="1"/>
        <pt x="2849" y="582" on="0"/>
        <pt x="2750" y="656" on="1"/>
        <pt x="2750" y="684" on="0"/>
        <pt x="2792" y="721" on="1"/>
        <pt x="2831" y="755" on="0"/>
        <pt x="2851" y="755" on="1"/>
        <pt x="2878" y="755" on="0"/>
        <pt x="2964" y="691" on="0"/>
      </contour>
      <contour>
        <pt x="2135" y="1349" on="1"/>
        <pt x="2135" y="1309" on="0"/>
        <pt x="2020" y="1234" on="1"/>
        <pt x="1914" y="1165" on="0"/>
        <pt x="1893" y="1165" on="1"/>
        <pt x="1831" y="1165" on="1"/>
        <pt x="1818" y="1178" on="1"/>
        <pt x="1818" y="1215" on="1"/>
        <pt x="1854" y="1240" on="0"/>
        <pt x="1921" y="1285" on="1"/>
        <pt x="1926" y="1318" on="0"/>
        <pt x="1890" y="1318" on="1"/>
        <pt x="1875" y="1318" on="0"/>
        <pt x="1824" y="1290" on="1"/>
        <pt x="1759" y="1255" on="0"/>
        <pt x="1739" y="1247" on="1"/>
        <pt x="1726" y="1248" on="0"/>
        <pt x="1726" y="1272" on="1"/>
        <pt x="1726" y="1325" on="0"/>
        <pt x="1810" y="1381" on="1"/>
        <pt x="1885" y="1431" on="0"/>
        <pt x="1925" y="1431" on="1"/>
        <pt x="1939" y="1431" on="0"/>
        <pt x="2011" y="1414" on="1"/>
        <pt x="2095" y="1393" on="0"/>
        <pt x="2124" y="1389" on="1"/>
        <pt x="2124" y="1385" on="0"/>
        <pt x="2135" y="1364" on="0"/>
      </contour>
      <contour>
        <pt x="2125" y="801" on="1"/>
        <pt x="2125" y="775" on="0"/>
        <pt x="2059" y="705" on="0"/>
        <pt x="2038" y="705" on="1"/>
        <pt x="2026" y="705" on="0"/>
        <pt x="1964" y="735" on="0"/>
        <pt x="1951" y="735" on="1"/>
        <pt x="1938" y="735" on="0"/>
        <pt x="1876" y="684" on="0"/>
        <pt x="1863" y="684" on="1"/>
        <pt x="1843" y="684" on="0"/>
        <pt x="1756" y="744" on="0"/>
        <pt x="1756" y="760" on="1"/>
        <pt x="1756" y="786" on="0"/>
        <pt x="1828" y="858" on="0"/>
        <pt x="1854" y="858" on="1"/>
        <pt x="1865" y="858" on="0"/>
        <pt x="1917" y="827" on="0"/>
        <pt x="1931" y="827" on="1"/>
        <pt x="1941" y="827" on="0"/>
        <pt x="2001" y="889" on="0"/>
        <pt x="2017" y="889" on="1"/>
        <pt x="2039" y="889" on="0"/>
        <pt x="2125" y="822" on="0"/>
      </contour>
      <contour>
        <pt x="1592" y="1375" on="1"/>
        <pt x="1592" y="1329" on="0"/>
        <pt x="1521" y="1284" on="1"/>
        <pt x="1473" y="1258" on="0"/>
        <pt x="1426" y="1234" on="1"/>
        <pt x="1412" y="1225" on="0"/>
        <pt x="1169" y="1073" on="1"/>
        <pt x="1134" y="1073" on="1"/>
        <pt x="1121" y="1086" on="0"/>
        <pt x="1121" y="1108" on="1"/>
        <pt x="1121" y="1158" on="0"/>
        <pt x="1147" y="1175" on="1"/>
        <pt x="1374" y="1319" on="0"/>
        <pt x="1545" y="1411" on="1"/>
        <pt x="1579" y="1411" on="1"/>
        <pt x="1592" y="1397" on="0"/>
      </contour>
      <contour>
        <pt x="3415" y="223" on="1"/>
        <pt x="3415" y="199" on="0"/>
        <pt x="3394" y="164" on="1"/>
        <pt x="3371" y="125" on="0"/>
        <pt x="3349" y="123" on="1"/>
        <pt x="3272" y="120" on="0"/>
        <pt x="3194" y="117" on="1"/>
        <pt x="3101" y="114" on="0"/>
        <pt x="3042" y="97" on="1"/>
        <pt x="3040" y="96" on="0"/>
        <pt x="2859" y="24" on="1"/>
        <pt x="2767" y="-12" on="0"/>
        <pt x="2652" y="-12" on="1"/>
        <pt x="2574" y="-12" on="0"/>
        <pt x="2536" y="7" on="1"/>
        <pt x="2511" y="18" on="0"/>
        <pt x="2437" y="79" on="1"/>
        <pt x="2387" y="48" on="0"/>
        <pt x="2338" y="15" on="1"/>
        <pt x="2272" y="-22" on="0"/>
        <pt x="2221" y="-22" on="1"/>
        <pt x="2193" y="-22" on="1"/>
        <pt x="2180" y="-22" on="0"/>
        <pt x="1943" y="29" on="0"/>
        <pt x="1931" y="29" on="1"/>
        <pt x="1917" y="29" on="0"/>
        <pt x="1884" y="16" on="1"/>
        <pt x="1843" y="2" on="0"/>
        <pt x="1834" y="1" on="1"/>
        <pt x="1775" y="-12" on="0"/>
        <pt x="1654" y="-12" on="1"/>
        <pt x="1643" y="-12" on="0"/>
        <pt x="1555" y="49" on="0"/>
        <pt x="1541" y="49" on="1"/>
        <pt x="1528" y="49" on="0"/>
        <pt x="1505" y="29" on="1"/>
        <pt x="1476" y="5" on="0"/>
        <pt x="1466" y="1" on="1"/>
        <pt x="1387" y="-32" on="0"/>
        <pt x="1296" y="-32" on="1"/>
        <pt x="1191" y="-32" on="0"/>
        <pt x="1124" y="12" on="1"/>
        <pt x="1088" y="37" on="0"/>
        <pt x="1044" y="96" on="1"/>
        <pt x="1011" y="141" on="0"/>
        <pt x="988" y="141" on="1"/>
        <pt x="961" y="141" on="0"/>
        <pt x="902" y="83" on="1"/>
        <pt x="845" y="27" on="0"/>
        <pt x="845" y="13" on="1"/>
        <pt x="845" y="-39" on="0"/>
        <pt x="978" y="-44" on="1"/>
        <pt x="1138" y="-49" on="0"/>
        <pt x="1154" y="-60" on="1"/>
        <pt x="1203" y="-93" on="0"/>
        <pt x="1203" y="-145" on="1"/>
        <pt x="1203" y="-294" on="0"/>
        <pt x="955" y="-396" on="1"/>
        <pt x="766" y="-473" on="0"/>
        <pt x="635" y="-473" on="1"/>
        <pt x="481" y="-473" on="0"/>
        <pt x="377" y="-398" on="1"/>
        <pt x="342" y="-373" on="0"/>
        <pt x="303" y="-303" on="1"/>
        <pt x="261" y="-228" on="0"/>
        <pt x="261" y="-181" on="1"/>
        <pt x="261" y="-50" on="0"/>
        <pt x="387" y="109" on="1"/>
        <pt x="424" y="109" on="1"/>
        <pt x="424" y="106" on="0"/>
        <pt x="435" y="94" on="0"/>
        <pt x="435" y="79" on="1"/>
        <pt x="435" y="70" on="0"/>
        <pt x="363" y="-86" on="0"/>
        <pt x="363" y="-104" on="1"/>
        <pt x="363" y="-205" on="0"/>
        <pt x="474" y="-274" on="1"/>
        <pt x="563" y="-330" on="0"/>
        <pt x="640" y="-330" on="1"/>
        <pt x="697" y="-330" on="1"/>
        <pt x="744" y="-330" on="0"/>
        <pt x="880" y="-290" on="1"/>
        <pt x="1034" y="-245" on="0"/>
        <pt x="1050" y="-208" on="1"/>
        <pt x="961" y="-192" on="0"/>
        <pt x="871" y="-176" on="1"/>
        <pt x="732" y="-144" on="0"/>
        <pt x="732" y="-78" on="1"/>
        <pt x="732" y="15" on="0"/>
        <pt x="861" y="153" on="1"/>
        <pt x="983" y="284" on="0"/>
        <pt x="1045" y="284" on="1"/>
        <pt x="1055" y="284" on="0"/>
        <pt x="1249" y="111" on="0"/>
        <pt x="1346" y="111" on="1"/>
        <pt x="1423" y="111" on="0"/>
        <pt x="1492" y="153" on="1"/>
        <pt x="1520" y="188" on="0"/>
        <pt x="1589" y="243" on="1"/>
        <pt x="1595" y="213" on="0"/>
        <pt x="1631" y="163" on="1"/>
        <pt x="1681" y="131" on="0"/>
        <pt x="1736" y="131" on="1"/>
        <pt x="1778" y="131" on="0"/>
        <pt x="1814" y="159" on="1"/>
        <pt x="1807" y="257" on="0"/>
        <pt x="1964" y="489" on="0"/>
        <pt x="2043" y="489" on="1"/>
        <pt x="2166" y="489" on="0"/>
        <pt x="2166" y="330" on="1"/>
        <pt x="2166" y="242" on="0"/>
        <pt x="2125" y="175" on="1"/>
        <pt x="2125" y="149" on="1"/>
        <pt x="2178" y="131" on="0"/>
        <pt x="2212" y="131" on="1"/>
        <pt x="2272" y="131" on="0"/>
        <pt x="2337" y="154" on="1"/>
        <pt x="2422" y="184" on="0"/>
        <pt x="2422" y="233" on="1"/>
        <pt x="2350" y="868" on="1"/>
        <pt x="2350" y="924" on="0"/>
        <pt x="2384" y="990" on="1"/>
        <pt x="2420" y="990" on="1"/>
        <pt x="2451" y="880" on="0"/>
        <pt x="2475" y="607" on="1"/>
        <pt x="2499" y="348" on="0"/>
        <pt x="2500" y="339" on="1"/>
        <pt x="2521" y="193" on="0"/>
        <pt x="2570" y="161" on="1"/>
        <pt x="2621" y="224" on="0"/>
        <pt x="2672" y="288" on="1"/>
        <pt x="2754" y="387" on="0"/>
        <pt x="2801" y="387" on="1"/>
        <pt x="2801" y="387" on="0"/>
        <pt x="3073" y="287" on="1"/>
        <pt x="3177" y="248" on="0"/>
        <pt x="3401" y="253" on="1"/>
        <pt x="3403" y="252" on="0"/>
        <pt x="3403" y="251" on="1"/>
        <pt x="3415" y="241" on="0"/>
      </contour>
      <contour>
        <pt x="1572" y="473" on="1"/>
        <pt x="1572" y="441" on="0"/>
        <pt x="1511" y="387" on="0"/>
        <pt x="1480" y="387" on="1"/>
        <pt x="1461" y="387" on="0"/>
        <pt x="1378" y="446" on="0"/>
        <pt x="1378" y="464" on="1"/>
        <pt x="1378" y="475" on="0"/>
        <pt x="1419" y="534" on="0"/>
        <pt x="1419" y="546" on="1"/>
        <pt x="1419" y="571" on="0"/>
        <pt x="1360" y="604" on="1"/>
        <pt x="1357" y="618" on="0"/>
        <pt x="1357" y="637" on="1"/>
        <pt x="1357" y="659" on="0"/>
        <pt x="1374" y="691" on="1"/>
        <pt x="1396" y="735" on="0"/>
        <pt x="1428" y="735" on="1"/>
        <pt x="1459" y="735" on="0"/>
        <pt x="1496" y="701" on="1"/>
        <pt x="1531" y="671" on="0"/>
        <pt x="1531" y="653" on="1"/>
        <pt x="1531" y="614" on="0"/>
        <pt x="1490" y="576" on="1"/>
        <pt x="1496" y="567" on="0"/>
        <pt x="1539" y="523" on="1"/>
        <pt x="1572" y="488" on="0"/>
      </contour>
      <contour>
        <pt x="947" y="566" on="1"/>
        <pt x="947" y="538" on="0"/>
        <pt x="889" y="469" on="0"/>
        <pt x="875" y="469" on="1"/>
        <pt x="857" y="469" on="0"/>
        <pt x="817" y="494" on="1"/>
        <pt x="773" y="522" on="0"/>
        <pt x="773" y="546" on="1"/>
        <pt x="773" y="572" on="0"/>
        <pt x="799" y="605" on="1"/>
        <pt x="827" y="643" on="0"/>
        <pt x="855" y="643" on="1"/>
        <pt x="895" y="643" on="0"/>
        <pt x="923" y="615" on="1"/>
        <pt x="947" y="591" on="0"/>
      </contour>
      <contour>
        <pt x="1265" y="-447" on="1"/>
        <pt x="1265" y="-489" on="0"/>
        <pt x="1068" y="-593" on="1"/>
        <pt x="884" y="-688" on="0"/>
        <pt x="859" y="-688" on="1"/>
        <pt x="816" y="-688" on="1"/>
        <pt x="804" y="-686" on="0"/>
        <pt x="804" y="-662" on="1"/>
        <pt x="804" y="-599" on="0"/>
        <pt x="830" y="-586" on="1"/>
        <pt x="957" y="-530" on="0"/>
        <pt x="1207" y="-412" on="1"/>
        <pt x="1251" y="-412" on="1"/>
        <pt x="1265" y="-425" on="0"/>
      </contour>
      <contour>
        <pt x="2892" y="182" on="1"/>
        <pt x="2810" y="233" on="0"/>
        <pt x="2775" y="233" on="1"/>
        <pt x="2752" y="233" on="0"/>
        <pt x="2711" y="206" on="1"/>
        <pt x="2668" y="178" on="0"/>
        <pt x="2668" y="156" on="1"/>
        <pt x="2668" y="133" on="0"/>
        <pt x="2680" y="131" on="1"/>
        <pt x="2743" y="131" on="1"/>
        <pt x="2810" y="130" on="0"/>
      </contour>
      <contour>
        <pt x="2074" y="269" on="1"/>
        <pt x="2074" y="290" on="0"/>
        <pt x="2040" y="346" on="0"/>
        <pt x="2022" y="346" on="1"/>
        <pt x="2001" y="346" on="0"/>
        <pt x="1963" y="314" on="1"/>
        <pt x="1922" y="279" on="0"/>
        <pt x="1921" y="247" on="1"/>
        <pt x="1965" y="202" on="0"/>
        <pt x="1986" y="202" on="1"/>
        <pt x="2008" y="202" on="0"/>
        <pt x="2074" y="250" on="0"/>
      </contour>
    </TTGlyph>
    <TTGlyph name="irghizufinal" xMin="142" yMin="226" xMax="842" yMax="1588">
      <contour>
        <pt x="142" y="226" on="1"/>
        <pt x="142" y="1588" on="1"/>
        <pt x="842" y="1588" on="1"/>
        <pt x="842" y="226" on="1"/>
      </contour>
      <contour>
        <pt x="284" y="368" on="1"/>
        <pt x="700" y="368" on="1"/>
        <pt x="700" y="1447" on="1"/>
        <pt x="284" y="1447" on="1"/>
      </contour>
    </TTGlyph>
    <TTGlyph name="jehfinalarabic" xMin="142" yMin="226" xMax="842" yMax="1588">
      <contour>
        <pt x="142" y="226" on="1"/>
        <pt x="142" y="1588" on="1"/>
        <pt x="842" y="1588" on="1"/>
        <pt x="842" y="226" on="1"/>
      </contour>
      <contour>
        <pt x="284" y="368" on="1"/>
        <pt x="700" y="368" on="1"/>
        <pt x="700" y="1447" on="1"/>
        <pt x="284" y="1447" on="1"/>
      </contour>
    </TTGlyph>
    <TTGlyph name="kafringfinal" xMin="142" yMin="226" xMax="842" yMax="1588">
      <contour>
        <pt x="142" y="226" on="1"/>
        <pt x="142" y="1588" on="1"/>
        <pt x="842" y="1588" on="1"/>
        <pt x="842" y="226" on="1"/>
      </contour>
      <contour>
        <pt x="284" y="368" on="1"/>
        <pt x="700" y="368" on="1"/>
        <pt x="700" y="1447" on="1"/>
        <pt x="284" y="1447" on="1"/>
      </contour>
    </TTGlyph>
    <TTGlyph name="kafringinitial" xMin="142" yMin="226" xMax="842" yMax="1588">
      <contour>
        <pt x="142" y="226" on="1"/>
        <pt x="142" y="1588" on="1"/>
        <pt x="842" y="1588" on="1"/>
        <pt x="842" y="226" on="1"/>
      </contour>
      <contour>
        <pt x="284" y="368" on="1"/>
        <pt x="700" y="368" on="1"/>
        <pt x="700" y="1447" on="1"/>
        <pt x="284" y="1447" on="1"/>
      </contour>
    </TTGlyph>
    <TTGlyph name="kafringmedial" xMin="142" yMin="226" xMax="842" yMax="1588">
      <contour>
        <pt x="142" y="226" on="1"/>
        <pt x="142" y="1588" on="1"/>
        <pt x="842" y="1588" on="1"/>
        <pt x="842" y="226" on="1"/>
      </contour>
      <contour>
        <pt x="284" y="368" on="1"/>
        <pt x="700" y="368" on="1"/>
        <pt x="700" y="1447" on="1"/>
        <pt x="284" y="1447" on="1"/>
      </contour>
    </TTGlyph>
    <TTGlyph name="kashidaautoarabic" xMin="142" yMin="226" xMax="842" yMax="1588">
      <contour>
        <pt x="142" y="226" on="1"/>
        <pt x="142" y="1588" on="1"/>
        <pt x="842" y="1588" on="1"/>
        <pt x="842" y="226" on="1"/>
      </contour>
      <contour>
        <pt x="284" y="368" on="1"/>
        <pt x="700" y="368" on="1"/>
        <pt x="700" y="1447" on="1"/>
        <pt x="284" y="1447" on="1"/>
      </contour>
    </TTGlyph>
    <TTGlyph name="kashidaautonosidebearingarabic" xMin="142" yMin="226" xMax="842" yMax="1588">
      <contour>
        <pt x="142" y="226" on="1"/>
        <pt x="142" y="1588" on="1"/>
        <pt x="842" y="1588" on="1"/>
        <pt x="842" y="226" on="1"/>
      </contour>
      <contour>
        <pt x="284" y="368" on="1"/>
        <pt x="700" y="368" on="1"/>
        <pt x="700" y="1447" on="1"/>
        <pt x="284" y="1447" on="1"/>
      </contour>
    </TTGlyph>
    <TTGlyph name="kehehfinalarabic" xMin="142" yMin="226" xMax="842" yMax="1588">
      <contour>
        <pt x="142" y="226" on="1"/>
        <pt x="142" y="1588" on="1"/>
        <pt x="842" y="1588" on="1"/>
        <pt x="842" y="226" on="1"/>
      </contour>
      <contour>
        <pt x="284" y="368" on="1"/>
        <pt x="700" y="368" on="1"/>
        <pt x="700" y="1447" on="1"/>
        <pt x="284" y="1447" on="1"/>
      </contour>
    </TTGlyph>
    <TTGlyph name="kehehinitialarabic" xMin="142" yMin="226" xMax="842" yMax="1588">
      <contour>
        <pt x="142" y="226" on="1"/>
        <pt x="142" y="1588" on="1"/>
        <pt x="842" y="1588" on="1"/>
        <pt x="842" y="226" on="1"/>
      </contour>
      <contour>
        <pt x="284" y="368" on="1"/>
        <pt x="700" y="368" on="1"/>
        <pt x="700" y="1447" on="1"/>
        <pt x="284" y="1447" on="1"/>
      </contour>
    </TTGlyph>
    <TTGlyph name="kehehmedialarabic" xMin="142" yMin="226" xMax="842" yMax="1588">
      <contour>
        <pt x="142" y="226" on="1"/>
        <pt x="142" y="1588" on="1"/>
        <pt x="842" y="1588" on="1"/>
        <pt x="842" y="226" on="1"/>
      </contour>
      <contour>
        <pt x="284" y="368" on="1"/>
        <pt x="700" y="368" on="1"/>
        <pt x="700" y="1447" on="1"/>
        <pt x="284" y="1447" on="1"/>
      </contour>
    </TTGlyph>
    <TTGlyph name="kirghizyifinal" xMin="142" yMin="226" xMax="842" yMax="1588">
      <contour>
        <pt x="142" y="226" on="1"/>
        <pt x="142" y="1588" on="1"/>
        <pt x="842" y="1588" on="1"/>
        <pt x="842" y="226" on="1"/>
      </contour>
      <contour>
        <pt x="284" y="368" on="1"/>
        <pt x="700" y="368" on="1"/>
        <pt x="700" y="1447" on="1"/>
        <pt x="284" y="1447" on="1"/>
      </contour>
    </TTGlyph>
    <TTGlyph name="lammeemjeeminitialarabic" xMin="142" yMin="226" xMax="842" yMax="1588">
      <contour>
        <pt x="142" y="226" on="1"/>
        <pt x="142" y="1588" on="1"/>
        <pt x="842" y="1588" on="1"/>
        <pt x="842" y="226" on="1"/>
      </contour>
      <contour>
        <pt x="284" y="368" on="1"/>
        <pt x="700" y="368" on="1"/>
        <pt x="700" y="1447" on="1"/>
        <pt x="284" y="1447" on="1"/>
      </contour>
    </TTGlyph>
    <TTGlyph name="lammeemkhahinitialarabic" xMin="142" yMin="226" xMax="842" yMax="1588">
      <contour>
        <pt x="142" y="226" on="1"/>
        <pt x="142" y="1588" on="1"/>
        <pt x="842" y="1588" on="1"/>
        <pt x="842" y="226" on="1"/>
      </contour>
      <contour>
        <pt x="284" y="368" on="1"/>
        <pt x="700" y="368" on="1"/>
        <pt x="700" y="1447" on="1"/>
        <pt x="284" y="1447" on="1"/>
      </contour>
    </TTGlyph>
    <TTGlyph name="lamthreedotsabovefinal" xMin="142" yMin="226" xMax="842" yMax="1588">
      <contour>
        <pt x="142" y="226" on="1"/>
        <pt x="142" y="1588" on="1"/>
        <pt x="842" y="1588" on="1"/>
        <pt x="842" y="226" on="1"/>
      </contour>
      <contour>
        <pt x="284" y="368" on="1"/>
        <pt x="700" y="368" on="1"/>
        <pt x="700" y="1447" on="1"/>
        <pt x="284" y="1447" on="1"/>
      </contour>
    </TTGlyph>
    <TTGlyph name="lamthreedotsaboveinitial" xMin="142" yMin="226" xMax="842" yMax="1588">
      <contour>
        <pt x="142" y="226" on="1"/>
        <pt x="142" y="1588" on="1"/>
        <pt x="842" y="1588" on="1"/>
        <pt x="842" y="226" on="1"/>
      </contour>
      <contour>
        <pt x="284" y="368" on="1"/>
        <pt x="700" y="368" on="1"/>
        <pt x="700" y="1447" on="1"/>
        <pt x="284" y="1447" on="1"/>
      </contour>
    </TTGlyph>
    <TTGlyph name="lamthreedotsabovemedial" xMin="142" yMin="226" xMax="842" yMax="1588">
      <contour>
        <pt x="142" y="226" on="1"/>
        <pt x="142" y="1588" on="1"/>
        <pt x="842" y="1588" on="1"/>
        <pt x="842" y="226" on="1"/>
      </contour>
      <contour>
        <pt x="284" y="368" on="1"/>
        <pt x="700" y="368" on="1"/>
        <pt x="700" y="1447" on="1"/>
        <pt x="284" y="1447" on="1"/>
      </contour>
    </TTGlyph>
    <TTGlyph name="less" xMin="142" yMin="226" xMax="842" yMax="1588">
      <contour>
        <pt x="142" y="226" on="1"/>
        <pt x="142" y="1588" on="1"/>
        <pt x="842" y="1588" on="1"/>
        <pt x="842" y="226" on="1"/>
      </contour>
      <contour>
        <pt x="284" y="368" on="1"/>
        <pt x="700" y="368" on="1"/>
        <pt x="700" y="1447" on="1"/>
        <pt x="284" y="1447" on="1"/>
      </contour>
    </TTGlyph>
    <TTGlyph name="meemmeemisolatedarabic" xMin="142" yMin="226" xMax="842" yMax="1588">
      <contour>
        <pt x="142" y="226" on="1"/>
        <pt x="142" y="1588" on="1"/>
        <pt x="842" y="1588" on="1"/>
        <pt x="842" y="226" on="1"/>
      </contour>
      <contour>
        <pt x="284" y="368" on="1"/>
        <pt x="700" y="368" on="1"/>
        <pt x="700" y="1447" on="1"/>
        <pt x="284" y="1447" on="1"/>
      </contour>
    </TTGlyph>
    <TTGlyph name="multiply" xMin="142" yMin="226" xMax="842" yMax="1588">
      <contour>
        <pt x="142" y="226" on="1"/>
        <pt x="142" y="1588" on="1"/>
        <pt x="842" y="1588" on="1"/>
        <pt x="842" y="226" on="1"/>
      </contour>
      <contour>
        <pt x="284" y="368" on="1"/>
        <pt x="700" y="368" on="1"/>
        <pt x="700" y="1447" on="1"/>
        <pt x="284" y="1447" on="1"/>
      </contour>
    </TTGlyph>
    <TTGlyph name="noonghunnafinalarabic" xMin="142" yMin="226" xMax="842" yMax="1588">
      <contour>
        <pt x="142" y="226" on="1"/>
        <pt x="142" y="1588" on="1"/>
        <pt x="842" y="1588" on="1"/>
        <pt x="842" y="226" on="1"/>
      </contour>
      <contour>
        <pt x="284" y="368" on="1"/>
        <pt x="700" y="368" on="1"/>
        <pt x="700" y="1447" on="1"/>
        <pt x="284" y="1447" on="1"/>
      </contour>
    </TTGlyph>
    <TTGlyph name="noonjeemisolatedarabic" xMin="142" yMin="226" xMax="842" yMax="1588">
      <contour>
        <pt x="142" y="226" on="1"/>
        <pt x="142" y="1588" on="1"/>
        <pt x="842" y="1588" on="1"/>
        <pt x="842" y="226" on="1"/>
      </contour>
      <contour>
        <pt x="284" y="368" on="1"/>
        <pt x="700" y="368" on="1"/>
        <pt x="700" y="1447" on="1"/>
        <pt x="284" y="1447" on="1"/>
      </contour>
    </TTGlyph>
    <TTGlyph name="noonmeemisolatedarabic" xMin="142" yMin="226" xMax="842" yMax="1588">
      <contour>
        <pt x="142" y="226" on="1"/>
        <pt x="142" y="1588" on="1"/>
        <pt x="842" y="1588" on="1"/>
        <pt x="842" y="226" on="1"/>
      </contour>
      <contour>
        <pt x="284" y="368" on="1"/>
        <pt x="700" y="368" on="1"/>
        <pt x="700" y="1447" on="1"/>
        <pt x="284" y="1447" on="1"/>
      </contour>
    </TTGlyph>
    <TTGlyph name="noonringfinal" xMin="142" yMin="226" xMax="842" yMax="1588">
      <contour>
        <pt x="142" y="226" on="1"/>
        <pt x="142" y="1588" on="1"/>
        <pt x="842" y="1588" on="1"/>
        <pt x="842" y="226" on="1"/>
      </contour>
      <contour>
        <pt x="284" y="368" on="1"/>
        <pt x="700" y="368" on="1"/>
        <pt x="700" y="1447" on="1"/>
        <pt x="284" y="1447" on="1"/>
      </contour>
    </TTGlyph>
    <TTGlyph name="noonringinitial" xMin="142" yMin="226" xMax="842" yMax="1588">
      <contour>
        <pt x="142" y="226" on="1"/>
        <pt x="142" y="1588" on="1"/>
        <pt x="842" y="1588" on="1"/>
        <pt x="842" y="226" on="1"/>
      </contour>
      <contour>
        <pt x="284" y="368" on="1"/>
        <pt x="700" y="368" on="1"/>
        <pt x="700" y="1447" on="1"/>
        <pt x="284" y="1447" on="1"/>
      </contour>
    </TTGlyph>
    <TTGlyph name="noonringmedial" xMin="142" yMin="226" xMax="842" yMax="1588">
      <contour>
        <pt x="142" y="226" on="1"/>
        <pt x="142" y="1588" on="1"/>
        <pt x="842" y="1588" on="1"/>
        <pt x="842" y="226" on="1"/>
      </contour>
      <contour>
        <pt x="284" y="368" on="1"/>
        <pt x="700" y="368" on="1"/>
        <pt x="700" y="1447" on="1"/>
        <pt x="284" y="1447" on="1"/>
      </contour>
    </TTGlyph>
    <TTGlyph name="numbersign" xMin="142" yMin="226" xMax="842" yMax="1588">
      <contour>
        <pt x="142" y="226" on="1"/>
        <pt x="142" y="1588" on="1"/>
        <pt x="842" y="1588" on="1"/>
        <pt x="842" y="226" on="1"/>
      </contour>
      <contour>
        <pt x="284" y="368" on="1"/>
        <pt x="700" y="368" on="1"/>
        <pt x="700" y="1447" on="1"/>
        <pt x="284" y="1447" on="1"/>
      </contour>
    </TTGlyph>
    <TTGlyph name="parenleft" xMin="142" yMin="226" xMax="842" yMax="1588">
      <contour>
        <pt x="142" y="226" on="1"/>
        <pt x="142" y="1588" on="1"/>
        <pt x="842" y="1588" on="1"/>
        <pt x="842" y="226" on="1"/>
      </contour>
      <contour>
        <pt x="284" y="368" on="1"/>
        <pt x="700" y="368" on="1"/>
        <pt x="700" y="1447" on="1"/>
        <pt x="284" y="1447" on="1"/>
      </contour>
    </TTGlyph>
    <TTGlyph name="parenright" xMin="142" yMin="226" xMax="842" yMax="1588">
      <contour>
        <pt x="142" y="226" on="1"/>
        <pt x="142" y="1588" on="1"/>
        <pt x="842" y="1588" on="1"/>
        <pt x="842" y="226" on="1"/>
      </contour>
      <contour>
        <pt x="284" y="368" on="1"/>
        <pt x="700" y="368" on="1"/>
        <pt x="700" y="1447" on="1"/>
        <pt x="284" y="1447" on="1"/>
      </contour>
    </TTGlyph>
    <TTGlyph name="pashtoefinal" xMin="142" yMin="226" xMax="842" yMax="1588">
      <contour>
        <pt x="142" y="226" on="1"/>
        <pt x="142" y="1588" on="1"/>
        <pt x="842" y="1588" on="1"/>
        <pt x="842" y="226" on="1"/>
      </contour>
      <contour>
        <pt x="284" y="368" on="1"/>
        <pt x="700" y="368" on="1"/>
        <pt x="700" y="1447" on="1"/>
        <pt x="284" y="1447" on="1"/>
      </contour>
    </TTGlyph>
    <TTGlyph name="pashtoeinitial" xMin="142" yMin="226" xMax="842" yMax="1588">
      <contour>
        <pt x="142" y="226" on="1"/>
        <pt x="142" y="1588" on="1"/>
        <pt x="842" y="1588" on="1"/>
        <pt x="842" y="226" on="1"/>
      </contour>
      <contour>
        <pt x="284" y="368" on="1"/>
        <pt x="700" y="368" on="1"/>
        <pt x="700" y="1447" on="1"/>
        <pt x="284" y="1447" on="1"/>
      </contour>
    </TTGlyph>
    <TTGlyph name="pashtoemedial" xMin="142" yMin="226" xMax="842" yMax="1588">
      <contour>
        <pt x="142" y="226" on="1"/>
        <pt x="142" y="1588" on="1"/>
        <pt x="842" y="1588" on="1"/>
        <pt x="842" y="226" on="1"/>
      </contour>
      <contour>
        <pt x="284" y="368" on="1"/>
        <pt x="700" y="368" on="1"/>
        <pt x="700" y="1447" on="1"/>
        <pt x="284" y="1447" on="1"/>
      </contour>
    </TTGlyph>
    <TTGlyph name="pehfinalarabic" xMin="142" yMin="226" xMax="842" yMax="1588">
      <contour>
        <pt x="142" y="226" on="1"/>
        <pt x="142" y="1588" on="1"/>
        <pt x="842" y="1588" on="1"/>
        <pt x="842" y="226" on="1"/>
      </contour>
      <contour>
        <pt x="284" y="368" on="1"/>
        <pt x="700" y="368" on="1"/>
        <pt x="700" y="1447" on="1"/>
        <pt x="284" y="1447" on="1"/>
      </contour>
    </TTGlyph>
    <TTGlyph name="pehinitialarabic" xMin="142" yMin="226" xMax="842" yMax="1588">
      <contour>
        <pt x="142" y="226" on="1"/>
        <pt x="142" y="1588" on="1"/>
        <pt x="842" y="1588" on="1"/>
        <pt x="842" y="226" on="1"/>
      </contour>
      <contour>
        <pt x="284" y="368" on="1"/>
        <pt x="700" y="368" on="1"/>
        <pt x="700" y="1447" on="1"/>
        <pt x="284" y="1447" on="1"/>
      </contour>
    </TTGlyph>
    <TTGlyph name="pehmedialarabic" xMin="142" yMin="226" xMax="842" yMax="1588">
      <contour>
        <pt x="142" y="226" on="1"/>
        <pt x="142" y="1588" on="1"/>
        <pt x="842" y="1588" on="1"/>
        <pt x="842" y="226" on="1"/>
      </contour>
      <contour>
        <pt x="284" y="368" on="1"/>
        <pt x="700" y="368" on="1"/>
        <pt x="700" y="1447" on="1"/>
        <pt x="284" y="1447" on="1"/>
      </contour>
    </TTGlyph>
    <TTGlyph name="percent" xMin="142" yMin="226" xMax="842" yMax="1588">
      <contour>
        <pt x="142" y="226" on="1"/>
        <pt x="142" y="1588" on="1"/>
        <pt x="842" y="1588" on="1"/>
        <pt x="842" y="226" on="1"/>
      </contour>
      <contour>
        <pt x="284" y="368" on="1"/>
        <pt x="700" y="368" on="1"/>
        <pt x="700" y="1447" on="1"/>
        <pt x="284" y="1447" on="1"/>
      </contour>
    </TTGlyph>
    <TTGlyph name="period" xMin="142" yMin="226" xMax="842" yMax="1588">
      <contour>
        <pt x="142" y="226" on="1"/>
        <pt x="142" y="1588" on="1"/>
        <pt x="842" y="1588" on="1"/>
        <pt x="842" y="226" on="1"/>
      </contour>
      <contour>
        <pt x="284" y="368" on="1"/>
        <pt x="700" y="368" on="1"/>
        <pt x="700" y="1447" on="1"/>
        <pt x="284" y="1447" on="1"/>
      </contour>
    </TTGlyph>
    <TTGlyph name="plus" xMin="142" yMin="226" xMax="842" yMax="1588">
      <contour>
        <pt x="142" y="226" on="1"/>
        <pt x="142" y="1588" on="1"/>
        <pt x="842" y="1588" on="1"/>
        <pt x="842" y="226" on="1"/>
      </contour>
      <contour>
        <pt x="284" y="368" on="1"/>
        <pt x="700" y="368" on="1"/>
        <pt x="700" y="1447" on="1"/>
        <pt x="284" y="1447" on="1"/>
      </contour>
    </TTGlyph>
    <TTGlyph name="quotedbl" xMin="142" yMin="226" xMax="842" yMax="1588">
      <contour>
        <pt x="142" y="226" on="1"/>
        <pt x="142" y="1588" on="1"/>
        <pt x="842" y="1588" on="1"/>
        <pt x="842" y="226" on="1"/>
      </contour>
      <contour>
        <pt x="284" y="368" on="1"/>
        <pt x="700" y="368" on="1"/>
        <pt x="700" y="1447" on="1"/>
        <pt x="284" y="1447" on="1"/>
      </contour>
    </TTGlyph>
    <TTGlyph name="quotesingle" xMin="142" yMin="226" xMax="842" yMax="1588">
      <contour>
        <pt x="142" y="226" on="1"/>
        <pt x="142" y="1588" on="1"/>
        <pt x="842" y="1588" on="1"/>
        <pt x="842" y="226" on="1"/>
      </contour>
      <contour>
        <pt x="284" y="368" on="1"/>
        <pt x="700" y="368" on="1"/>
        <pt x="700" y="1447" on="1"/>
        <pt x="284" y="1447" on="1"/>
      </contour>
    </TTGlyph>
    <TTGlyph name="rehdotbelowdotabovefinal" xMin="142" yMin="226" xMax="842" yMax="1588">
      <contour>
        <pt x="142" y="226" on="1"/>
        <pt x="142" y="1588" on="1"/>
        <pt x="842" y="1588" on="1"/>
        <pt x="842" y="226" on="1"/>
      </contour>
      <contour>
        <pt x="284" y="368" on="1"/>
        <pt x="700" y="368" on="1"/>
        <pt x="700" y="1447" on="1"/>
        <pt x="284" y="1447" on="1"/>
      </contour>
    </TTGlyph>
    <TTGlyph name="rehringfinal" xMin="142" yMin="226" xMax="842" yMax="1588">
      <contour>
        <pt x="142" y="226" on="1"/>
        <pt x="142" y="1588" on="1"/>
        <pt x="842" y="1588" on="1"/>
        <pt x="842" y="226" on="1"/>
      </contour>
      <contour>
        <pt x="284" y="368" on="1"/>
        <pt x="700" y="368" on="1"/>
        <pt x="700" y="1447" on="1"/>
        <pt x="284" y="1447" on="1"/>
      </contour>
    </TTGlyph>
    <TTGlyph name="rrehfinalarabic" xMin="142" yMin="226" xMax="842" yMax="1588">
      <contour>
        <pt x="142" y="226" on="1"/>
        <pt x="142" y="1588" on="1"/>
        <pt x="842" y="1588" on="1"/>
        <pt x="842" y="226" on="1"/>
      </contour>
      <contour>
        <pt x="284" y="368" on="1"/>
        <pt x="700" y="368" on="1"/>
        <pt x="700" y="1447" on="1"/>
        <pt x="284" y="1447" on="1"/>
      </contour>
    </TTGlyph>
    <TTGlyph name="seendotbelowdotabovefinal" xMin="142" yMin="226" xMax="842" yMax="1588">
      <contour>
        <pt x="142" y="226" on="1"/>
        <pt x="142" y="1588" on="1"/>
        <pt x="842" y="1588" on="1"/>
        <pt x="842" y="226" on="1"/>
      </contour>
      <contour>
        <pt x="284" y="368" on="1"/>
        <pt x="700" y="368" on="1"/>
        <pt x="700" y="1447" on="1"/>
        <pt x="284" y="1447" on="1"/>
      </contour>
    </TTGlyph>
    <TTGlyph name="seendotbelowdotaboveinitial" xMin="142" yMin="226" xMax="842" yMax="1588">
      <contour>
        <pt x="142" y="226" on="1"/>
        <pt x="142" y="1588" on="1"/>
        <pt x="842" y="1588" on="1"/>
        <pt x="842" y="226" on="1"/>
      </contour>
      <contour>
        <pt x="284" y="368" on="1"/>
        <pt x="700" y="368" on="1"/>
        <pt x="700" y="1447" on="1"/>
        <pt x="284" y="1447" on="1"/>
      </contour>
    </TTGlyph>
    <TTGlyph name="seendotbelowdotabovemedial" xMin="142" yMin="226" xMax="842" yMax="1588">
      <contour>
        <pt x="142" y="226" on="1"/>
        <pt x="142" y="1588" on="1"/>
        <pt x="842" y="1588" on="1"/>
        <pt x="842" y="226" on="1"/>
      </contour>
      <contour>
        <pt x="284" y="368" on="1"/>
        <pt x="700" y="368" on="1"/>
        <pt x="700" y="1447" on="1"/>
        <pt x="284" y="1447" on="1"/>
      </contour>
    </TTGlyph>
    <TTGlyph name="shaddadammaarabic" xMin="142" yMin="226" xMax="842" yMax="1588">
      <contour>
        <pt x="142" y="226" on="1"/>
        <pt x="142" y="1588" on="1"/>
        <pt x="842" y="1588" on="1"/>
        <pt x="842" y="226" on="1"/>
      </contour>
      <contour>
        <pt x="284" y="368" on="1"/>
        <pt x="700" y="368" on="1"/>
        <pt x="700" y="1447" on="1"/>
        <pt x="284" y="1447" on="1"/>
      </contour>
    </TTGlyph>
    <TTGlyph name="shaddadammatanarabic" xMin="142" yMin="226" xMax="842" yMax="1588">
      <contour>
        <pt x="142" y="226" on="1"/>
        <pt x="142" y="1588" on="1"/>
        <pt x="842" y="1588" on="1"/>
        <pt x="842" y="226" on="1"/>
      </contour>
      <contour>
        <pt x="284" y="368" on="1"/>
        <pt x="700" y="368" on="1"/>
        <pt x="700" y="1447" on="1"/>
        <pt x="284" y="1447" on="1"/>
      </contour>
    </TTGlyph>
    <TTGlyph name="shaddafathaarabic" xMin="142" yMin="226" xMax="842" yMax="1588">
      <contour>
        <pt x="142" y="226" on="1"/>
        <pt x="142" y="1588" on="1"/>
        <pt x="842" y="1588" on="1"/>
        <pt x="842" y="226" on="1"/>
      </contour>
      <contour>
        <pt x="284" y="368" on="1"/>
        <pt x="700" y="368" on="1"/>
        <pt x="700" y="1447" on="1"/>
        <pt x="284" y="1447" on="1"/>
      </contour>
    </TTGlyph>
    <TTGlyph name="shaddakasraarabic" xMin="142" yMin="226" xMax="842" yMax="1588">
      <contour>
        <pt x="142" y="226" on="1"/>
        <pt x="142" y="1588" on="1"/>
        <pt x="842" y="1588" on="1"/>
        <pt x="842" y="226" on="1"/>
      </contour>
      <contour>
        <pt x="284" y="368" on="1"/>
        <pt x="700" y="368" on="1"/>
        <pt x="700" y="1447" on="1"/>
        <pt x="284" y="1447" on="1"/>
      </contour>
    </TTGlyph>
    <TTGlyph name="shaddakasratanarabic" xMin="142" yMin="226" xMax="842" yMax="1588">
      <contour>
        <pt x="142" y="226" on="1"/>
        <pt x="142" y="1588" on="1"/>
        <pt x="842" y="1588" on="1"/>
        <pt x="842" y="226" on="1"/>
      </contour>
      <contour>
        <pt x="284" y="368" on="1"/>
        <pt x="700" y="368" on="1"/>
        <pt x="700" y="1447" on="1"/>
        <pt x="284" y="1447" on="1"/>
      </contour>
    </TTGlyph>
    <TTGlyph name="slash" xMin="142" yMin="226" xMax="842" yMax="1588">
      <contour>
        <pt x="142" y="226" on="1"/>
        <pt x="142" y="1588" on="1"/>
        <pt x="842" y="1588" on="1"/>
        <pt x="842" y="226" on="1"/>
      </contour>
      <contour>
        <pt x="284" y="368" on="1"/>
        <pt x="700" y="368" on="1"/>
        <pt x="700" y="1447" on="1"/>
        <pt x="284" y="1447" on="1"/>
      </contour>
    </TTGlyph>
    <TTGlyph name="space" xMin="142" yMin="226" xMax="842" yMax="1588">
      <contour>
        <pt x="142" y="226" on="1"/>
        <pt x="142" y="1588" on="1"/>
        <pt x="842" y="1588" on="1"/>
        <pt x="842" y="226" on="1"/>
      </contour>
      <contour>
        <pt x="284" y="368" on="1"/>
        <pt x="700" y="368" on="1"/>
        <pt x="700" y="1447" on="1"/>
        <pt x="284" y="1447" on="1"/>
      </contour>
    </TTGlyph>
    <TTGlyph name="tchehfinalarabic" xMin="142" yMin="226" xMax="842" yMax="1588">
      <contour>
        <pt x="142" y="226" on="1"/>
        <pt x="142" y="1588" on="1"/>
        <pt x="842" y="1588" on="1"/>
        <pt x="842" y="226" on="1"/>
      </contour>
      <contour>
        <pt x="284" y="368" on="1"/>
        <pt x="700" y="368" on="1"/>
        <pt x="700" y="1447" on="1"/>
        <pt x="284" y="1447" on="1"/>
      </contour>
    </TTGlyph>
    <TTGlyph name="tchehinitialarabic" xMin="142" yMin="226" xMax="842" yMax="1588">
      <contour>
        <pt x="142" y="226" on="1"/>
        <pt x="142" y="1588" on="1"/>
        <pt x="842" y="1588" on="1"/>
        <pt x="842" y="226" on="1"/>
      </contour>
      <contour>
        <pt x="284" y="368" on="1"/>
        <pt x="700" y="368" on="1"/>
        <pt x="700" y="1447" on="1"/>
        <pt x="284" y="1447" on="1"/>
      </contour>
    </TTGlyph>
    <TTGlyph name="tchehmedialarabic" xMin="142" yMin="226" xMax="842" yMax="1588">
      <contour>
        <pt x="142" y="226" on="1"/>
        <pt x="142" y="1588" on="1"/>
        <pt x="842" y="1588" on="1"/>
        <pt x="842" y="226" on="1"/>
      </contour>
      <contour>
        <pt x="284" y="368" on="1"/>
        <pt x="700" y="368" on="1"/>
        <pt x="700" y="1447" on="1"/>
        <pt x="284" y="1447" on="1"/>
      </contour>
    </TTGlyph>
    <TTGlyph name="tehhahisolatedarabic" xMin="142" yMin="226" xMax="842" yMax="1588">
      <contour>
        <pt x="142" y="226" on="1"/>
        <pt x="142" y="1588" on="1"/>
        <pt x="842" y="1588" on="1"/>
        <pt x="842" y="226" on="1"/>
      </contour>
      <contour>
        <pt x="284" y="368" on="1"/>
        <pt x="700" y="368" on="1"/>
        <pt x="700" y="1447" on="1"/>
        <pt x="284" y="1447" on="1"/>
      </contour>
    </TTGlyph>
    <TTGlyph name="tehjeemisolatedarabic" xMin="142" yMin="226" xMax="842" yMax="1588">
      <contour>
        <pt x="142" y="226" on="1"/>
        <pt x="142" y="1588" on="1"/>
        <pt x="842" y="1588" on="1"/>
        <pt x="842" y="226" on="1"/>
      </contour>
      <contour>
        <pt x="284" y="368" on="1"/>
        <pt x="700" y="368" on="1"/>
        <pt x="700" y="1447" on="1"/>
        <pt x="284" y="1447" on="1"/>
      </contour>
    </TTGlyph>
    <TTGlyph name="tehmeemisolatedarabic" xMin="142" yMin="226" xMax="842" yMax="1588">
      <contour>
        <pt x="142" y="226" on="1"/>
        <pt x="142" y="1588" on="1"/>
        <pt x="842" y="1588" on="1"/>
        <pt x="842" y="226" on="1"/>
      </contour>
      <contour>
        <pt x="284" y="368" on="1"/>
        <pt x="700" y="368" on="1"/>
        <pt x="700" y="1447" on="1"/>
        <pt x="284" y="1447" on="1"/>
      </contour>
    </TTGlyph>
    <TTGlyph name="tehnoonfinalarabic" xMin="142" yMin="226" xMax="842" yMax="1588">
      <contour>
        <pt x="142" y="226" on="1"/>
        <pt x="142" y="1588" on="1"/>
        <pt x="842" y="1588" on="1"/>
        <pt x="842" y="226" on="1"/>
      </contour>
      <contour>
        <pt x="284" y="368" on="1"/>
        <pt x="700" y="368" on="1"/>
        <pt x="700" y="1447" on="1"/>
        <pt x="284" y="1447" on="1"/>
      </contour>
    </TTGlyph>
    <TTGlyph name="tehringfinal" xMin="142" yMin="226" xMax="842" yMax="1588">
      <contour>
        <pt x="142" y="226" on="1"/>
        <pt x="142" y="1588" on="1"/>
        <pt x="842" y="1588" on="1"/>
        <pt x="842" y="226" on="1"/>
      </contour>
      <contour>
        <pt x="284" y="368" on="1"/>
        <pt x="700" y="368" on="1"/>
        <pt x="700" y="1447" on="1"/>
        <pt x="284" y="1447" on="1"/>
      </contour>
    </TTGlyph>
    <TTGlyph name="tehringinitial" xMin="142" yMin="226" xMax="842" yMax="1588">
      <contour>
        <pt x="142" y="226" on="1"/>
        <pt x="142" y="1588" on="1"/>
        <pt x="842" y="1588" on="1"/>
        <pt x="842" y="226" on="1"/>
      </contour>
      <contour>
        <pt x="284" y="368" on="1"/>
        <pt x="700" y="368" on="1"/>
        <pt x="700" y="1447" on="1"/>
        <pt x="284" y="1447" on="1"/>
      </contour>
    </TTGlyph>
    <TTGlyph name="tehringmedial" xMin="142" yMin="226" xMax="842" yMax="1588">
      <contour>
        <pt x="142" y="226" on="1"/>
        <pt x="142" y="1588" on="1"/>
        <pt x="842" y="1588" on="1"/>
        <pt x="842" y="226" on="1"/>
      </contour>
      <contour>
        <pt x="284" y="368" on="1"/>
        <pt x="700" y="368" on="1"/>
        <pt x="700" y="1447" on="1"/>
        <pt x="284" y="1447" on="1"/>
      </contour>
    </TTGlyph>
    <TTGlyph name="ttehfinalarabic" xMin="142" yMin="226" xMax="842" yMax="1588">
      <contour>
        <pt x="142" y="226" on="1"/>
        <pt x="142" y="1588" on="1"/>
        <pt x="842" y="1588" on="1"/>
        <pt x="842" y="226" on="1"/>
      </contour>
      <contour>
        <pt x="284" y="368" on="1"/>
        <pt x="700" y="368" on="1"/>
        <pt x="700" y="1447" on="1"/>
        <pt x="284" y="1447" on="1"/>
      </contour>
    </TTGlyph>
    <TTGlyph name="ttehinitialarabic" xMin="142" yMin="226" xMax="842" yMax="1588">
      <contour>
        <pt x="142" y="226" on="1"/>
        <pt x="142" y="1588" on="1"/>
        <pt x="842" y="1588" on="1"/>
        <pt x="842" y="226" on="1"/>
      </contour>
      <contour>
        <pt x="284" y="368" on="1"/>
        <pt x="700" y="368" on="1"/>
        <pt x="700" y="1447" on="1"/>
        <pt x="284" y="1447" on="1"/>
      </contour>
    </TTGlyph>
    <TTGlyph name="ttehmedialarabic" xMin="142" yMin="226" xMax="842" yMax="1588">
      <contour>
        <pt x="142" y="226" on="1"/>
        <pt x="142" y="1588" on="1"/>
        <pt x="842" y="1588" on="1"/>
        <pt x="842" y="226" on="1"/>
      </contour>
      <contour>
        <pt x="284" y="368" on="1"/>
        <pt x="700" y="368" on="1"/>
        <pt x="700" y="1447" on="1"/>
        <pt x="284" y="1447" on="1"/>
      </contour>
    </TTGlyph>
    <TTGlyph name="uni000D" xMin="142" yMin="226" xMax="842" yMax="1588">
      <contour>
        <pt x="142" y="226" on="1"/>
        <pt x="142" y="1588" on="1"/>
        <pt x="842" y="1588" on="1"/>
        <pt x="842" y="226" on="1"/>
      </contour>
      <contour>
        <pt x="284" y="368" on="1"/>
        <pt x="700" y="368" on="1"/>
        <pt x="700" y="1447" on="1"/>
        <pt x="284" y="1447" on="1"/>
      </contour>
    </TTGlyph>
    <TTGlyph name="uni00A0" xMin="142" yMin="226" xMax="842" yMax="1588">
      <contour>
        <pt x="142" y="226" on="1"/>
        <pt x="142" y="1588" on="1"/>
        <pt x="842" y="1588" on="1"/>
        <pt x="842" y="226" on="1"/>
      </contour>
      <contour>
        <pt x="284" y="368" on="1"/>
        <pt x="700" y="368" on="1"/>
        <pt x="700" y="1447" on="1"/>
        <pt x="284" y="1447" on="1"/>
      </contour>
    </TTGlyph>
    <TTGlyph name="uni00AD" xMin="142" yMin="226" xMax="842" yMax="1588">
      <contour>
        <pt x="142" y="226" on="1"/>
        <pt x="142" y="1588" on="1"/>
        <pt x="842" y="1588" on="1"/>
        <pt x="842" y="226" on="1"/>
      </contour>
      <contour>
        <pt x="284" y="368" on="1"/>
        <pt x="700" y="368" on="1"/>
        <pt x="700" y="1447" on="1"/>
        <pt x="284" y="1447" on="1"/>
      </contour>
    </TTGlyph>
    <TTGlyph name="uni0653" xMin="142" yMin="226" xMax="842" yMax="1588">
      <contour>
        <pt x="142" y="226" on="1"/>
        <pt x="142" y="1588" on="1"/>
        <pt x="842" y="1588" on="1"/>
        <pt x="842" y="226" on="1"/>
      </contour>
      <contour>
        <pt x="284" y="368" on="1"/>
        <pt x="700" y="368" on="1"/>
        <pt x="700" y="1447" on="1"/>
        <pt x="284" y="1447" on="1"/>
      </contour>
    </TTGlyph>
    <TTGlyph name="uni0654" xMin="142" yMin="226" xMax="842" yMax="1588">
      <contour>
        <pt x="142" y="226" on="1"/>
        <pt x="142" y="1588" on="1"/>
        <pt x="842" y="1588" on="1"/>
        <pt x="842" y="226" on="1"/>
      </contour>
      <contour>
        <pt x="284" y="368" on="1"/>
        <pt x="700" y="368" on="1"/>
        <pt x="700" y="1447" on="1"/>
        <pt x="284" y="1447" on="1"/>
      </contour>
    </TTGlyph>
    <TTGlyph name="uni0655" xMin="142" yMin="226" xMax="842" yMax="1588">
      <contour>
        <pt x="142" y="226" on="1"/>
        <pt x="142" y="1588" on="1"/>
        <pt x="842" y="1588" on="1"/>
        <pt x="842" y="226" on="1"/>
      </contour>
      <contour>
        <pt x="284" y="368" on="1"/>
        <pt x="700" y="368" on="1"/>
        <pt x="700" y="1447" on="1"/>
        <pt x="284" y="1447" on="1"/>
      </contour>
    </TTGlyph>
    <TTGlyph name="uni066B" xMin="142" yMin="226" xMax="842" yMax="1588">
      <contour>
        <pt x="142" y="226" on="1"/>
        <pt x="142" y="1588" on="1"/>
        <pt x="842" y="1588" on="1"/>
        <pt x="842" y="226" on="1"/>
      </contour>
      <contour>
        <pt x="284" y="368" on="1"/>
        <pt x="700" y="368" on="1"/>
        <pt x="700" y="1447" on="1"/>
        <pt x="284" y="1447" on="1"/>
      </contour>
    </TTGlyph>
    <TTGlyph name="uni066C" xMin="142" yMin="226" xMax="842" yMax="1588">
      <contour>
        <pt x="142" y="226" on="1"/>
        <pt x="142" y="1588" on="1"/>
        <pt x="842" y="1588" on="1"/>
        <pt x="842" y="226" on="1"/>
      </contour>
      <contour>
        <pt x="284" y="368" on="1"/>
        <pt x="700" y="368" on="1"/>
        <pt x="700" y="1447" on="1"/>
        <pt x="284" y="1447" on="1"/>
      </contour>
    </TTGlyph>
    <TTGlyph name="uni0671" xMin="142" yMin="226" xMax="842" yMax="1588">
      <contour>
        <pt x="142" y="226" on="1"/>
        <pt x="142" y="1588" on="1"/>
        <pt x="842" y="1588" on="1"/>
        <pt x="842" y="226" on="1"/>
      </contour>
      <contour>
        <pt x="284" y="368" on="1"/>
        <pt x="700" y="368" on="1"/>
        <pt x="700" y="1447" on="1"/>
        <pt x="284" y="1447" on="1"/>
      </contour>
    </TTGlyph>
    <TTGlyph name="uni067C" xMin="142" yMin="226" xMax="842" yMax="1588">
      <contour>
        <pt x="142" y="226" on="1"/>
        <pt x="142" y="1588" on="1"/>
        <pt x="842" y="1588" on="1"/>
        <pt x="842" y="226" on="1"/>
      </contour>
      <contour>
        <pt x="284" y="368" on="1"/>
        <pt x="700" y="368" on="1"/>
        <pt x="700" y="1447" on="1"/>
        <pt x="284" y="1447" on="1"/>
      </contour>
    </TTGlyph>
    <TTGlyph name="uni0681" xMin="142" yMin="226" xMax="842" yMax="1588">
      <contour>
        <pt x="142" y="226" on="1"/>
        <pt x="142" y="1588" on="1"/>
        <pt x="842" y="1588" on="1"/>
        <pt x="842" y="226" on="1"/>
      </contour>
      <contour>
        <pt x="284" y="368" on="1"/>
        <pt x="700" y="368" on="1"/>
        <pt x="700" y="1447" on="1"/>
        <pt x="284" y="1447" on="1"/>
      </contour>
    </TTGlyph>
    <TTGlyph name="uni0685" xMin="142" yMin="226" xMax="842" yMax="1588">
      <contour>
        <pt x="142" y="226" on="1"/>
        <pt x="142" y="1588" on="1"/>
        <pt x="842" y="1588" on="1"/>
        <pt x="842" y="226" on="1"/>
      </contour>
      <contour>
        <pt x="284" y="368" on="1"/>
        <pt x="700" y="368" on="1"/>
        <pt x="700" y="1447" on="1"/>
        <pt x="284" y="1447" on="1"/>
      </contour>
    </TTGlyph>
    <TTGlyph name="uni0689" xMin="142" yMin="226" xMax="842" yMax="1588">
      <contour>
        <pt x="142" y="226" on="1"/>
        <pt x="142" y="1588" on="1"/>
        <pt x="842" y="1588" on="1"/>
        <pt x="842" y="226" on="1"/>
      </contour>
      <contour>
        <pt x="284" y="368" on="1"/>
        <pt x="700" y="368" on="1"/>
        <pt x="700" y="1447" on="1"/>
        <pt x="284" y="1447" on="1"/>
      </contour>
    </TTGlyph>
    <TTGlyph name="uni0693" xMin="142" yMin="226" xMax="842" yMax="1588">
      <contour>
        <pt x="142" y="226" on="1"/>
        <pt x="142" y="1588" on="1"/>
        <pt x="842" y="1588" on="1"/>
        <pt x="842" y="226" on="1"/>
      </contour>
      <contour>
        <pt x="284" y="368" on="1"/>
        <pt x="700" y="368" on="1"/>
        <pt x="700" y="1447" on="1"/>
        <pt x="284" y="1447" on="1"/>
      </contour>
    </TTGlyph>
    <TTGlyph name="uni0696" xMin="142" yMin="226" xMax="842" yMax="1588">
      <contour>
        <pt x="142" y="226" on="1"/>
        <pt x="142" y="1588" on="1"/>
        <pt x="842" y="1588" on="1"/>
        <pt x="842" y="226" on="1"/>
      </contour>
      <contour>
        <pt x="284" y="368" on="1"/>
        <pt x="700" y="368" on="1"/>
        <pt x="700" y="1447" on="1"/>
        <pt x="284" y="1447" on="1"/>
      </contour>
    </TTGlyph>
    <TTGlyph name="uni069A" xMin="142" yMin="226" xMax="842" yMax="1588">
      <contour>
        <pt x="142" y="226" on="1"/>
        <pt x="142" y="1588" on="1"/>
        <pt x="842" y="1588" on="1"/>
        <pt x="842" y="226" on="1"/>
      </contour>
      <contour>
        <pt x="284" y="368" on="1"/>
        <pt x="700" y="368" on="1"/>
        <pt x="700" y="1447" on="1"/>
        <pt x="284" y="1447" on="1"/>
      </contour>
    </TTGlyph>
    <TTGlyph name="uni06A9" xMin="142" yMin="226" xMax="842" yMax="1588">
      <contour>
        <pt x="142" y="226" on="1"/>
        <pt x="142" y="1588" on="1"/>
        <pt x="842" y="1588" on="1"/>
        <pt x="842" y="226" on="1"/>
      </contour>
      <contour>
        <pt x="284" y="368" on="1"/>
        <pt x="700" y="368" on="1"/>
        <pt x="700" y="1447" on="1"/>
        <pt x="284" y="1447" on="1"/>
      </contour>
    </TTGlyph>
    <TTGlyph name="uni06AB" xMin="142" yMin="226" xMax="842" yMax="1588">
      <contour>
        <pt x="142" y="226" on="1"/>
        <pt x="142" y="1588" on="1"/>
        <pt x="842" y="1588" on="1"/>
        <pt x="842" y="226" on="1"/>
      </contour>
      <contour>
        <pt x="284" y="368" on="1"/>
        <pt x="700" y="368" on="1"/>
        <pt x="700" y="1447" on="1"/>
        <pt x="284" y="1447" on="1"/>
      </contour>
    </TTGlyph>
    <TTGlyph name="uni06B7" xMin="142" yMin="226" xMax="842" yMax="1588">
      <contour>
        <pt x="142" y="226" on="1"/>
        <pt x="142" y="1588" on="1"/>
        <pt x="842" y="1588" on="1"/>
        <pt x="842" y="226" on="1"/>
      </contour>
      <contour>
        <pt x="284" y="368" on="1"/>
        <pt x="700" y="368" on="1"/>
        <pt x="700" y="1447" on="1"/>
        <pt x="284" y="1447" on="1"/>
      </contour>
    </TTGlyph>
    <TTGlyph name="uni06BC" xMin="142" yMin="226" xMax="842" yMax="1588">
      <contour>
        <pt x="142" y="226" on="1"/>
        <pt x="142" y="1588" on="1"/>
        <pt x="842" y="1588" on="1"/>
        <pt x="842" y="226" on="1"/>
      </contour>
      <contour>
        <pt x="284" y="368" on="1"/>
        <pt x="700" y="368" on="1"/>
        <pt x="700" y="1447" on="1"/>
        <pt x="284" y="1447" on="1"/>
      </contour>
    </TTGlyph>
    <TTGlyph name="uni06BE" xMin="142" yMin="226" xMax="842" yMax="1588">
      <contour>
        <pt x="142" y="226" on="1"/>
        <pt x="142" y="1588" on="1"/>
        <pt x="842" y="1588" on="1"/>
        <pt x="842" y="226" on="1"/>
      </contour>
      <contour>
        <pt x="284" y="368" on="1"/>
        <pt x="700" y="368" on="1"/>
        <pt x="700" y="1447" on="1"/>
        <pt x="284" y="1447" on="1"/>
      </contour>
    </TTGlyph>
    <TTGlyph name="uni06C2" xMin="142" yMin="226" xMax="842" yMax="1588">
      <contour>
        <pt x="142" y="226" on="1"/>
        <pt x="142" y="1588" on="1"/>
        <pt x="842" y="1588" on="1"/>
        <pt x="842" y="226" on="1"/>
      </contour>
      <contour>
        <pt x="284" y="368" on="1"/>
        <pt x="700" y="368" on="1"/>
        <pt x="700" y="1447" on="1"/>
        <pt x="284" y="1447" on="1"/>
      </contour>
    </TTGlyph>
    <TTGlyph name="uni06C7" xMin="142" yMin="226" xMax="842" yMax="1588">
      <contour>
        <pt x="142" y="226" on="1"/>
        <pt x="142" y="1588" on="1"/>
        <pt x="842" y="1588" on="1"/>
        <pt x="842" y="226" on="1"/>
      </contour>
      <contour>
        <pt x="284" y="368" on="1"/>
        <pt x="700" y="368" on="1"/>
        <pt x="700" y="1447" on="1"/>
        <pt x="284" y="1447" on="1"/>
      </contour>
    </TTGlyph>
    <TTGlyph name="uni06C9" xMin="142" yMin="226" xMax="842" yMax="1588">
      <contour>
        <pt x="142" y="226" on="1"/>
        <pt x="142" y="1588" on="1"/>
        <pt x="842" y="1588" on="1"/>
        <pt x="842" y="226" on="1"/>
      </contour>
      <contour>
        <pt x="284" y="368" on="1"/>
        <pt x="700" y="368" on="1"/>
        <pt x="700" y="1447" on="1"/>
        <pt x="284" y="1447" on="1"/>
      </contour>
    </TTGlyph>
    <TTGlyph name="uni06CC" xMin="142" yMin="226" xMax="842" yMax="1588">
      <contour>
        <pt x="142" y="226" on="1"/>
        <pt x="142" y="1588" on="1"/>
        <pt x="842" y="1588" on="1"/>
        <pt x="842" y="226" on="1"/>
      </contour>
      <contour>
        <pt x="284" y="368" on="1"/>
        <pt x="700" y="368" on="1"/>
        <pt x="700" y="1447" on="1"/>
        <pt x="284" y="1447" on="1"/>
      </contour>
    </TTGlyph>
    <TTGlyph name="uni06CD" xMin="142" yMin="226" xMax="842" yMax="1588">
      <contour>
        <pt x="142" y="226" on="1"/>
        <pt x="142" y="1588" on="1"/>
        <pt x="842" y="1588" on="1"/>
        <pt x="842" y="226" on="1"/>
      </contour>
      <contour>
        <pt x="284" y="368" on="1"/>
        <pt x="700" y="368" on="1"/>
        <pt x="700" y="1447" on="1"/>
        <pt x="284" y="1447" on="1"/>
      </contour>
    </TTGlyph>
    <TTGlyph name="uni06D0" xMin="142" yMin="226" xMax="842" yMax="1588">
      <contour>
        <pt x="142" y="226" on="1"/>
        <pt x="142" y="1588" on="1"/>
        <pt x="842" y="1588" on="1"/>
        <pt x="842" y="226" on="1"/>
      </contour>
      <contour>
        <pt x="284" y="368" on="1"/>
        <pt x="700" y="368" on="1"/>
        <pt x="700" y="1447" on="1"/>
        <pt x="284" y="1447" on="1"/>
      </contour>
    </TTGlyph>
    <TTGlyph name="uni06D1" xMin="142" yMin="226" xMax="842" yMax="1588">
      <contour>
        <pt x="142" y="226" on="1"/>
        <pt x="142" y="1588" on="1"/>
        <pt x="842" y="1588" on="1"/>
        <pt x="842" y="226" on="1"/>
      </contour>
      <contour>
        <pt x="284" y="368" on="1"/>
        <pt x="700" y="368" on="1"/>
        <pt x="700" y="1447" on="1"/>
        <pt x="284" y="1447" on="1"/>
      </contour>
    </TTGlyph>
    <TTGlyph name="uni06D3" xMin="142" yMin="226" xMax="842" yMax="1588">
      <contour>
        <pt x="142" y="226" on="1"/>
        <pt x="142" y="1588" on="1"/>
        <pt x="842" y="1588" on="1"/>
        <pt x="842" y="226" on="1"/>
      </contour>
      <contour>
        <pt x="284" y="368" on="1"/>
        <pt x="700" y="368" on="1"/>
        <pt x="700" y="1447" on="1"/>
        <pt x="284" y="1447" on="1"/>
      </contour>
    </TTGlyph>
    <TTGlyph name="uni06D4" xMin="142" yMin="226" xMax="842" yMax="1588">
      <contour>
        <pt x="142" y="226" on="1"/>
        <pt x="142" y="1588" on="1"/>
        <pt x="842" y="1588" on="1"/>
        <pt x="842" y="226" on="1"/>
      </contour>
      <contour>
        <pt x="284" y="368" on="1"/>
        <pt x="700" y="368" on="1"/>
        <pt x="700" y="1447" on="1"/>
        <pt x="284" y="1447" on="1"/>
      </contour>
    </TTGlyph>
    <TTGlyph name="uni06F0" xMin="142" yMin="226" xMax="842" yMax="1588">
      <contour>
        <pt x="142" y="226" on="1"/>
        <pt x="142" y="1588" on="1"/>
        <pt x="842" y="1588" on="1"/>
        <pt x="842" y="226" on="1"/>
      </contour>
      <contour>
        <pt x="284" y="368" on="1"/>
        <pt x="700" y="368" on="1"/>
        <pt x="700" y="1447" on="1"/>
        <pt x="284" y="1447" on="1"/>
      </contour>
    </TTGlyph>
    <TTGlyph name="uni06F1" xMin="142" yMin="226" xMax="842" yMax="1588">
      <contour>
        <pt x="142" y="226" on="1"/>
        <pt x="142" y="1588" on="1"/>
        <pt x="842" y="1588" on="1"/>
        <pt x="842" y="226" on="1"/>
      </contour>
      <contour>
        <pt x="284" y="368" on="1"/>
        <pt x="700" y="368" on="1"/>
        <pt x="700" y="1447" on="1"/>
        <pt x="284" y="1447" on="1"/>
      </contour>
    </TTGlyph>
    <TTGlyph name="uni06F2" xMin="142" yMin="226" xMax="842" yMax="1588">
      <contour>
        <pt x="142" y="226" on="1"/>
        <pt x="142" y="1588" on="1"/>
        <pt x="842" y="1588" on="1"/>
        <pt x="842" y="226" on="1"/>
      </contour>
      <contour>
        <pt x="284" y="368" on="1"/>
        <pt x="700" y="368" on="1"/>
        <pt x="700" y="1447" on="1"/>
        <pt x="284" y="1447" on="1"/>
      </contour>
    </TTGlyph>
    <TTGlyph name="uni06F3" xMin="142" yMin="226" xMax="842" yMax="1588">
      <contour>
        <pt x="142" y="226" on="1"/>
        <pt x="142" y="1588" on="1"/>
        <pt x="842" y="1588" on="1"/>
        <pt x="842" y="226" on="1"/>
      </contour>
      <contour>
        <pt x="284" y="368" on="1"/>
        <pt x="700" y="368" on="1"/>
        <pt x="700" y="1447" on="1"/>
        <pt x="284" y="1447" on="1"/>
      </contour>
    </TTGlyph>
    <TTGlyph name="uni06F4" xMin="142" yMin="226" xMax="842" yMax="1588">
      <contour>
        <pt x="142" y="226" on="1"/>
        <pt x="142" y="1588" on="1"/>
        <pt x="842" y="1588" on="1"/>
        <pt x="842" y="226" on="1"/>
      </contour>
      <contour>
        <pt x="284" y="368" on="1"/>
        <pt x="700" y="368" on="1"/>
        <pt x="700" y="1447" on="1"/>
        <pt x="284" y="1447" on="1"/>
      </contour>
    </TTGlyph>
    <TTGlyph name="uni06F5" xMin="142" yMin="226" xMax="842" yMax="1588">
      <contour>
        <pt x="142" y="226" on="1"/>
        <pt x="142" y="1588" on="1"/>
        <pt x="842" y="1588" on="1"/>
        <pt x="842" y="226" on="1"/>
      </contour>
      <contour>
        <pt x="284" y="368" on="1"/>
        <pt x="700" y="368" on="1"/>
        <pt x="700" y="1447" on="1"/>
        <pt x="284" y="1447" on="1"/>
      </contour>
    </TTGlyph>
    <TTGlyph name="uni06F6" xMin="142" yMin="226" xMax="842" yMax="1588">
      <contour>
        <pt x="142" y="226" on="1"/>
        <pt x="142" y="1588" on="1"/>
        <pt x="842" y="1588" on="1"/>
        <pt x="842" y="226" on="1"/>
      </contour>
      <contour>
        <pt x="284" y="368" on="1"/>
        <pt x="700" y="368" on="1"/>
        <pt x="700" y="1447" on="1"/>
        <pt x="284" y="1447" on="1"/>
      </contour>
    </TTGlyph>
    <TTGlyph name="uni06F7" xMin="142" yMin="226" xMax="842" yMax="1588">
      <contour>
        <pt x="142" y="226" on="1"/>
        <pt x="142" y="1588" on="1"/>
        <pt x="842" y="1588" on="1"/>
        <pt x="842" y="226" on="1"/>
      </contour>
      <contour>
        <pt x="284" y="368" on="1"/>
        <pt x="700" y="368" on="1"/>
        <pt x="700" y="1447" on="1"/>
        <pt x="284" y="1447" on="1"/>
      </contour>
    </TTGlyph>
    <TTGlyph name="uni06F8" xMin="142" yMin="226" xMax="842" yMax="1588">
      <contour>
        <pt x="142" y="226" on="1"/>
        <pt x="142" y="1588" on="1"/>
        <pt x="842" y="1588" on="1"/>
        <pt x="842" y="226" on="1"/>
      </contour>
      <contour>
        <pt x="284" y="368" on="1"/>
        <pt x="700" y="368" on="1"/>
        <pt x="700" y="1447" on="1"/>
        <pt x="284" y="1447" on="1"/>
      </contour>
    </TTGlyph>
    <TTGlyph name="uni06F9" xMin="142" yMin="226" xMax="842" yMax="1588">
      <contour>
        <pt x="142" y="226" on="1"/>
        <pt x="142" y="1588" on="1"/>
        <pt x="842" y="1588" on="1"/>
        <pt x="842" y="226" on="1"/>
      </contour>
      <contour>
        <pt x="284" y="368" on="1"/>
        <pt x="700" y="368" on="1"/>
        <pt x="700" y="1447" on="1"/>
        <pt x="284" y="1447" on="1"/>
      </contour>
    </TTGlyph>
    <TTGlyph name="uni2010" xMin="261" yMin="-688" xMax="3415" yMax="1502">
      <contour>
        <pt x="3159" y="1406" on="1"/>
        <pt x="3159" y="1363" on="0"/>
        <pt x="3044" y="1291" on="1"/>
        <pt x="2982" y="1257" on="0"/>
        <pt x="2921" y="1223" on="1"/>
        <pt x="2852" y="1179" on="0"/>
        <pt x="2723" y="1114" on="1"/>
        <pt x="2715" y="1119" on="0"/>
        <pt x="2698" y="1129" on="0"/>
        <pt x="2698" y="1144" on="1"/>
        <pt x="2698" y="1197" on="0"/>
        <pt x="2898" y="1315" on="1"/>
        <pt x="3054" y="1406" on="0"/>
        <pt x="3145" y="1441" on="1"/>
        <pt x="3159" y="1427" on="0"/>
      </contour>
      <contour>
        <pt x="2668" y="1461" on="1"/>
        <pt x="2668" y="1432" on="0"/>
        <pt x="2610" y="1392" on="1"/>
        <pt x="2566" y="1364" on="0"/>
        <pt x="2522" y="1336" on="1"/>
        <pt x="2400" y="1256" on="0"/>
        <pt x="2358" y="1231" on="1"/>
        <pt x="2275" y="1182" on="0"/>
        <pt x="2198" y="1156" on="1"/>
        <pt x="2198" y="1159" on="0"/>
        <pt x="2186" y="1181" on="0"/>
        <pt x="2186" y="1196" on="1"/>
        <pt x="2186" y="1244" on="0"/>
        <pt x="2381" y="1362" on="1"/>
        <pt x="2506" y="1432" on="0"/>
        <pt x="2633" y="1502" on="1"/>
        <pt x="2643" y="1495" on="0"/>
        <pt x="2654" y="1488" on="1"/>
        <pt x="2668" y="1478" on="0"/>
      </contour>
      <contour>
        <pt x="2964" y="668" on="1"/>
        <pt x="2964" y="640" on="0"/>
        <pt x="2929" y="609" on="1"/>
        <pt x="2897" y="582" on="0"/>
        <pt x="2878" y="582" on="1"/>
        <pt x="2849" y="582" on="0"/>
        <pt x="2750" y="656" on="1"/>
        <pt x="2750" y="684" on="0"/>
        <pt x="2792" y="721" on="1"/>
        <pt x="2831" y="755" on="0"/>
        <pt x="2851" y="755" on="1"/>
        <pt x="2878" y="755" on="0"/>
        <pt x="2964" y="691" on="0"/>
      </contour>
      <contour>
        <pt x="2135" y="1349" on="1"/>
        <pt x="2135" y="1309" on="0"/>
        <pt x="2020" y="1234" on="1"/>
        <pt x="1914" y="1165" on="0"/>
        <pt x="1893" y="1165" on="1"/>
        <pt x="1831" y="1165" on="1"/>
        <pt x="1818" y="1178" on="1"/>
        <pt x="1818" y="1215" on="1"/>
        <pt x="1854" y="1240" on="0"/>
        <pt x="1921" y="1285" on="1"/>
        <pt x="1926" y="1318" on="0"/>
        <pt x="1890" y="1318" on="1"/>
        <pt x="1875" y="1318" on="0"/>
        <pt x="1824" y="1290" on="1"/>
        <pt x="1759" y="1255" on="0"/>
        <pt x="1739" y="1247" on="1"/>
        <pt x="1726" y="1248" on="0"/>
        <pt x="1726" y="1272" on="1"/>
        <pt x="1726" y="1325" on="0"/>
        <pt x="1810" y="1381" on="1"/>
        <pt x="1885" y="1431" on="0"/>
        <pt x="1925" y="1431" on="1"/>
        <pt x="1939" y="1431" on="0"/>
        <pt x="2011" y="1414" on="1"/>
        <pt x="2095" y="1393" on="0"/>
        <pt x="2124" y="1389" on="1"/>
        <pt x="2124" y="1385" on="0"/>
        <pt x="2135" y="1364" on="0"/>
      </contour>
      <contour>
        <pt x="2125" y="801" on="1"/>
        <pt x="2125" y="775" on="0"/>
        <pt x="2059" y="705" on="0"/>
        <pt x="2038" y="705" on="1"/>
        <pt x="2026" y="705" on="0"/>
        <pt x="1964" y="735" on="0"/>
        <pt x="1951" y="735" on="1"/>
        <pt x="1938" y="735" on="0"/>
        <pt x="1876" y="684" on="0"/>
        <pt x="1863" y="684" on="1"/>
        <pt x="1843" y="684" on="0"/>
        <pt x="1756" y="744" on="0"/>
        <pt x="1756" y="760" on="1"/>
        <pt x="1756" y="786" on="0"/>
        <pt x="1828" y="858" on="0"/>
        <pt x="1854" y="858" on="1"/>
        <pt x="1865" y="858" on="0"/>
        <pt x="1917" y="827" on="0"/>
        <pt x="1931" y="827" on="1"/>
        <pt x="1941" y="827" on="0"/>
        <pt x="2001" y="889" on="0"/>
        <pt x="2017" y="889" on="1"/>
        <pt x="2039" y="889" on="0"/>
        <pt x="2125" y="822" on="0"/>
      </contour>
      <contour>
        <pt x="1592" y="1375" on="1"/>
        <pt x="1592" y="1329" on="0"/>
        <pt x="1521" y="1284" on="1"/>
        <pt x="1473" y="1258" on="0"/>
        <pt x="1426" y="1234" on="1"/>
        <pt x="1412" y="1225" on="0"/>
        <pt x="1169" y="1073" on="1"/>
        <pt x="1134" y="1073" on="1"/>
        <pt x="1121" y="1086" on="0"/>
        <pt x="1121" y="1108" on="1"/>
        <pt x="1121" y="1158" on="0"/>
        <pt x="1147" y="1175" on="1"/>
        <pt x="1374" y="1319" on="0"/>
        <pt x="1545" y="1411" on="1"/>
        <pt x="1579" y="1411" on="1"/>
        <pt x="1592" y="1397" on="0"/>
      </contour>
      <contour>
        <pt x="3415" y="223" on="1"/>
        <pt x="3415" y="199" on="0"/>
        <pt x="3394" y="164" on="1"/>
        <pt x="3371" y="125" on="0"/>
        <pt x="3349" y="123" on="1"/>
        <pt x="3272" y="120" on="0"/>
        <pt x="3194" y="117" on="1"/>
        <pt x="3101" y="114" on="0"/>
        <pt x="3042" y="97" on="1"/>
        <pt x="3040" y="96" on="0"/>
        <pt x="2859" y="24" on="1"/>
        <pt x="2767" y="-12" on="0"/>
        <pt x="2652" y="-12" on="1"/>
        <pt x="2574" y="-12" on="0"/>
        <pt x="2536" y="7" on="1"/>
        <pt x="2511" y="18" on="0"/>
        <pt x="2437" y="79" on="1"/>
        <pt x="2387" y="48" on="0"/>
        <pt x="2338" y="15" on="1"/>
        <pt x="2272" y="-22" on="0"/>
        <pt x="2221" y="-22" on="1"/>
        <pt x="2193" y="-22" on="1"/>
        <pt x="2180" y="-22" on="0"/>
        <pt x="1943" y="29" on="0"/>
        <pt x="1931" y="29" on="1"/>
        <pt x="1917" y="29" on="0"/>
        <pt x="1884" y="16" on="1"/>
        <pt x="1843" y="2" on="0"/>
        <pt x="1834" y="1" on="1"/>
        <pt x="1775" y="-12" on="0"/>
        <pt x="1654" y="-12" on="1"/>
        <pt x="1643" y="-12" on="0"/>
        <pt x="1555" y="49" on="0"/>
        <pt x="1541" y="49" on="1"/>
        <pt x="1528" y="49" on="0"/>
        <pt x="1505" y="29" on="1"/>
        <pt x="1476" y="5" on="0"/>
        <pt x="1466" y="1" on="1"/>
        <pt x="1387" y="-32" on="0"/>
        <pt x="1296" y="-32" on="1"/>
        <pt x="1191" y="-32" on="0"/>
        <pt x="1124" y="12" on="1"/>
        <pt x="1088" y="37" on="0"/>
        <pt x="1044" y="96" on="1"/>
        <pt x="1011" y="141" on="0"/>
        <pt x="988" y="141" on="1"/>
        <pt x="961" y="141" on="0"/>
        <pt x="902" y="83" on="1"/>
        <pt x="845" y="27" on="0"/>
        <pt x="845" y="13" on="1"/>
        <pt x="845" y="-39" on="0"/>
        <pt x="978" y="-44" on="1"/>
        <pt x="1138" y="-49" on="0"/>
        <pt x="1154" y="-60" on="1"/>
        <pt x="1203" y="-93" on="0"/>
        <pt x="1203" y="-145" on="1"/>
        <pt x="1203" y="-294" on="0"/>
        <pt x="955" y="-396" on="1"/>
        <pt x="766" y="-473" on="0"/>
        <pt x="635" y="-473" on="1"/>
        <pt x="481" y="-473" on="0"/>
        <pt x="377" y="-398" on="1"/>
        <pt x="342" y="-373" on="0"/>
        <pt x="303" y="-303" on="1"/>
        <pt x="261" y="-228" on="0"/>
        <pt x="261" y="-181" on="1"/>
        <pt x="261" y="-50" on="0"/>
        <pt x="387" y="109" on="1"/>
        <pt x="424" y="109" on="1"/>
        <pt x="424" y="106" on="0"/>
        <pt x="435" y="94" on="0"/>
        <pt x="435" y="79" on="1"/>
        <pt x="435" y="70" on="0"/>
        <pt x="363" y="-86" on="0"/>
        <pt x="363" y="-104" on="1"/>
        <pt x="363" y="-205" on="0"/>
        <pt x="474" y="-274" on="1"/>
        <pt x="563" y="-330" on="0"/>
        <pt x="640" y="-330" on="1"/>
        <pt x="697" y="-330" on="1"/>
        <pt x="744" y="-330" on="0"/>
        <pt x="880" y="-290" on="1"/>
        <pt x="1034" y="-245" on="0"/>
        <pt x="1050" y="-208" on="1"/>
        <pt x="961" y="-192" on="0"/>
        <pt x="871" y="-176" on="1"/>
        <pt x="732" y="-144" on="0"/>
        <pt x="732" y="-78" on="1"/>
        <pt x="732" y="15" on="0"/>
        <pt x="861" y="153" on="1"/>
        <pt x="983" y="284" on="0"/>
        <pt x="1045" y="284" on="1"/>
        <pt x="1055" y="284" on="0"/>
        <pt x="1249" y="111" on="0"/>
        <pt x="1346" y="111" on="1"/>
        <pt x="1423" y="111" on="0"/>
        <pt x="1492" y="153" on="1"/>
        <pt x="1520" y="188" on="0"/>
        <pt x="1589" y="243" on="1"/>
        <pt x="1595" y="213" on="0"/>
        <pt x="1631" y="163" on="1"/>
        <pt x="1681" y="131" on="0"/>
        <pt x="1736" y="131" on="1"/>
        <pt x="1778" y="131" on="0"/>
        <pt x="1814" y="159" on="1"/>
        <pt x="1807" y="257" on="0"/>
        <pt x="1964" y="489" on="0"/>
        <pt x="2043" y="489" on="1"/>
        <pt x="2166" y="489" on="0"/>
        <pt x="2166" y="330" on="1"/>
        <pt x="2166" y="242" on="0"/>
        <pt x="2125" y="175" on="1"/>
        <pt x="2125" y="149" on="1"/>
        <pt x="2178" y="131" on="0"/>
        <pt x="2212" y="131" on="1"/>
        <pt x="2272" y="131" on="0"/>
        <pt x="2337" y="154" on="1"/>
        <pt x="2422" y="184" on="0"/>
        <pt x="2422" y="233" on="1"/>
        <pt x="2350" y="868" on="1"/>
        <pt x="2350" y="924" on="0"/>
        <pt x="2384" y="990" on="1"/>
        <pt x="2420" y="990" on="1"/>
        <pt x="2451" y="880" on="0"/>
        <pt x="2475" y="607" on="1"/>
        <pt x="2499" y="348" on="0"/>
        <pt x="2500" y="339" on="1"/>
        <pt x="2521" y="193" on="0"/>
        <pt x="2570" y="161" on="1"/>
        <pt x="2621" y="224" on="0"/>
        <pt x="2672" y="288" on="1"/>
        <pt x="2754" y="387" on="0"/>
        <pt x="2801" y="387" on="1"/>
        <pt x="2801" y="387" on="0"/>
        <pt x="3073" y="287" on="1"/>
        <pt x="3177" y="248" on="0"/>
        <pt x="3401" y="253" on="1"/>
        <pt x="3403" y="252" on="0"/>
        <pt x="3403" y="251" on="1"/>
        <pt x="3415" y="241" on="0"/>
      </contour>
      <contour>
        <pt x="1572" y="473" on="1"/>
        <pt x="1572" y="441" on="0"/>
        <pt x="1511" y="387" on="0"/>
        <pt x="1480" y="387" on="1"/>
        <pt x="1461" y="387" on="0"/>
        <pt x="1378" y="446" on="0"/>
        <pt x="1378" y="464" on="1"/>
        <pt x="1378" y="475" on="0"/>
        <pt x="1419" y="534" on="0"/>
        <pt x="1419" y="546" on="1"/>
        <pt x="1419" y="571" on="0"/>
        <pt x="1360" y="604" on="1"/>
        <pt x="1357" y="618" on="0"/>
        <pt x="1357" y="637" on="1"/>
        <pt x="1357" y="659" on="0"/>
        <pt x="1374" y="691" on="1"/>
        <pt x="1396" y="735" on="0"/>
        <pt x="1428" y="735" on="1"/>
        <pt x="1459" y="735" on="0"/>
        <pt x="1496" y="701" on="1"/>
        <pt x="1531" y="671" on="0"/>
        <pt x="1531" y="653" on="1"/>
        <pt x="1531" y="614" on="0"/>
        <pt x="1490" y="576" on="1"/>
        <pt x="1496" y="567" on="0"/>
        <pt x="1539" y="523" on="1"/>
        <pt x="1572" y="488" on="0"/>
      </contour>
      <contour>
        <pt x="947" y="566" on="1"/>
        <pt x="947" y="538" on="0"/>
        <pt x="889" y="469" on="0"/>
        <pt x="875" y="469" on="1"/>
        <pt x="857" y="469" on="0"/>
        <pt x="817" y="494" on="1"/>
        <pt x="773" y="522" on="0"/>
        <pt x="773" y="546" on="1"/>
        <pt x="773" y="572" on="0"/>
        <pt x="799" y="605" on="1"/>
        <pt x="827" y="643" on="0"/>
        <pt x="855" y="643" on="1"/>
        <pt x="895" y="643" on="0"/>
        <pt x="923" y="615" on="1"/>
        <pt x="947" y="591" on="0"/>
      </contour>
      <contour>
        <pt x="1265" y="-447" on="1"/>
        <pt x="1265" y="-489" on="0"/>
        <pt x="1068" y="-593" on="1"/>
        <pt x="884" y="-688" on="0"/>
        <pt x="859" y="-688" on="1"/>
        <pt x="816" y="-688" on="1"/>
        <pt x="804" y="-686" on="0"/>
        <pt x="804" y="-662" on="1"/>
        <pt x="804" y="-599" on="0"/>
        <pt x="830" y="-586" on="1"/>
        <pt x="957" y="-530" on="0"/>
        <pt x="1207" y="-412" on="1"/>
        <pt x="1251" y="-412" on="1"/>
        <pt x="1265" y="-425" on="0"/>
      </contour>
      <contour>
        <pt x="2892" y="182" on="1"/>
        <pt x="2810" y="233" on="0"/>
        <pt x="2775" y="233" on="1"/>
        <pt x="2752" y="233" on="0"/>
        <pt x="2711" y="206" on="1"/>
        <pt x="2668" y="178" on="0"/>
        <pt x="2668" y="156" on="1"/>
        <pt x="2668" y="133" on="0"/>
        <pt x="2680" y="131" on="1"/>
        <pt x="2743" y="131" on="1"/>
        <pt x="2810" y="130" on="0"/>
      </contour>
      <contour>
        <pt x="2074" y="269" on="1"/>
        <pt x="2074" y="290" on="0"/>
        <pt x="2040" y="346" on="0"/>
        <pt x="2022" y="346" on="1"/>
        <pt x="2001" y="346" on="0"/>
        <pt x="1963" y="314" on="1"/>
        <pt x="1922" y="279" on="0"/>
        <pt x="1921" y="247" on="1"/>
        <pt x="1965" y="202" on="0"/>
        <pt x="1986" y="202" on="1"/>
        <pt x="2008" y="202" on="0"/>
        <pt x="2074" y="250" on="0"/>
      </contour>
    </TTGlyph>
    <TTGlyph name="uni2011" xMin="261" yMin="-688" xMax="3415" yMax="1502">
      <contour>
        <pt x="3159" y="1406" on="1"/>
        <pt x="3159" y="1363" on="0"/>
        <pt x="3044" y="1291" on="1"/>
        <pt x="2982" y="1257" on="0"/>
        <pt x="2921" y="1223" on="1"/>
        <pt x="2852" y="1179" on="0"/>
        <pt x="2723" y="1114" on="1"/>
        <pt x="2715" y="1119" on="0"/>
        <pt x="2698" y="1129" on="0"/>
        <pt x="2698" y="1144" on="1"/>
        <pt x="2698" y="1197" on="0"/>
        <pt x="2898" y="1315" on="1"/>
        <pt x="3054" y="1406" on="0"/>
        <pt x="3145" y="1441" on="1"/>
        <pt x="3159" y="1427" on="0"/>
      </contour>
      <contour>
        <pt x="2668" y="1461" on="1"/>
        <pt x="2668" y="1432" on="0"/>
        <pt x="2610" y="1392" on="1"/>
        <pt x="2566" y="1364" on="0"/>
        <pt x="2522" y="1336" on="1"/>
        <pt x="2400" y="1256" on="0"/>
        <pt x="2358" y="1231" on="1"/>
        <pt x="2275" y="1182" on="0"/>
        <pt x="2198" y="1156" on="1"/>
        <pt x="2198" y="1159" on="0"/>
        <pt x="2186" y="1181" on="0"/>
        <pt x="2186" y="1196" on="1"/>
        <pt x="2186" y="1244" on="0"/>
        <pt x="2381" y="1362" on="1"/>
        <pt x="2506" y="1432" on="0"/>
        <pt x="2633" y="1502" on="1"/>
        <pt x="2643" y="1495" on="0"/>
        <pt x="2654" y="1488" on="1"/>
        <pt x="2668" y="1478" on="0"/>
      </contour>
      <contour>
        <pt x="2964" y="668" on="1"/>
        <pt x="2964" y="640" on="0"/>
        <pt x="2929" y="609" on="1"/>
        <pt x="2897" y="582" on="0"/>
        <pt x="2878" y="582" on="1"/>
        <pt x="2849" y="582" on="0"/>
        <pt x="2750" y="656" on="1"/>
        <pt x="2750" y="684" on="0"/>
        <pt x="2792" y="721" on="1"/>
        <pt x="2831" y="755" on="0"/>
        <pt x="2851" y="755" on="1"/>
        <pt x="2878" y="755" on="0"/>
        <pt x="2964" y="691" on="0"/>
      </contour>
      <contour>
        <pt x="2135" y="1349" on="1"/>
        <pt x="2135" y="1309" on="0"/>
        <pt x="2020" y="1234" on="1"/>
        <pt x="1914" y="1165" on="0"/>
        <pt x="1893" y="1165" on="1"/>
        <pt x="1831" y="1165" on="1"/>
        <pt x="1818" y="1178" on="1"/>
        <pt x="1818" y="1215" on="1"/>
        <pt x="1854" y="1240" on="0"/>
        <pt x="1921" y="1285" on="1"/>
        <pt x="1926" y="1318" on="0"/>
        <pt x="1890" y="1318" on="1"/>
        <pt x="1875" y="1318" on="0"/>
        <pt x="1824" y="1290" on="1"/>
        <pt x="1759" y="1255" on="0"/>
        <pt x="1739" y="1247" on="1"/>
        <pt x="1726" y="1248" on="0"/>
        <pt x="1726" y="1272" on="1"/>
        <pt x="1726" y="1325" on="0"/>
        <pt x="1810" y="1381" on="1"/>
        <pt x="1885" y="1431" on="0"/>
        <pt x="1925" y="1431" on="1"/>
        <pt x="1939" y="1431" on="0"/>
        <pt x="2011" y="1414" on="1"/>
        <pt x="2095" y="1393" on="0"/>
        <pt x="2124" y="1389" on="1"/>
        <pt x="2124" y="1385" on="0"/>
        <pt x="2135" y="1364" on="0"/>
      </contour>
      <contour>
        <pt x="2125" y="801" on="1"/>
        <pt x="2125" y="775" on="0"/>
        <pt x="2059" y="705" on="0"/>
        <pt x="2038" y="705" on="1"/>
        <pt x="2026" y="705" on="0"/>
        <pt x="1964" y="735" on="0"/>
        <pt x="1951" y="735" on="1"/>
        <pt x="1938" y="735" on="0"/>
        <pt x="1876" y="684" on="0"/>
        <pt x="1863" y="684" on="1"/>
        <pt x="1843" y="684" on="0"/>
        <pt x="1756" y="744" on="0"/>
        <pt x="1756" y="760" on="1"/>
        <pt x="1756" y="786" on="0"/>
        <pt x="1828" y="858" on="0"/>
        <pt x="1854" y="858" on="1"/>
        <pt x="1865" y="858" on="0"/>
        <pt x="1917" y="827" on="0"/>
        <pt x="1931" y="827" on="1"/>
        <pt x="1941" y="827" on="0"/>
        <pt x="2001" y="889" on="0"/>
        <pt x="2017" y="889" on="1"/>
        <pt x="2039" y="889" on="0"/>
        <pt x="2125" y="822" on="0"/>
      </contour>
      <contour>
        <pt x="1592" y="1375" on="1"/>
        <pt x="1592" y="1329" on="0"/>
        <pt x="1521" y="1284" on="1"/>
        <pt x="1473" y="1258" on="0"/>
        <pt x="1426" y="1234" on="1"/>
        <pt x="1412" y="1225" on="0"/>
        <pt x="1169" y="1073" on="1"/>
        <pt x="1134" y="1073" on="1"/>
        <pt x="1121" y="1086" on="0"/>
        <pt x="1121" y="1108" on="1"/>
        <pt x="1121" y="1158" on="0"/>
        <pt x="1147" y="1175" on="1"/>
        <pt x="1374" y="1319" on="0"/>
        <pt x="1545" y="1411" on="1"/>
        <pt x="1579" y="1411" on="1"/>
        <pt x="1592" y="1397" on="0"/>
      </contour>
      <contour>
        <pt x="3415" y="223" on="1"/>
        <pt x="3415" y="199" on="0"/>
        <pt x="3394" y="164" on="1"/>
        <pt x="3371" y="125" on="0"/>
        <pt x="3349" y="123" on="1"/>
        <pt x="3272" y="120" on="0"/>
        <pt x="3194" y="117" on="1"/>
        <pt x="3101" y="114" on="0"/>
        <pt x="3042" y="97" on="1"/>
        <pt x="3040" y="96" on="0"/>
        <pt x="2859" y="24" on="1"/>
        <pt x="2767" y="-12" on="0"/>
        <pt x="2652" y="-12" on="1"/>
        <pt x="2574" y="-12" on="0"/>
        <pt x="2536" y="7" on="1"/>
        <pt x="2511" y="18" on="0"/>
        <pt x="2437" y="79" on="1"/>
        <pt x="2387" y="48" on="0"/>
        <pt x="2338" y="15" on="1"/>
        <pt x="2272" y="-22" on="0"/>
        <pt x="2221" y="-22" on="1"/>
        <pt x="2193" y="-22" on="1"/>
        <pt x="2180" y="-22" on="0"/>
        <pt x="1943" y="29" on="0"/>
        <pt x="1931" y="29" on="1"/>
        <pt x="1917" y="29" on="0"/>
        <pt x="1884" y="16" on="1"/>
        <pt x="1843" y="2" on="0"/>
        <pt x="1834" y="1" on="1"/>
        <pt x="1775" y="-12" on="0"/>
        <pt x="1654" y="-12" on="1"/>
        <pt x="1643" y="-12" on="0"/>
        <pt x="1555" y="49" on="0"/>
        <pt x="1541" y="49" on="1"/>
        <pt x="1528" y="49" on="0"/>
        <pt x="1505" y="29" on="1"/>
        <pt x="1476" y="5" on="0"/>
        <pt x="1466" y="1" on="1"/>
        <pt x="1387" y="-32" on="0"/>
        <pt x="1296" y="-32" on="1"/>
        <pt x="1191" y="-32" on="0"/>
        <pt x="1124" y="12" on="1"/>
        <pt x="1088" y="37" on="0"/>
        <pt x="1044" y="96" on="1"/>
        <pt x="1011" y="141" on="0"/>
        <pt x="988" y="141" on="1"/>
        <pt x="961" y="141" on="0"/>
        <pt x="902" y="83" on="1"/>
        <pt x="845" y="27" on="0"/>
        <pt x="845" y="13" on="1"/>
        <pt x="845" y="-39" on="0"/>
        <pt x="978" y="-44" on="1"/>
        <pt x="1138" y="-49" on="0"/>
        <pt x="1154" y="-60" on="1"/>
        <pt x="1203" y="-93" on="0"/>
        <pt x="1203" y="-145" on="1"/>
        <pt x="1203" y="-294" on="0"/>
        <pt x="955" y="-396" on="1"/>
        <pt x="766" y="-473" on="0"/>
        <pt x="635" y="-473" on="1"/>
        <pt x="481" y="-473" on="0"/>
        <pt x="377" y="-398" on="1"/>
        <pt x="342" y="-373" on="0"/>
        <pt x="303" y="-303" on="1"/>
        <pt x="261" y="-228" on="0"/>
        <pt x="261" y="-181" on="1"/>
        <pt x="261" y="-50" on="0"/>
        <pt x="387" y="109" on="1"/>
        <pt x="424" y="109" on="1"/>
        <pt x="424" y="106" on="0"/>
        <pt x="435" y="94" on="0"/>
        <pt x="435" y="79" on="1"/>
        <pt x="435" y="70" on="0"/>
        <pt x="363" y="-86" on="0"/>
        <pt x="363" y="-104" on="1"/>
        <pt x="363" y="-205" on="0"/>
        <pt x="474" y="-274" on="1"/>
        <pt x="563" y="-330" on="0"/>
        <pt x="640" y="-330" on="1"/>
        <pt x="697" y="-330" on="1"/>
        <pt x="744" y="-330" on="0"/>
        <pt x="880" y="-290" on="1"/>
        <pt x="1034" y="-245" on="0"/>
        <pt x="1050" y="-208" on="1"/>
        <pt x="961" y="-192" on="0"/>
        <pt x="871" y="-176" on="1"/>
        <pt x="732" y="-144" on="0"/>
        <pt x="732" y="-78" on="1"/>
        <pt x="732" y="15" on="0"/>
        <pt x="861" y="153" on="1"/>
        <pt x="983" y="284" on="0"/>
        <pt x="1045" y="284" on="1"/>
        <pt x="1055" y="284" on="0"/>
        <pt x="1249" y="111" on="0"/>
        <pt x="1346" y="111" on="1"/>
        <pt x="1423" y="111" on="0"/>
        <pt x="1492" y="153" on="1"/>
        <pt x="1520" y="188" on="0"/>
        <pt x="1589" y="243" on="1"/>
        <pt x="1595" y="213" on="0"/>
        <pt x="1631" y="163" on="1"/>
        <pt x="1681" y="131" on="0"/>
        <pt x="1736" y="131" on="1"/>
        <pt x="1778" y="131" on="0"/>
        <pt x="1814" y="159" on="1"/>
        <pt x="1807" y="257" on="0"/>
        <pt x="1964" y="489" on="0"/>
        <pt x="2043" y="489" on="1"/>
        <pt x="2166" y="489" on="0"/>
        <pt x="2166" y="330" on="1"/>
        <pt x="2166" y="242" on="0"/>
        <pt x="2125" y="175" on="1"/>
        <pt x="2125" y="149" on="1"/>
        <pt x="2178" y="131" on="0"/>
        <pt x="2212" y="131" on="1"/>
        <pt x="2272" y="131" on="0"/>
        <pt x="2337" y="154" on="1"/>
        <pt x="2422" y="184" on="0"/>
        <pt x="2422" y="233" on="1"/>
        <pt x="2350" y="868" on="1"/>
        <pt x="2350" y="924" on="0"/>
        <pt x="2384" y="990" on="1"/>
        <pt x="2420" y="990" on="1"/>
        <pt x="2451" y="880" on="0"/>
        <pt x="2475" y="607" on="1"/>
        <pt x="2499" y="348" on="0"/>
        <pt x="2500" y="339" on="1"/>
        <pt x="2521" y="193" on="0"/>
        <pt x="2570" y="161" on="1"/>
        <pt x="2621" y="224" on="0"/>
        <pt x="2672" y="288" on="1"/>
        <pt x="2754" y="387" on="0"/>
        <pt x="2801" y="387" on="1"/>
        <pt x="2801" y="387" on="0"/>
        <pt x="3073" y="287" on="1"/>
        <pt x="3177" y="248" on="0"/>
        <pt x="3401" y="253" on="1"/>
        <pt x="3403" y="252" on="0"/>
        <pt x="3403" y="251" on="1"/>
        <pt x="3415" y="241" on="0"/>
      </contour>
      <contour>
        <pt x="1572" y="473" on="1"/>
        <pt x="1572" y="441" on="0"/>
        <pt x="1511" y="387" on="0"/>
        <pt x="1480" y="387" on="1"/>
        <pt x="1461" y="387" on="0"/>
        <pt x="1378" y="446" on="0"/>
        <pt x="1378" y="464" on="1"/>
        <pt x="1378" y="475" on="0"/>
        <pt x="1419" y="534" on="0"/>
        <pt x="1419" y="546" on="1"/>
        <pt x="1419" y="571" on="0"/>
        <pt x="1360" y="604" on="1"/>
        <pt x="1357" y="618" on="0"/>
        <pt x="1357" y="637" on="1"/>
        <pt x="1357" y="659" on="0"/>
        <pt x="1374" y="691" on="1"/>
        <pt x="1396" y="735" on="0"/>
        <pt x="1428" y="735" on="1"/>
        <pt x="1459" y="735" on="0"/>
        <pt x="1496" y="701" on="1"/>
        <pt x="1531" y="671" on="0"/>
        <pt x="1531" y="653" on="1"/>
        <pt x="1531" y="614" on="0"/>
        <pt x="1490" y="576" on="1"/>
        <pt x="1496" y="567" on="0"/>
        <pt x="1539" y="523" on="1"/>
        <pt x="1572" y="488" on="0"/>
      </contour>
      <contour>
        <pt x="947" y="566" on="1"/>
        <pt x="947" y="538" on="0"/>
        <pt x="889" y="469" on="0"/>
        <pt x="875" y="469" on="1"/>
        <pt x="857" y="469" on="0"/>
        <pt x="817" y="494" on="1"/>
        <pt x="773" y="522" on="0"/>
        <pt x="773" y="546" on="1"/>
        <pt x="773" y="572" on="0"/>
        <pt x="799" y="605" on="1"/>
        <pt x="827" y="643" on="0"/>
        <pt x="855" y="643" on="1"/>
        <pt x="895" y="643" on="0"/>
        <pt x="923" y="615" on="1"/>
        <pt x="947" y="591" on="0"/>
      </contour>
      <contour>
        <pt x="1265" y="-447" on="1"/>
        <pt x="1265" y="-489" on="0"/>
        <pt x="1068" y="-593" on="1"/>
        <pt x="884" y="-688" on="0"/>
        <pt x="859" y="-688" on="1"/>
        <pt x="816" y="-688" on="1"/>
        <pt x="804" y="-686" on="0"/>
        <pt x="804" y="-662" on="1"/>
        <pt x="804" y="-599" on="0"/>
        <pt x="830" y="-586" on="1"/>
        <pt x="957" y="-530" on="0"/>
        <pt x="1207" y="-412" on="1"/>
        <pt x="1251" y="-412" on="1"/>
        <pt x="1265" y="-425" on="0"/>
      </contour>
      <contour>
        <pt x="2892" y="182" on="1"/>
        <pt x="2810" y="233" on="0"/>
        <pt x="2775" y="233" on="1"/>
        <pt x="2752" y="233" on="0"/>
        <pt x="2711" y="206" on="1"/>
        <pt x="2668" y="178" on="0"/>
        <pt x="2668" y="156" on="1"/>
        <pt x="2668" y="133" on="0"/>
        <pt x="2680" y="131" on="1"/>
        <pt x="2743" y="131" on="1"/>
        <pt x="2810" y="130" on="0"/>
      </contour>
      <contour>
        <pt x="2074" y="269" on="1"/>
        <pt x="2074" y="290" on="0"/>
        <pt x="2040" y="346" on="0"/>
        <pt x="2022" y="346" on="1"/>
        <pt x="2001" y="346" on="0"/>
        <pt x="1963" y="314" on="1"/>
        <pt x="1922" y="279" on="0"/>
        <pt x="1921" y="247" on="1"/>
        <pt x="1965" y="202" on="0"/>
        <pt x="1986" y="202" on="1"/>
        <pt x="2008" y="202" on="0"/>
        <pt x="2074" y="250" on="0"/>
      </contour>
    </TTGlyph>
    <TTGlyph name="uniE000" xMin="0" yMin="0" xMax="1775" yMax="1775">
      <contour>
        <pt x="0" y="1775" on="1"/>
        <pt x="1775" y="1775" on="1"/>
        <pt x="1775" y="0" on="1"/>
        <pt x="0" y="0" on="1"/>
      </contour>
    </TTGlyph>
    <TTGlyph name="uniFB51" xMin="258" yMin="-241" xMax="1875" yMax="1407">
      <contour>
        <pt x="1875" y="1366" on="1"/>
        <pt x="1875" y="1325" on="0"/>
        <pt x="1822" y="1297" on="1"/>
        <pt x="1796" y="1284" on="0"/>
        <pt x="1620" y="1182" on="1"/>
        <pt x="1495" y="1110" on="0"/>
        <pt x="1480" y="1111" on="1"/>
        <pt x="1425" y="1111" on="1"/>
        <pt x="1425" y="1154" on="1"/>
        <pt x="1425" y="1195" on="0"/>
        <pt x="1469" y="1218" on="1"/>
        <pt x="1484" y="1226" on="0"/>
        <pt x="1681" y="1334" on="1"/>
        <pt x="1814" y="1407" on="0"/>
        <pt x="1829" y="1407" on="1"/>
        <pt x="1875" y="1407" on="0"/>
      </contour>
      <contour>
        <pt x="1855" y="823" on="1"/>
        <pt x="1855" y="787" on="0"/>
        <pt x="1820" y="757" on="1"/>
        <pt x="1790" y="731" on="0"/>
        <pt x="1768" y="731" on="1"/>
        <pt x="1757" y="731" on="0"/>
        <pt x="1697" y="772" on="0"/>
        <pt x="1681" y="772" on="1"/>
        <pt x="1668" y="772" on="0"/>
        <pt x="1606" y="731" on="0"/>
        <pt x="1594" y="731" on="1"/>
        <pt x="1570" y="731" on="0"/>
        <pt x="1529" y="757" on="1"/>
        <pt x="1486" y="784" on="0"/>
        <pt x="1486" y="803" on="1"/>
        <pt x="1486" y="827" on="0"/>
        <pt x="1552" y="895" on="0"/>
        <pt x="1574" y="895" on="1"/>
        <pt x="1584" y="895" on="0"/>
        <pt x="1641" y="864" on="0"/>
        <pt x="1656" y="864" on="1"/>
        <pt x="1668" y="864" on="0"/>
        <pt x="1734" y="915" on="0"/>
        <pt x="1747" y="915" on="1"/>
        <pt x="1781" y="915" on="0"/>
        <pt x="1820" y="874" on="1"/>
        <pt x="1855" y="838" on="0"/>
      </contour>
      <contour>
        <pt x="1865" y="214" on="1"/>
        <pt x="1865" y="73" on="0"/>
        <pt x="1818" y="2" on="1"/>
        <pt x="1757" y="-88" on="0"/>
        <pt x="1604" y="-88" on="1"/>
        <pt x="1504" y="-88" on="0"/>
        <pt x="1377" y="-44" on="1"/>
        <pt x="1322" y="-25" on="0"/>
        <pt x="1315" y="60" on="1"/>
        <pt x="1289" y="369" on="0"/>
        <pt x="1267" y="715" on="1"/>
        <pt x="1266" y="743" on="0"/>
        <pt x="1248" y="822" on="1"/>
        <pt x="1230" y="899" on="0"/>
        <pt x="1230" y="910" on="1"/>
        <pt x="1230" y="965" on="0"/>
        <pt x="1274" y="1027" on="1"/>
        <pt x="1293" y="1027" on="0"/>
        <pt x="1307" y="1004" on="1"/>
        <pt x="1338" y="944" on="0"/>
        <pt x="1347" y="856" on="1"/>
        <pt x="1352" y="786" on="0"/>
        <pt x="1356" y="717" on="1"/>
        <pt x="1356" y="717" on="0"/>
        <pt x="1378" y="490" on="1"/>
        <pt x="1391" y="351" on="0"/>
        <pt x="1391" y="261" on="1"/>
        <pt x="1391" y="237" on="0"/>
        <pt x="1390" y="214" on="1"/>
        <pt x="1384" y="55" on="0"/>
        <pt x="1629" y="55" on="1"/>
        <pt x="1669" y="55" on="0"/>
        <pt x="1719" y="75" on="1"/>
        <pt x="1783" y="102" on="0"/>
        <pt x="1783" y="143" on="1"/>
        <pt x="1783" y="188" on="0"/>
        <pt x="1758" y="188" on="1"/>
        <pt x="1745" y="188" on="0"/>
        <pt x="1658" y="127" on="0"/>
        <pt x="1645" y="127" on="1"/>
        <pt x="1578" y="127" on="0"/>
        <pt x="1533" y="189" on="1"/>
        <pt x="1497" y="242" on="0"/>
        <pt x="1497" y="296" on="1"/>
        <pt x="1497" y="364" on="0"/>
        <pt x="1543" y="432" on="1"/>
        <pt x="1593" y="505" on="0"/>
        <pt x="1656" y="505" on="1"/>
        <pt x="1742" y="505" on="0"/>
        <pt x="1808" y="391" on="1"/>
        <pt x="1865" y="292" on="0"/>
      </contour>
      <contour>
        <pt x="1046" y="1340" on="1"/>
        <pt x="1046" y="1304" on="0"/>
        <pt x="1014" y="1287" on="1"/>
        <pt x="977" y="1268" on="0"/>
        <pt x="941" y="1250" on="1"/>
        <pt x="917" y="1233" on="0"/>
        <pt x="550" y="1008" on="1"/>
        <pt x="535" y="1019" on="0"/>
        <pt x="525" y="1019" on="1"/>
        <pt x="525" y="1052" on="1"/>
        <pt x="524" y="1105" on="0"/>
        <pt x="736" y="1233" on="1"/>
        <pt x="929" y="1349" on="0"/>
        <pt x="1021" y="1375" on="1"/>
        <pt x="1046" y="1352" on="0"/>
      </contour>
      <contour>
        <pt x="995" y="132" on="1"/>
        <pt x="995" y="-57" on="0"/>
        <pt x="859" y="-157" on="1"/>
        <pt x="745" y="-241" on="0"/>
        <pt x="570" y="-241" on="1"/>
        <pt x="509" y="-241" on="0"/>
        <pt x="436" y="-219" on="1"/>
        <pt x="339" y="-189" on="0"/>
        <pt x="302" y="-137" on="1"/>
        <pt x="258" y="-74" on="0"/>
        <pt x="258" y="-21" on="1"/>
        <pt x="258" y="25" on="0"/>
        <pt x="317" y="139" on="1"/>
        <pt x="366" y="235" on="0"/>
        <pt x="394" y="269" on="1"/>
        <pt x="441" y="269" on="1"/>
        <pt x="441" y="265" on="0"/>
        <pt x="452" y="254" on="0"/>
        <pt x="452" y="239" on="1"/>
        <pt x="452" y="229" on="0"/>
        <pt x="381" y="94" on="0"/>
        <pt x="381" y="81" on="1"/>
        <pt x="381" y="7" on="0"/>
        <pt x="462" y="-49" on="1"/>
        <pt x="531" y="-98" on="0"/>
        <pt x="586" y="-98" on="1"/>
        <pt x="670" y="-98" on="0"/>
        <pt x="772" y="-59" on="1"/>
        <pt x="903" y="-9" on="0"/>
        <pt x="903" y="66" on="1"/>
        <pt x="800" y="895" on="1"/>
        <pt x="800" y="943" on="0"/>
        <pt x="862" y="1053" on="0"/>
        <pt x="890" y="1058" on="1"/>
        <pt x="898" y="1012" on="0"/>
        <pt x="925" y="933" on="1"/>
        <pt x="926" y="930" on="0"/>
        <pt x="958" y="912" on="1"/>
        <pt x="985" y="896" on="0"/>
        <pt x="985" y="879" on="1"/>
        <pt x="985" y="867" on="0"/>
        <pt x="923" y="754" on="0"/>
        <pt x="923" y="741" on="1"/>
        <pt x="923" y="731" on="0"/>
        <pt x="935" y="680" on="1"/>
        <pt x="947" y="623" on="0"/>
        <pt x="950" y="593" on="1"/>
        <pt x="995" y="103" on="0"/>
      </contour>
      <contour>
        <pt x="1691" y="304" on="1"/>
        <pt x="1691" y="321" on="0"/>
        <pt x="1663" y="362" on="0"/>
        <pt x="1645" y="362" on="1"/>
        <pt x="1630" y="362" on="0"/>
        <pt x="1599" y="326" on="1"/>
        <pt x="1634" y="291" on="0"/>
        <pt x="1660" y="291" on="1"/>
        <pt x="1678" y="291" on="0"/>
      </contour>
    </TTGlyph>
    <TTGlyph name="uniFB52" xMin="276" yMin="-14" xMax="1095" yMax="1295">
      <contour>
        <pt x="1064" y="1260" on="1"/>
        <pt x="1064" y="1238" on="0"/>
        <pt x="859" y="1099" on="1"/>
        <pt x="714" y="1004" on="0"/>
        <pt x="569" y="908" on="1"/>
        <pt x="534" y="908" on="1"/>
        <pt x="522" y="908" on="0"/>
        <pt x="522" y="932" on="1"/>
        <pt x="522" y="982" on="0"/>
        <pt x="607" y="1044" on="1"/>
        <pt x="678" y="1089" on="0"/>
        <pt x="749" y="1134" on="1"/>
        <pt x="837" y="1194" on="0"/>
        <pt x="1007" y="1295" on="1"/>
        <pt x="1053" y="1295" on="1"/>
        <pt x="1053" y="1291" on="0"/>
        <pt x="1064" y="1275" on="0"/>
      </contour>
      <contour>
        <pt x="1095" y="201" on="1"/>
        <pt x="1095" y="157" on="0"/>
        <pt x="1071" y="115" on="1"/>
        <pt x="1046" y="67" on="0"/>
        <pt x="1013" y="67" on="1"/>
        <pt x="903" y="67" on="0"/>
        <pt x="784" y="139" on="1"/>
        <pt x="710" y="45" on="0"/>
        <pt x="669" y="19" on="1"/>
        <pt x="617" y="-14" on="0"/>
        <pt x="517" y="-14" on="1"/>
        <pt x="409" y="-14" on="0"/>
        <pt x="378" y="79" on="1"/>
        <pt x="377" y="84" on="0"/>
        <pt x="354" y="266" on="1"/>
        <pt x="276" y="894" on="0"/>
        <pt x="276" y="932" on="1"/>
        <pt x="276" y="973" on="0"/>
        <pt x="321" y="1040" on="1"/>
        <pt x="383" y="997" on="0"/>
        <pt x="391" y="820" on="1"/>
        <pt x="406" y="751" on="0"/>
        <pt x="426" y="615" on="1"/>
        <pt x="432" y="470" on="0"/>
        <pt x="452" y="206" on="1"/>
        <pt x="456" y="178" on="0"/>
        <pt x="491" y="152" on="1"/>
        <pt x="522" y="129" on="0"/>
        <pt x="542" y="129" on="1"/>
        <pt x="555" y="129" on="0"/>
        <pt x="589" y="134" on="1"/>
        <pt x="627" y="141" on="0"/>
        <pt x="639" y="142" on="1"/>
        <pt x="679" y="144" on="0"/>
        <pt x="715" y="202" on="1"/>
        <pt x="716" y="202" on="0"/>
        <pt x="760" y="290" on="1"/>
        <pt x="773" y="315" on="0"/>
        <pt x="851" y="392" on="1"/>
        <pt x="937" y="477" on="0"/>
        <pt x="967" y="477" on="1"/>
        <pt x="1012" y="477" on="0"/>
        <pt x="1058" y="340" on="1"/>
        <pt x="1095" y="229" on="0"/>
      </contour>
      <contour>
        <pt x="952" y="257" on="1"/>
        <pt x="930" y="301" on="0"/>
        <pt x="904" y="313" on="1"/>
        <pt x="881" y="289" on="0"/>
        <pt x="881" y="265" on="1"/>
        <pt x="904" y="254" on="0"/>
        <pt x="936" y="231" on="1"/>
        <pt x="945" y="241" on="0"/>
      </contour>
    </TTGlyph>
    <TTGlyph name="uniFB53" xMin="289" yMin="-31" xMax="2961" yMax="1271">
      <contour>
        <pt x="2961" y="1223" on="1"/>
        <pt x="2961" y="1171" on="0"/>
        <pt x="2878" y="1120" on="1"/>
        <pt x="2816" y="1085" on="0"/>
        <pt x="2755" y="1052" on="1"/>
        <pt x="2653" y="974" on="0"/>
        <pt x="2484" y="881" on="1"/>
        <pt x="2471" y="895" on="0"/>
        <pt x="2471" y="922" on="1"/>
        <pt x="2471" y="983" on="0"/>
        <pt x="2575" y="1047" on="1"/>
        <pt x="2642" y="1082" on="0"/>
        <pt x="2707" y="1117" on="1"/>
        <pt x="2814" y="1197" on="0"/>
        <pt x="2915" y="1248" on="1"/>
        <pt x="2949" y="1248" on="1"/>
        <pt x="2961" y="1247" on="0"/>
      </contour>
      <contour>
        <pt x="2419" y="1213" on="1"/>
        <pt x="2419" y="1167" on="0"/>
        <pt x="2225" y="1048" on="1"/>
        <pt x="1995" y="908" on="0"/>
        <pt x="1945" y="850" on="1"/>
        <pt x="1897" y="850" on="1"/>
        <pt x="1897" y="915" on="1"/>
        <pt x="1897" y="953" on="0"/>
        <pt x="2104" y="1076" on="1"/>
        <pt x="2203" y="1137" on="0"/>
        <pt x="2394" y="1248" on="1"/>
        <pt x="2419" y="1224" on="0"/>
      </contour>
      <contour>
        <pt x="2276" y="573" on="1"/>
        <pt x="2276" y="536" on="0"/>
        <pt x="2240" y="506" on="1"/>
        <pt x="2212" y="481" on="0"/>
        <pt x="2189" y="481" on="1"/>
        <pt x="2170" y="481" on="0"/>
        <pt x="2135" y="505" on="1"/>
        <pt x="2108" y="524" on="0"/>
        <pt x="2081" y="544" on="1"/>
        <pt x="2081" y="567" on="0"/>
        <pt x="2105" y="613" on="1"/>
        <pt x="2131" y="665" on="0"/>
        <pt x="2158" y="665" on="1"/>
        <pt x="2189" y="665" on="0"/>
        <pt x="2276" y="596" on="0"/>
      </contour>
      <contour>
        <pt x="1856" y="1218" on="1"/>
        <pt x="1856" y="1171" on="0"/>
        <pt x="1755" y="1107" on="1"/>
        <pt x="1697" y="1074" on="0"/>
        <pt x="1638" y="1041" on="1"/>
        <pt x="1535" y="976" on="0"/>
        <pt x="1423" y="881" on="1"/>
        <pt x="1377" y="881" on="1"/>
        <pt x="1365" y="882" on="0"/>
        <pt x="1365" y="906" on="1"/>
        <pt x="1365" y="978" on="0"/>
        <pt x="1602" y="1121" on="1"/>
        <pt x="1825" y="1254" on="0"/>
        <pt x="1843" y="1248" on="1"/>
        <pt x="1856" y="1235" on="0"/>
      </contour>
      <contour>
        <pt x="2951" y="210" on="1"/>
        <pt x="2951" y="61" on="0"/>
        <pt x="2859" y="61" on="1"/>
        <pt x="2786" y="61" on="0"/>
        <pt x="2716" y="90" on="1"/>
        <pt x="2639" y="121" on="0"/>
        <pt x="2620" y="123" on="1"/>
        <pt x="2523" y="0" on="0"/>
        <pt x="2414" y="0" on="1"/>
        <pt x="2342" y="0" on="0"/>
        <pt x="2220" y="71" on="0"/>
        <pt x="2214" y="71" on="1"/>
        <pt x="2206" y="71" on="0"/>
        <pt x="2008" y="-31" on="0"/>
        <pt x="1943" y="-31" on="1"/>
        <pt x="1882" y="-31" on="0"/>
        <pt x="1777" y="2" on="1"/>
        <pt x="1763" y="7" on="0"/>
        <pt x="1714" y="41" on="1"/>
        <pt x="1670" y="71" on="0"/>
        <pt x="1656" y="71" on="1"/>
        <pt x="1643" y="71" on="0"/>
        <pt x="1615" y="53" on="1"/>
        <pt x="1579" y="29" on="0"/>
        <pt x="1566" y="23" on="1"/>
        <pt x="1466" y="-20" on="0"/>
        <pt x="1370" y="-20" on="1"/>
        <pt x="1288" y="-20" on="0"/>
        <pt x="1197" y="46" on="0"/>
        <pt x="1143" y="143" on="1"/>
        <pt x="1032" y="75" on="0"/>
        <pt x="889" y="29" on="1"/>
        <pt x="737" y="-20" on="0"/>
        <pt x="622" y="-20" on="1"/>
        <pt x="495" y="-20" on="0"/>
        <pt x="406" y="35" on="1"/>
        <pt x="289" y="109" on="0"/>
        <pt x="289" y="256" on="1"/>
        <pt x="289" y="289" on="0"/>
        <pt x="332" y="366" on="1"/>
        <pt x="373" y="437" on="0"/>
        <pt x="405" y="470" on="1"/>
        <pt x="443" y="470" on="0"/>
        <pt x="443" y="445" on="1"/>
        <pt x="443" y="435" on="0"/>
        <pt x="382" y="336" on="0"/>
        <pt x="382" y="322" on="1"/>
        <pt x="382" y="217" on="0"/>
        <pt x="498" y="157" on="1"/>
        <pt x="585" y="112" on="0"/>
        <pt x="673" y="112" on="1"/>
        <pt x="697" y="112" on="0"/>
        <pt x="810" y="138" on="1"/>
        <pt x="938" y="168" on="0"/>
        <pt x="1009" y="197" on="1"/>
        <pt x="1069" y="220" on="0"/>
        <pt x="1125" y="284" on="1"/>
        <pt x="1129" y="292" on="0"/>
        <pt x="1129" y="312" on="1"/>
        <pt x="1067" y="870" on="1"/>
        <pt x="1067" y="888" on="0"/>
        <pt x="1111" y="958" on="0"/>
        <pt x="1133" y="972" on="1"/>
        <pt x="1144" y="972" on="0"/>
        <pt x="1166" y="938" on="1"/>
        <pt x="1178" y="841" on="0"/>
        <pt x="1197" y="660" on="1"/>
        <pt x="1204" y="559" on="0"/>
        <pt x="1228" y="333" on="1"/>
        <pt x="1229" y="285" on="0"/>
        <pt x="1253" y="202" on="1"/>
        <pt x="1285" y="154" on="0"/>
        <pt x="1329" y="140" on="1"/>
        <pt x="1352" y="133" on="0"/>
        <pt x="1415" y="133" on="1"/>
        <pt x="1478" y="133" on="0"/>
        <pt x="1479" y="134" on="1"/>
        <pt x="1495" y="136" on="0"/>
        <pt x="1580" y="171" on="1"/>
        <pt x="1567" y="208" on="0"/>
        <pt x="1508" y="227" on="1"/>
        <pt x="1467" y="238" on="0"/>
        <pt x="1426" y="249" on="1"/>
        <pt x="1505" y="419" on="0"/>
        <pt x="1728" y="419" on="1"/>
        <pt x="1762" y="419" on="0"/>
        <pt x="1821" y="378" on="1"/>
        <pt x="1886" y="333" on="0"/>
        <pt x="1886" y="292" on="1"/>
        <pt x="1886" y="249" on="0"/>
        <pt x="1814" y="177" on="1"/>
        <pt x="1814" y="153" on="0"/>
        <pt x="1853" y="135" on="1"/>
        <pt x="1900" y="112" on="0"/>
        <pt x="1984" y="112" on="1"/>
        <pt x="2059" y="112" on="0"/>
        <pt x="2135" y="145" on="1"/>
        <pt x="2153" y="153" on="0"/>
        <pt x="2208" y="188" on="1"/>
        <pt x="2251" y="215" on="0"/>
        <pt x="2266" y="215" on="1"/>
        <pt x="2278" y="215" on="0"/>
        <pt x="2437" y="143" on="0"/>
        <pt x="2450" y="143" on="1"/>
        <pt x="2532" y="143" on="0"/>
        <pt x="2570" y="182" on="1"/>
        <pt x="2593" y="218" on="0"/>
        <pt x="2617" y="254" on="1"/>
        <pt x="2764" y="451" on="0"/>
        <pt x="2824" y="451" on="1"/>
        <pt x="2861" y="451" on="0"/>
        <pt x="2875" y="428" on="1"/>
        <pt x="2902" y="382" on="0"/>
        <pt x="2928" y="303" on="1"/>
        <pt x="2951" y="233" on="0"/>
      </contour>
      <contour>
        <pt x="1057" y="1222" on="1"/>
        <pt x="1057" y="1199" on="0"/>
        <pt x="864" y="1082" on="1"/>
        <pt x="728" y="1002" on="0"/>
        <pt x="593" y="922" on="1"/>
        <pt x="556" y="922" on="1"/>
        <pt x="556" y="976" on="1"/>
        <pt x="556" y="1012" on="0"/>
        <pt x="783" y="1144" on="1"/>
        <pt x="1003" y="1271" on="0"/>
        <pt x="1012" y="1268" on="1"/>
        <pt x="1057" y="1268" on="1"/>
      </contour>
      <contour>
        <pt x="903" y="490" on="1"/>
        <pt x="902" y="421" on="0"/>
        <pt x="851" y="342" on="1"/>
        <pt x="789" y="246" on="0"/>
        <pt x="704" y="246" on="1"/>
        <pt x="663" y="246" on="0"/>
        <pt x="586" y="302" on="1"/>
        <pt x="653" y="323" on="0"/>
        <pt x="781" y="374" on="1"/>
        <pt x="767" y="385" on="0"/>
        <pt x="697" y="425" on="1"/>
        <pt x="658" y="447" on="0"/>
        <pt x="658" y="476" on="1"/>
        <pt x="658" y="528" on="0"/>
        <pt x="699" y="596" on="1"/>
        <pt x="746" y="677" on="0"/>
        <pt x="816" y="705" on="1"/>
        <pt x="862" y="705" on="1"/>
        <pt x="862" y="702" on="0"/>
        <pt x="873" y="680" on="0"/>
        <pt x="873" y="665" on="1"/>
        <pt x="873" y="639" on="0"/>
        <pt x="812" y="563" on="0"/>
        <pt x="796" y="563" on="1"/>
        <pt x="782" y="563" on="0"/>
        <pt x="777" y="569" on="1"/>
        <pt x="775" y="573" on="0"/>
        <pt x="771" y="569" on="1"/>
        <pt x="817" y="544" on="0"/>
      </contour>
      <contour>
        <pt x="2818" y="239" on="1"/>
        <pt x="2790" y="297" on="0"/>
        <pt x="2760" y="297" on="1"/>
        <pt x="2726" y="263" on="0"/>
        <pt x="2726" y="259" on="1"/>
        <pt x="2761" y="225" on="0"/>
        <pt x="2788" y="225" on="1"/>
        <pt x="2804" y="225" on="0"/>
      </contour>
    </TTGlyph>
    <TTGlyph name="uniFB54" xMin="124" yMin="-151" xMax="1660" yMax="1773">
      <contour>
        <pt x="1660" y="1594" on="1"/>
        <pt x="1660" y="1543" on="0"/>
        <pt x="1617" y="1520" on="1"/>
        <pt x="1534" y="1477" on="0"/>
        <pt x="1267" y="1334" on="1"/>
        <pt x="1221" y="1334" on="1"/>
        <pt x="1221" y="1392" on="1"/>
        <pt x="1281" y="1446" on="0"/>
        <pt x="1401" y="1511" on="1"/>
        <pt x="1502" y="1565" on="0"/>
        <pt x="1603" y="1619" on="1"/>
        <pt x="1648" y="1619" on="1"/>
        <pt x="1660" y="1618" on="0"/>
      </contour>
      <contour>
        <pt x="1168" y="1738" on="1"/>
        <pt x="1168" y="1695" on="0"/>
        <pt x="980" y="1584" on="1"/>
        <pt x="734" y="1441" on="0"/>
        <pt x="715" y="1425" on="1"/>
        <pt x="670" y="1425" on="1"/>
        <pt x="656" y="1439" on="0"/>
        <pt x="656" y="1461" on="1"/>
        <pt x="656" y="1502" on="0"/>
        <pt x="856" y="1620" on="1"/>
        <pt x="988" y="1696" on="0"/>
        <pt x="1121" y="1773" on="1"/>
        <pt x="1155" y="1773" on="1"/>
        <pt x="1168" y="1760" on="0"/>
      </contour>
      <contour>
        <pt x="1118" y="1379" on="1"/>
        <pt x="1118" y="1365" on="0"/>
        <pt x="1092" y="1315" on="1"/>
        <pt x="1073" y="1277" on="0"/>
        <pt x="1013" y="1234" on="1"/>
        <pt x="935" y="1179" on="0"/>
        <pt x="886" y="1180" on="1"/>
        <pt x="792" y="1180" on="1"/>
        <pt x="770" y="1221" on="0"/>
        <pt x="770" y="1251" on="1"/>
        <pt x="770" y="1259" on="0"/>
        <pt x="822" y="1343" on="0"/>
        <pt x="837" y="1353" on="1"/>
        <pt x="887" y="1302" on="1"/>
        <pt x="903" y="1312" on="0"/>
        <pt x="919" y="1342" on="1"/>
        <pt x="944" y="1387" on="0"/>
        <pt x="956" y="1403" on="1"/>
        <pt x="993" y="1403" on="1"/>
        <pt x="993" y="1389" on="0"/>
        <pt x="1010" y="1353" on="1"/>
        <pt x="1037" y="1389" on="0"/>
        <pt x="1095" y="1434" on="1"/>
        <pt x="1095" y="1431" on="0"/>
        <pt x="1118" y="1393" on="0"/>
      </contour>
      <contour>
        <pt x="1598" y="1099" on="1"/>
        <pt x="1542" y="1068" on="0"/>
        <pt x="1434" y="1008" on="1"/>
        <pt x="1434" y="999" on="0"/>
        <pt x="1450" y="989" on="1"/>
        <pt x="1471" y="836" on="0"/>
        <pt x="1505" y="518" on="1"/>
        <pt x="1537" y="222" on="0"/>
        <pt x="1537" y="202" on="1"/>
        <pt x="1537" y="191" on="0"/>
        <pt x="1533" y="114" on="0"/>
        <pt x="1533" y="99" on="1"/>
        <pt x="1533" y="72" on="0"/>
        <pt x="1494" y="13" on="1"/>
        <pt x="1457" y="13" on="1"/>
        <pt x="1363" y="831" on="1"/>
        <pt x="1363" y="922" on="0"/>
        <pt x="1404" y="989" on="1"/>
        <pt x="1379" y="1003" on="0"/>
        <pt x="1326" y="985" on="1"/>
        <pt x="1318" y="998" on="0"/>
        <pt x="1309" y="1049" on="1"/>
        <pt x="1250" y="1093" on="0"/>
        <pt x="1250" y="1128" on="1"/>
        <pt x="1250" y="1172" on="0"/>
        <pt x="1324" y="1235" on="1"/>
        <pt x="1392" y="1292" on="0"/>
        <pt x="1425" y="1292" on="1"/>
        <pt x="1450" y="1292" on="0"/>
        <pt x="1495" y="1249" on="1"/>
        <pt x="1495" y="1201" on="1"/>
        <pt x="1461" y="1169" on="0"/>
        <pt x="1435" y="1169" on="1"/>
        <pt x="1427" y="1169" on="0"/>
        <pt x="1398" y="1175" on="1"/>
        <pt x="1379" y="1178" on="0"/>
        <pt x="1373" y="1172" on="1"/>
        <pt x="1376" y="1142" on="0"/>
        <pt x="1412" y="1138" on="1"/>
        <pt x="1406" y="1139" on="0"/>
        <pt x="1471" y="1139" on="1"/>
        <pt x="1510" y="1139" on="0"/>
        <pt x="1585" y="1149" on="1"/>
        <pt x="1598" y="1136" on="1"/>
      </contour>
      <contour>
        <pt x="1087" y="862" on="1"/>
        <pt x="1087" y="853" on="0"/>
        <pt x="1011" y="732" on="0"/>
        <pt x="1007" y="703" on="1"/>
        <pt x="988" y="549" on="0"/>
        <pt x="977" y="395" on="1"/>
        <pt x="980" y="379" on="0"/>
        <pt x="980" y="353" on="1"/>
        <pt x="974" y="334" on="0"/>
        <pt x="941" y="265" on="1"/>
        <pt x="913" y="206" on="0"/>
        <pt x="913" y="192" on="1"/>
        <pt x="913" y="179" on="0"/>
        <pt x="974" y="0" on="0"/>
        <pt x="974" y="-13" on="1"/>
        <pt x="974" y="-31" on="0"/>
        <pt x="953" y="-63" on="1"/>
        <pt x="931" y="-99" on="0"/>
        <pt x="910" y="-108" on="1"/>
        <pt x="803" y="-151" on="0"/>
        <pt x="585" y="-151" on="1"/>
        <pt x="472" y="-151" on="0"/>
        <pt x="472" y="-64" on="1"/>
        <pt x="472" y="-4" on="0"/>
        <pt x="530" y="33" on="1"/>
        <pt x="560" y="2" on="0"/>
        <pt x="600" y="2" on="1"/>
        <pt x="631" y="2" on="0"/>
        <pt x="707" y="82" on="1"/>
        <pt x="779" y="158" on="0"/>
        <pt x="779" y="176" on="1"/>
        <pt x="779" y="194" on="0"/>
        <pt x="734" y="259" on="1"/>
        <pt x="688" y="328" on="0"/>
        <pt x="640" y="374" on="1"/>
        <pt x="578" y="449" on="0"/>
        <pt x="516" y="524" on="1"/>
        <pt x="422" y="632" on="0"/>
        <pt x="343" y="664" on="1"/>
        <pt x="320" y="664" on="0"/>
        <pt x="280" y="667" on="1"/>
        <pt x="270" y="668" on="0"/>
        <pt x="261" y="670" on="1"/>
        <pt x="205" y="686" on="0"/>
        <pt x="159" y="733" on="1"/>
        <pt x="124" y="768" on="0"/>
        <pt x="124" y="836" on="1"/>
        <pt x="124" y="863" on="0"/>
        <pt x="137" y="899" on="1"/>
        <pt x="153" y="944" on="0"/>
        <pt x="176" y="944" on="1"/>
        <pt x="185" y="944" on="0"/>
        <pt x="295" y="884" on="1"/>
        <pt x="491" y="779" on="0"/>
        <pt x="838" y="309" on="1"/>
        <pt x="853" y="309" on="0"/>
        <pt x="858" y="316" on="1"/>
        <pt x="885" y="404" on="0"/>
        <pt x="892" y="622" on="1"/>
        <pt x="893" y="650" on="0"/>
        <pt x="906" y="718" on="1"/>
        <pt x="919" y="784" on="0"/>
        <pt x="919" y="816" on="1"/>
        <pt x="919" y="827" on="0"/>
        <pt x="893" y="884" on="0"/>
        <pt x="893" y="897" on="1"/>
        <pt x="893" y="903" on="0"/>
        <pt x="895" y="907" on="1"/>
        <pt x="929" y="1011" on="0"/>
        <pt x="987" y="1096" on="1"/>
        <pt x="1023" y="1096" on="1"/>
        <pt x="1025" y="1090" on="0"/>
        <pt x="1025" y="959" on="1"/>
        <pt x="1025" y="949" on="0"/>
        <pt x="1087" y="877" on="0"/>
      </contour>
    </TTGlyph>
    <TTGlyph name="uniFB55" xMin="253" yMin="-346" xMax="3129" yMax="1507">
      <contour>
        <pt x="2976" y="1481" on="1"/>
        <pt x="2976" y="1434" on="0"/>
        <pt x="2933" y="1408" on="1"/>
        <pt x="2839" y="1351" on="0"/>
        <pt x="2707" y="1282" on="1"/>
        <pt x="2568" y="1210" on="0"/>
        <pt x="2550" y="1211" on="1"/>
        <pt x="2495" y="1211" on="1"/>
        <pt x="2495" y="1244" on="1"/>
        <pt x="2495" y="1286" on="0"/>
        <pt x="2685" y="1388" on="1"/>
        <pt x="2802" y="1447" on="0"/>
        <pt x="2919" y="1507" on="1"/>
        <pt x="2964" y="1507" on="1"/>
        <pt x="2976" y="1505" on="0"/>
      </contour>
      <contour>
        <pt x="2945" y="882" on="1"/>
        <pt x="2945" y="853" on="0"/>
        <pt x="2913" y="825" on="1"/>
        <pt x="2884" y="800" on="0"/>
        <pt x="2864" y="800" on="1"/>
        <pt x="2851" y="800" on="0"/>
        <pt x="2794" y="831" on="0"/>
        <pt x="2782" y="831" on="1"/>
        <pt x="2773" y="831" on="0"/>
        <pt x="2707" y="780" on="0"/>
        <pt x="2689" y="780" on="1"/>
        <pt x="2682" y="780" on="0"/>
        <pt x="2598" y="832" on="1"/>
        <pt x="2598" y="839" on="0"/>
        <pt x="2598" y="845" on="1"/>
        <pt x="2598" y="886" on="0"/>
        <pt x="2629" y="918" on="1"/>
        <pt x="2657" y="944" on="0"/>
        <pt x="2679" y="944" on="1"/>
        <pt x="2692" y="944" on="0"/>
        <pt x="2753" y="913" on="0"/>
        <pt x="2766" y="913" on="1"/>
        <pt x="2778" y="913" on="0"/>
        <pt x="2823" y="964" on="0"/>
        <pt x="2848" y="964" on="1"/>
        <pt x="2879" y="964" on="0"/>
        <pt x="2945" y="913" on="0"/>
      </contour>
      <contour>
        <pt x="2280" y="1310" on="1"/>
        <pt x="2250" y="1236" on="0"/>
        <pt x="2129" y="1177" on="1"/>
        <pt x="2022" y="1125" on="0"/>
        <pt x="1924" y="1118" on="1"/>
        <pt x="1911" y="1120" on="0"/>
        <pt x="1911" y="1144" on="1"/>
        <pt x="1911" y="1157" on="0"/>
        <pt x="1959" y="1194" on="1"/>
        <pt x="2025" y="1247" on="0"/>
        <pt x="2034" y="1256" on="1"/>
        <pt x="2018" y="1271" on="0"/>
        <pt x="2004" y="1271" on="1"/>
        <pt x="1997" y="1271" on="0"/>
        <pt x="1874" y="1210" on="1"/>
        <pt x="1860" y="1225" on="0"/>
        <pt x="1860" y="1246" on="1"/>
        <pt x="1860" y="1303" on="0"/>
        <pt x="1945" y="1348" on="1"/>
        <pt x="2014" y="1384" on="0"/>
        <pt x="2059" y="1384" on="1"/>
        <pt x="2072" y="1384" on="0"/>
        <pt x="2140" y="1366" on="1"/>
        <pt x="2224" y="1345" on="0"/>
        <pt x="2256" y="1339" on="1"/>
        <pt x="2262" y="1329" on="0"/>
      </contour>
      <contour>
        <pt x="1481" y="1159" on="1"/>
        <pt x="1481" y="1122" on="0"/>
        <pt x="1447" y="1087" on="1"/>
        <pt x="1365" y="1128" on="0"/>
        <pt x="1364" y="1128" on="1"/>
        <pt x="1351" y="1128" on="0"/>
        <pt x="1288" y="1081" on="1"/>
        <pt x="1235" y="1040" on="0"/>
        <pt x="1182" y="999" on="1"/>
        <pt x="1115" y="949" on="0"/>
        <pt x="1005" y="913" on="1"/>
        <pt x="990" y="926" on="0"/>
        <pt x="980" y="926" on="1"/>
        <pt x="991" y="958" on="0"/>
        <pt x="1061" y="1013" on="1"/>
        <pt x="1118" y="1055" on="0"/>
        <pt x="1176" y="1099" on="1"/>
        <pt x="1201" y="1127" on="0"/>
        <pt x="1257" y="1176" on="1"/>
        <pt x="1257" y="1183" on="0"/>
        <pt x="1252" y="1192" on="1"/>
        <pt x="1194" y="1271" on="0"/>
        <pt x="1194" y="1292" on="1"/>
        <pt x="1194" y="1343" on="0"/>
        <pt x="1248" y="1411" on="1"/>
        <pt x="1308" y="1487" on="0"/>
        <pt x="1374" y="1487" on="1"/>
        <pt x="1412" y="1487" on="0"/>
        <pt x="1446" y="1433" on="1"/>
        <pt x="1456" y="1416" on="0"/>
        <pt x="1456" y="1397" on="1"/>
        <pt x="1456" y="1377" on="0"/>
        <pt x="1426" y="1296" on="0"/>
        <pt x="1426" y="1276" on="1"/>
        <pt x="1426" y="1261" on="0"/>
        <pt x="1432" y="1248" on="1"/>
        <pt x="1442" y="1226" on="0"/>
        <pt x="1465" y="1206" on="1"/>
        <pt x="1481" y="1193" on="0"/>
      </contour>
      <contour>
        <pt x="3129" y="238" on="1"/>
        <pt x="3129" y="170" on="0"/>
        <pt x="3083" y="57" on="1"/>
        <pt x="2992" y="22" on="0"/>
        <pt x="2945" y="22" on="1"/>
        <pt x="2775" y="22" on="0"/>
        <pt x="2695" y="63" on="1"/>
        <pt x="2616" y="-18" on="0"/>
        <pt x="2551" y="-18" on="1"/>
        <pt x="2539" y="-18" on="0"/>
        <pt x="2446" y="12" on="0"/>
        <pt x="2434" y="12" on="1"/>
        <pt x="2421" y="12" on="0"/>
        <pt x="2282" y="-28" on="0"/>
        <pt x="2270" y="-28" on="1"/>
        <pt x="2258" y="-28" on="0"/>
        <pt x="2140" y="12" on="0"/>
        <pt x="2127" y="12" on="1"/>
        <pt x="2113" y="12" on="0"/>
        <pt x="1837" y="-49" on="0"/>
        <pt x="1824" y="-49" on="1"/>
        <pt x="1748" y="-49" on="0"/>
        <pt x="1726" y="-45" on="1"/>
        <pt x="1680" y="-36" on="0"/>
        <pt x="1639" y="3" on="1"/>
        <pt x="1615" y="27" on="0"/>
        <pt x="1612" y="62" on="1"/>
        <pt x="1611" y="95" on="0"/>
        <pt x="1608" y="159" on="0"/>
        <pt x="1587" y="176" on="1"/>
        <pt x="1538" y="176" on="0"/>
        <pt x="1509" y="162" on="1"/>
        <pt x="1401" y="106" on="0"/>
        <pt x="1292" y="50" on="1"/>
        <pt x="1166" y="-8" on="0"/>
        <pt x="1066" y="-8" on="1"/>
        <pt x="949" y="-8" on="0"/>
        <pt x="905" y="25" on="1"/>
        <pt x="871" y="51" on="0"/>
        <pt x="800" y="176" on="1"/>
        <pt x="647" y="2" on="0"/>
        <pt x="416" y="2" on="1"/>
        <pt x="253" y="2" on="0"/>
        <pt x="253" y="110" on="1"/>
        <pt x="253" y="151" on="0"/>
        <pt x="308" y="206" on="1"/>
        <pt x="410" y="156" on="0"/>
        <pt x="442" y="156" on="1"/>
        <pt x="532" y="156" on="0"/>
        <pt x="630" y="187" on="1"/>
        <pt x="775" y="232" on="0"/>
        <pt x="775" y="319" on="1"/>
        <pt x="775" y="330" on="0"/>
        <pt x="723" y="600" on="0"/>
        <pt x="723" y="616" on="1"/>
        <pt x="723" y="682" on="0"/>
        <pt x="757" y="749" on="1"/>
        <pt x="765" y="749" on="0"/>
        <pt x="790" y="733" on="1"/>
        <pt x="823" y="640" on="0"/>
        <pt x="843" y="519" on="1"/>
        <pt x="854" y="437" on="0"/>
        <pt x="866" y="353" on="1"/>
        <pt x="886" y="257" on="0"/>
        <pt x="946" y="186" on="1"/>
        <pt x="972" y="186" on="1"/>
        <pt x="1045" y="317" on="0"/>
        <pt x="1075" y="351" on="1"/>
        <pt x="1135" y="422" on="0"/>
        <pt x="1220" y="422" on="1"/>
        <pt x="1226" y="422" on="0"/>
        <pt x="1501" y="309" on="0"/>
        <pt x="1676" y="309" on="1"/>
        <pt x="1677" y="309" on="0"/>
        <pt x="1730" y="317" on="1"/>
        <pt x="1773" y="324" on="0"/>
        <pt x="1797" y="317" on="1"/>
        <pt x="1797" y="314" on="0"/>
        <pt x="1809" y="298" on="0"/>
        <pt x="1809" y="283" on="1"/>
        <pt x="1809" y="266" on="0"/>
        <pt x="1745" y="179" on="0"/>
        <pt x="1716" y="159" on="1"/>
        <pt x="1716" y="152" on="0"/>
        <pt x="1719" y="143" on="1"/>
        <pt x="1777" y="104" on="0"/>
        <pt x="1865" y="104" on="1"/>
        <pt x="2016" y="104" on="0"/>
        <pt x="2088" y="137" on="1"/>
        <pt x="2131" y="177" on="0"/>
        <pt x="2215" y="237" on="1"/>
        <pt x="2233" y="201" on="0"/>
        <pt x="2228" y="122" on="1"/>
        <pt x="2241" y="115" on="0"/>
        <pt x="2290" y="115" on="1"/>
        <pt x="2352" y="115" on="0"/>
        <pt x="2406" y="137" on="1"/>
        <pt x="2440" y="152" on="0"/>
        <pt x="2467" y="215" on="1"/>
        <pt x="2475" y="225" on="0"/>
        <pt x="2498" y="247" on="1"/>
        <pt x="2534" y="247" on="1"/>
        <pt x="2545" y="212" on="0"/>
        <pt x="2525" y="152" on="1"/>
        <pt x="2554" y="125" on="0"/>
        <pt x="2577" y="125" on="1"/>
        <pt x="2639" y="125" on="0"/>
        <pt x="2672" y="190" on="1"/>
        <pt x="2711" y="269" on="0"/>
        <pt x="2757" y="288" on="1"/>
        <pt x="2765" y="280" on="0"/>
        <pt x="2774" y="262" on="1"/>
        <pt x="2769" y="251" on="0"/>
        <pt x="2773" y="215" on="1"/>
        <pt x="2812" y="183" on="0"/>
        <pt x="2840" y="177" on="1"/>
        <pt x="2847" y="176" on="0"/>
        <pt x="2910" y="176" on="1"/>
        <pt x="2919" y="176" on="0"/>
        <pt x="3001" y="186" on="0"/>
        <pt x="3020" y="186" on="1"/>
        <pt x="3037" y="203" on="0"/>
        <pt x="3037" y="212" on="1"/>
        <pt x="3037" y="253" on="0"/>
        <pt x="2952" y="393" on="1"/>
        <pt x="2927" y="417" on="0"/>
        <pt x="2888" y="454" on="1"/>
        <pt x="2853" y="488" on="0"/>
        <pt x="2853" y="529" on="1"/>
        <pt x="2853" y="560" on="0"/>
        <pt x="2872" y="602" on="1"/>
        <pt x="2893" y="647" on="0"/>
        <pt x="2915" y="647" on="1"/>
        <pt x="2945" y="647" on="0"/>
        <pt x="2971" y="602" on="1"/>
        <pt x="2990" y="567" on="0"/>
        <pt x="3008" y="532" on="1"/>
        <pt x="3089" y="418" on="0"/>
        <pt x="3101" y="346" on="1"/>
        <pt x="3110" y="325" on="0"/>
        <pt x="3125" y="285" on="1"/>
        <pt x="3129" y="272" on="0"/>
      </contour>
      <contour>
        <pt x="867" y="1328" on="1"/>
        <pt x="867" y="1282" on="0"/>
        <pt x="659" y="1153" on="1"/>
        <pt x="518" y="1064" on="0"/>
        <pt x="421" y="1016" on="1"/>
        <pt x="406" y="1030" on="0"/>
        <pt x="406" y="1057" on="1"/>
        <pt x="406" y="1114" on="0"/>
        <pt x="450" y="1144" on="1"/>
        <pt x="568" y="1218" on="0"/>
        <pt x="799" y="1363" on="1"/>
        <pt x="853" y="1363" on="1"/>
        <pt x="867" y="1350" on="0"/>
      </contour>
      <contour>
        <pt x="1369" y="-253" on="1"/>
        <pt x="1369" y="-276" on="0"/>
        <pt x="1302" y="-346" on="0"/>
        <pt x="1282" y="-346" on="1"/>
        <pt x="1267" y="-346" on="0"/>
        <pt x="1230" y="-323" on="1"/>
        <pt x="1187" y="-297" on="0"/>
        <pt x="1175" y="-293" on="1"/>
        <pt x="1175" y="-240" on="1"/>
        <pt x="1174" y="-222" on="0"/>
        <pt x="1232" y="-162" on="0"/>
        <pt x="1251" y="-162" on="1"/>
        <pt x="1284" y="-162" on="0"/>
        <pt x="1328" y="-199" on="1"/>
        <pt x="1369" y="-234" on="0"/>
      </contour>
      <contour>
        <pt x="1365" y="1316" on="1"/>
        <pt x="1370" y="1329" on="0"/>
        <pt x="1345" y="1353" on="1"/>
        <pt x="1340" y="1353" on="0"/>
        <pt x="1314" y="1342" on="0"/>
        <pt x="1309" y="1342" on="1"/>
        <pt x="1309" y="1310" on="0"/>
        <pt x="1356" y="1293" on="1"/>
        <pt x="1356" y="1303" on="0"/>
      </contour>
      <contour>
        <pt x="1297" y="214" on="1"/>
        <pt x="1188" y="268" on="0"/>
        <pt x="1164" y="268" on="1"/>
        <pt x="1130" y="268" on="0"/>
        <pt x="1094" y="233" on="1"/>
        <pt x="1056" y="196" on="0"/>
        <pt x="1053" y="147" on="1"/>
        <pt x="1056" y="147" on="0"/>
        <pt x="1088" y="135" on="0"/>
        <pt x="1103" y="135" on="1"/>
        <pt x="1134" y="135" on="0"/>
        <pt x="1221" y="158" on="1"/>
        <pt x="1278" y="174" on="0"/>
      </contour>
    </TTGlyph>
</ttFont>
